<?xml version="1.0" standalone="no"?> <!DOCTYPE svg PUBLIC "-//W3C//DTD SVG 1.0//EN" "http://www.w3.org/TR/2001/REC-SVG-20010904/DTD/svg10.dtd" > <svg xmlns="http://www.w3.org/2000/svg" width="100%" height="100%">
<defs >
<font id="faktslabpromedium" horiz-adv-x="1212" ><font-face
    font-family="Fakt Slab Pro Med"
    units-per-em="2048"
    panose-1="2 0 0 0 0 0 0 0 0 0"
    ascent="1532"
    descent="-516"
    alphabetic="0" />
<missing-glyph horiz-adv-x="1482" d="M0 0V1499H1483V0H0ZM483 383L745 651L1008 383L1116 492L852 762L1116 1032L1008 1141L745 872L483 1141L375 1032L637 762L375 492L483 383Z" />
<glyph unicode=" " glyph-name="space" horiz-adv-x="434" />
<glyph unicode="!" glyph-name="exclam" horiz-adv-x="581" d="M227 406L166 1020V1409H416V1020L352 406H227ZM168 0V246H412V0H168Z" />
<glyph unicode="&quot;" glyph-name="quotedbl" horiz-adv-x="841" d="M541 862L506 1223V1409H717V1223L682 862H541ZM160 862L125 1223V1409H336V1223L301 862H160Z" />
<glyph unicode="#" glyph-name="numbersign" horiz-adv-x="1275" d="M125 922V1081H379L436 1409H625L567 1081H842L899 1409H1087L1030 1081H1239V922H1001L928 494H1151V332H899L842 0H653L711 332H436L379 0H190L248 332H37V494H276L350 922H125ZM539 922L465
494H739L813 922H539Z" />
<glyph unicode="$" glyph-name="dollar" horiz-adv-x="1163" d="M80 414H293Q299 286 373 220T571 154Q691 154 765 213T840 377Q840 424 826 458T777 517T705 558T602 594L428 647Q381 661 340 680T255 731T180 803T129 900T109 1026Q109 1181 207 1288T475 1423V1647H672V1427Q840
1405 936 1296T1036 995H821Q818 1138 755 1195T580 1253T403 1203T336 1051Q336 964 388 920T555 840L729 786Q898 734 983 640T1069 397Q1069 225 962 117T672 -16V-246H475V-20Q291 -2 186 109T80 414Z" />
<glyph unicode="%" glyph-name="percent" horiz-adv-x="1624" d="M51 893T51 1057T132 1323T369 1425T604 1323T684 1057T605 791T369 688T132 790ZM229 1168T229 1057T265 887T369 827Q436 827 471 886T506 1057Q506 1286 369 1286Q300 1286 265 1227ZM379 -25L1092
1434H1245L532 -25H379ZM940 188T940 352T1020 618T1257 721T1493 619T1573 352T1494 86T1257 -16Q1101 -16 1021 86ZM1118 352Q1118 242 1154 183T1257 123Q1325 123 1360 182T1395 352Q1395 582 1257 582Q1188 582 1153 523T1118 352Z" />
<glyph unicode="&amp;" glyph-name="ampersand" horiz-adv-x="1538" d="M104 371Q104 448 129 512T203 623T304 703T428 770Q336 868 301 936T266 1090Q266 1158 292 1219T366 1328T492 1405T666 1434Q851 1434 956 1339T1061 1094Q1061 1037 1043 988T996 904T921
835T833 780T733 733L1073 393Q1128 512 1128 676V705H1458V530H1307Q1277 376 1206 260L1466 0H1202L1083 117Q914 -25 651 -25Q392 -25 248 82T104 371ZM651 147Q839 147 956 244L545 651Q441 600 385 540T328 391Q328 278 419 213T651 147ZM471 1098Q471 1039
503 987T616 852Q733 902 795 955T858 1087Q858 1164 807 1219T666 1274Q569 1274 520 1224T471 1098Z" />
<glyph unicode="&apos;" glyph-name="quotesingle" horiz-adv-x="460" d="M160 862L125 1223V1409H336V1223L301 862H160Z" />
<glyph unicode="(" glyph-name="parenleft" horiz-adv-x="608" d="M39 532Q39 688 70 842T154 1123T260 1347T375 1524H578Q529 1460 477 1364T371 1138T284 847T250 532T285 216T374 -77T480 -305T578 -467H375Q316 -388 261 -289T154 -62T71 221T39 532Z" />
<glyph unicode=")" glyph-name="parenright" horiz-adv-x="608" d="M31 -467Q67 -416 106 -347T192 -175T274 35T334 275T358 532Q358 686 324 847T237 1137T132 1363T31 1524H231Q291 1445 345 1348T452 1123T535 842T567 532Q567 377 536 222T452 -62T345 -289T231
-467H31Z" />
<glyph unicode="*" glyph-name="asterisk" horiz-adv-x="948" d="M131 1112L182 1276L420 1165L389 1425H559L526 1163L766 1276L819 1112L561 1061L739 870L602 770L471 999L346 772L209 870L385 1063L131 1112Z" />
<glyph unicode="+" glyph-name="plus" horiz-adv-x="1163" d="M117 430V610H487V983H676V610H1047V430H676V59H487V430H117Z" />
<glyph unicode="," glyph-name="comma" horiz-adv-x="559" d="M147 0V262H412V16L309 -332H193L260 0H147Z" />
<glyph unicode="-" glyph-name="hyphen" horiz-adv-x="811" d="M115 420V612H696V420H115Z" />
<glyph unicode="." glyph-name="period" horiz-adv-x="559" d="M147 0V262H412V0H147Z" />
<glyph unicode="/" glyph-name="slash" horiz-adv-x="944" d="M61 -25L692 1434H883L252 -25H61Z" />
<glyph unicode="0" glyph-name="zero" horiz-adv-x="1163" d="M582 -25Q476 -25 391 12T248 114T152 271T96 471T78 705Q78 830 95 938T151 1138T248 1295T391 1397T582 1434T772 1397T915 1295T1011 1138T1067 938T1085 705Q1085 547 1057 418T969 187T812 31T582
-25ZM582 166Q854 166 854 705Q854 1243 582 1243Q309 1243 309 705Q309 166 582 166Z" />
<glyph unicode="1" glyph-name="one" horiz-adv-x="1163" d="M162 956V1161L578 1409H733V184H1073V0H150V184H512V1159L162 956Z" />
<glyph unicode="2" glyph-name="two" horiz-adv-x="1163" d="M90 0Q94 192 132 322T244 538T442 700L575 780Q588 788 620 807T662 834T698 857T732 883T757 908T780 937T795 968T806 1006T809 1049Q809 1132 750 1190T575 1249Q455 1249 390 1184T319 995H111Q113
1090 140 1166T212 1291T316 1373T441 1420T578 1434Q782 1434 907 1334T1032 1053Q1032 887 921 780Q869 730 738 651L737 650H736L735 649H734L732 648L731 647L730 646H729L728 645H727L726 644L725 643H724L723 642H722L721 641L588 561Q456 482 403 391T344
184H846V414H1042V0H90Z" />
<glyph unicode="3" glyph-name="three" horiz-adv-x="1163" d="M150 995V1409H1004V1288L698 868Q864 839 964 727T1065 438Q1065 326 1028 237T924 91T771 5T582 -25Q356 -25 227 86T98 414H317Q317 285 388 221T580 156Q692 156 767 230T842 438Q842 561 771
633T571 705H451V809L741 1219H344V995H150Z" />
<glyph unicode="4" glyph-name="four" horiz-adv-x="1163" d="M53 416V569L344 1409H573L283 604H602V999H821V604H1102V416H821V174H987V0H399V174H602V416H53Z" />
<glyph unicode="5" glyph-name="five" horiz-adv-x="1163" d="M791 995V1219H383L356 807Q461 893 625 893Q821 893 946 773T1071 446Q1071 330 1033 239T928 91T775 5T588 -25Q364 -25 239 89T106 414H326Q331 297 398 227T588 156Q698 156 774 229T850 432Q850
562 777 637T588 713Q445 713 342 594L143 610L190 1409H987V995H791Z" />
<glyph unicode="6" glyph-name="six" horiz-adv-x="1163" d="M621 1253Q555 1253 504 1226T412 1140T348 978T319 731Q360 805 452 849T657 893Q778 893 877 840T1037 683T1098 440Q1098 329 1059 240T953 94T797 6T608 -25Q520 -25 446 -5T304 66T190 195T116
394T88 672Q88 840 115 971T189 1188T304 1330T449 1410T618 1434Q824 1434 944 1322T1069 995H852Q848 1121 788 1187T621 1253ZM614 713Q498 713 421 633T344 426Q344 308 418 232T606 156Q722 156 799 230T877 432Q877 557 803 635T614 713Z" />
<glyph unicode="7" glyph-name="seven" horiz-adv-x="1163" d="M119 995V1409H1102V1264L518 0H289L864 1219H315V995H119Z" />
<glyph unicode="8" glyph-name="eight" horiz-adv-x="1163" d="M80 379Q80 507 152 601T338 729V737Q250 768 192 857T133 1051Q133 1222 256 1328T582 1434T907 1328T1030 1051Q1030 946 972 857T825 737V729Q939 696 1011 602T1083 379Q1083 190 946 83T582
-25Q355 -25 218 82T80 379ZM305 395Q305 281 381 218T582 154T782 217T858 395Q858 504 780 570T582 637T384 571T305 395ZM480 819T582 819T751 881T819 1044Q819 1144 752 1203T582 1262Q479 1262 412 1203T344 1044Q344 943 412 881Z" />
<glyph unicode="9" glyph-name="nine" horiz-adv-x="1163" d="M94 414H311Q315 287 380 222T563 156Q691 156 762 276T842 676Q801 604 709 560T504 516Q316 516 191 637T66 965Q66 1076 105 1166T211 1314T367 1403T555 1434Q627 1434 691 1418T814 1369T920
1280T1002 1149T1056 969T1075 737Q1075 530 1037 379T929 142T769 15T565 -25Q345 -25 222 88T94 414ZM549 696Q665 696 742 776T819 983Q819 1101 744 1177T553 1253Q439 1253 363 1178T287 973Q287 848 360 772T549 696Z" />
<glyph unicode=":" glyph-name="colon" horiz-adv-x="559" d="M147 737V999H412V737H147ZM147 0V262H412V0H147Z" />
<glyph unicode=";" glyph-name="semicolon" horiz-adv-x="559" d="M147 737V999H412V737H147ZM147 0V262H412V16L309 -332H193L260 0H147Z" />
<glyph unicode="&lt;" glyph-name="less" horiz-adv-x="1163" d="M147 430V612L1016 979V784L360 524L1016 262V61L147 430Z" />
<glyph unicode="=" glyph-name="equal" horiz-adv-x="1163" d="M115 647V827H1049V647H115ZM115 213V393H1049V213H115Z" />
<glyph unicode="&gt;" glyph-name="greater" horiz-adv-x="1163" d="M147 778V979L1016 610V428L147 61V256L803 516L147 778Z" />
<glyph unicode="?" glyph-name="question" horiz-adv-x="1050" d="M403 414V467Q403 544 422 605T473 707T541 780T617 841T686 897T736 963T756 1047Q756 1135 695 1192T528 1249Q405 1249 345 1181T285 995H68Q68 1086 95 1164T177 1303T322 1399T528 1434Q734
1434 858 1333T983 1057Q983 988 963 933T911 839T839 769T762 708T691 649T638 576T618 483V414H403ZM389 0V246H633V0H389Z" />
<glyph unicode="@" glyph-name="at" horiz-adv-x="2115" d="M596 262Q596 386 676 462T930 565L1124 596Q1205 610 1229 623T1253 672V674Q1253 762 1205 810T1057 858Q957 858 904 813T844 682H635Q644 839 755 931T1051 1024Q1262 1024 1368 927T1475 645V338Q1475
119 1624 119Q1718 119 1783 229T1849 557Q1849 780 1746 948T1467 1203T1065 1290Q885 1290 734 1226T481 1052T323 792T266 471Q266 238 362 57T632 -224T1028 -324Q1315 -324 1462 -176H1681Q1460 -467 1028 -467Q827 -467 654 -397T359 -204T168 94T98 471Q98
670 167 846T361 1152T667 1358T1065 1434Q1337 1434 1552 1327T1892 1019T2017 557Q2017 409 1982 296T1886 115T1751 15T1589 -18Q1364 -18 1296 143Q1194 -25 934 -25Q773 -25 685 54T596 262ZM1253 410V502Q1226 468 1151 455L973 426Q889 413 852 376T815
276Q815 210 861 172T987 133Q1100 133 1176 204T1253 410Z" />
<glyph unicode="A" glyph-name="A" horiz-adv-x="1556" d="M373 1219V1409H913L1366 190H1524V0H975V190H1128L1049 412H498L420 190H571V0H33V190H188L571 1219H373ZM778 1180H770L563 600H983L778 1180Z" />
<glyph unicode="B" glyph-name="B" horiz-adv-x="1464" d="M70 1219V1409H872Q1100 1409 1214 1313T1329 1040Q1329 937 1273 859T1108 748V739Q1236 717 1311 630T1386 418Q1386 232 1263 116T913 0H70V190H250V1219H70ZM895 635H481V190H895Q1022 190 1087 253T1153
422Q1153 518 1087 576T895 635ZM856 1219H481V821H854Q973 821 1035 879T1098 1032Q1098 1219 856 1219Z" />
<glyph unicode="C" glyph-name="C" horiz-adv-x="1472" d="M1133 995Q1092 1108 999 1168T766 1229Q559 1229 434 1084T309 705Q309 475 433 328T758 180Q1044 180 1128 414H1362Q1310 209 1151 92T754 -25Q551 -25 395 69T154 328T70 702Q70 857 119 992T257
1225T474 1378T752 1434Q1024 1434 1143 1264H1151V1409H1354V995H1133Z" />
<glyph unicode="D" glyph-name="D" horiz-adv-x="1531" d="M70 1219V1409H719Q899 1409 1040 1357T1273 1210T1412 988T1460 705Q1460 550 1413 422T1274 199T1041 53T719 0H70V190H250V1219H70ZM709 1219H481V190H709Q845 190 946 231T1106 345T1193 508T1221
705T1193 901T1106 1064T946 1178T709 1219Z" />
<glyph unicode="E" glyph-name="E" horiz-adv-x="1366" d="M70 1219V1409H1237V995H1034V1219H481V809H963V623H481V190H1053V414H1255V0H70V190H250V1219H70Z" />
<glyph unicode="F" glyph-name="F" horiz-adv-x="1292" d="M70 1219V1409H1217V995H1014V1219H481V791H956V600H481V190H686V0H70V190H250V1219H70Z" />
<glyph unicode="G" glyph-name="G" horiz-adv-x="1576" d="M1219 0L1212 174Q1062 -25 764 -25Q561 -25 402 70T157 331T70 705Q70 861 122 996T267 1227T492 1379T780 1434Q1071 1434 1198 1264H1206V1409H1407V995H1186Q1142 1112 1050 1170T795 1229Q576 1229
443 1083T309 705Q309 475 438 328T774 180Q887 180 980 221T1133 346T1192 545V563H815V750H1399V0H1219Z" />
<glyph unicode="H" glyph-name="H" horiz-adv-x="1673" d="M1010 1219V1409H1602V1219H1421V190H1602V0H1010V190H1190V616H481V190H662V0H70V190H250V1219H70V1409H662V1219H481V809H1190V1219H1010Z" />
<glyph unicode="I" glyph-name="I" horiz-adv-x="731" d="M70 1219V1409H662V1219H481V190H662V0H70V190H250V1219H70Z" />
<glyph unicode="J" glyph-name="J" horiz-adv-x="1177" d="M539 1219V1409H1108V1219H944V412Q944 188 831 82T516 -25Q320 -25 207 75T90 389V414H317V391Q317 279 372 226T514 172Q606 172 658 231T711 420V1219H539Z" />
<glyph unicode="K" glyph-name="K" horiz-adv-x="1497" d="M827 1219V1409H1419V1219H1257L864 819L1309 190H1464V0H1159L702 655L481 428V190H662V0H70V190H250V1219H70V1409H481V696L987 1219H827Z" />
<glyph unicode="L" glyph-name="L" horiz-adv-x="1232" d="M70 1219V1409H662V1219H481V190H961V414H1163V0H70V190H250V1219H70Z" />
<glyph unicode="M" glyph-name="M" horiz-adv-x="2039" d="M70 1219V1409H549L1022 313H1026L1495 1409H1970V1219H1790V190H1970V0H1384V190H1561L1577 1073H1569L1108 0H932L471 1055H463L477 190H657V0H70V190H250V1219H70Z" />
<glyph unicode="N" glyph-name="N" horiz-adv-x="1681" d="M1026 1219V1409H1610V1219H1438V0H1227L481 1012H473L479 190H662V0H70V190H250V1219H70V1409H465L1206 393H1214L1206 1219H1026Z" />
<glyph unicode="O" glyph-name="O" horiz-adv-x="1546" d="M70 549T70 705T121 995T262 1227T485 1379T774 1434Q927 1434 1058 1379T1281 1227T1425 995T1477 705Q1477 549 1425 414T1282 183T1059 31T774 -25Q618 -25 486 30T263 182T121 414ZM309 705Q309 475
437 328T774 180Q981 180 1109 328T1237 705Q1237 933 1109 1081T774 1229Q566 1229 438 1082T309 705Z" />
<glyph unicode="P" glyph-name="P" horiz-adv-x="1378" d="M70 1219V1409H829Q1069 1409 1200 1285T1331 958Q1331 754 1199 624T829 494H481V190H686V0H70V190H250V1219H70ZM817 1219H481V684H817Q956 684 1027 761T1098 956Q1098 1075 1028 1147T817 1219Z" />
<glyph unicode="Q" glyph-name="Q" horiz-adv-x="1548" d="M70 549T70 705T121 995T262 1227T485 1379T774 1434Q927 1434 1058 1379T1281 1227T1425 995T1477 705Q1477 541 1422 403T1264 164L1528 -111L1376 -260L1090 43Q943 -25 774 -25Q618 -25 486 30T263
182T121 414ZM309 705Q309 475 437 328T774 180Q981 180 1109 328T1237 705Q1237 933 1109 1081T774 1229Q566 1229 438 1082T309 705Z" />
<glyph unicode="R" glyph-name="R" horiz-adv-x="1458" d="M70 1219V1409H827Q1071 1409 1198 1298T1325 989Q1325 834 1246 724T1016 571L1249 190H1407V0H1102L774 547H481V190H659V0H70V190H250V1219H70ZM823 1219H481V735H823Q954 735 1023 806T1092 987Q1092
1094 1022 1156T823 1219Z" />
<glyph unicode="S" glyph-name="S" horiz-adv-x="1282" d="M946 995Q918 1116 832 1184T612 1253Q492 1253 415 1198T338 1044Q338 989 367 950T446 888T560 850T696 821T839 791T975 745T1089 676T1168 567T1198 410Q1198 208 1060 92T678 -25Q403 -25 303 127H295V0H96V414H301Q333
291 424 224T662 156Q804 156 884 216T965 379Q965 437 936 478T857 544T743 584T608 615T466 645T331 689T218 756T139 861T109 1014Q109 1205 244 1319T602 1434Q843 1434 944 1282H952V1409H1151V995H946Z" />
<glyph unicode="T" glyph-name="T" horiz-adv-x="1363" d="M70 995V1409H1294V995H1090V1223H797V190H1030V0H334V190H565V1223H274V995H70Z" />
<glyph unicode="U" glyph-name="U" horiz-adv-x="1640" d="M1010 1219V1409H1569V1219H1405V561Q1405 404 1363 290T1242 107T1058 7T819 -25Q686 -25 582 7T398 107T276 289T233 561V1219H70V1409H629V1219H465V563Q465 378 554 279T819 180Q996 180 1085 278T1174
563V1219H1010Z" />
<glyph unicode="V" glyph-name="V" horiz-adv-x="1519" d="M938 1219V1409H1487V1219H1333L891 0H627L186 1219H33V1409H592V1219H424L762 229H768L1104 1219H938Z" />
<glyph unicode="W" glyph-name="W" horiz-adv-x="2199" d="M1599 1219V1409H2167V1219H2015L1706 0H1413L1106 1122H1098L795 0H500L184 1219H33V1409H610V1219H430L657 252H666L977 1409H1235L1550 252H1559L1778 1219H1599Z" />
<glyph unicode="X" glyph-name="X" horiz-adv-x="1425" d="M817 1219V1409H1370V1219H1219L850 723L1247 190H1393V0H825V190H979L707 571L434 190H594V0H33V190H182L569 713L195 1219H51V1409H608V1219H463L715 864L965 1219H817Z" />
<glyph unicode="Y" glyph-name="Y" horiz-adv-x="1427" d="M854 1219V1409H1395V1219H1249L827 559V190H1059V0H362V190H594V549L180 1219H33V1409H604V1219H438L713 768H721L1004 1219H854Z" />
<glyph unicode="Z" glyph-name="Z" horiz-adv-x="1308" d="M119 995V1409H1184V1268L397 188H997V414H1200V0H102V141L889 1221H322V995H119Z" />
<glyph unicode="[" glyph-name="bracketleft" horiz-adv-x="702" d="M369 -291H666V-467H168V1524H666V1348H369V-291Z" />
<glyph unicode="\" glyph-name="backslash" horiz-adv-x="944" d="M692 -25L61 1434H252L883 -25H692Z" />
<glyph unicode="]" glyph-name="bracketright" horiz-adv-x="702" d="M37 -291H334V1348H37V1524H537V-467H37V-291Z" />
<glyph unicode="^" glyph-name="asciicircum" horiz-adv-x="1163" d="M102 721L481 1409H684L1063 721H850L580 1231L309 721H102Z" />
<glyph unicode="_" glyph-name="underscore" horiz-adv-x="1024" d="M0 -147H1024V-322H0V-147Z" />
<glyph unicode="`" glyph-name="grave" horiz-adv-x="1173" d="M510 1163L211 1499H457L666 1163H510Z" />
<glyph unicode="a" glyph-name="a" horiz-adv-x="1150" d="M111 657Q112 827 229 925T537 1024Q742 1024 847 929T952 655V172H1094V0H739V129H731Q686 55 604 15T410 -25Q250 -25 161 51T72 256T151 458T406 561L600 594Q675 606 702 619T729 662Q729 755 681
806T535 858Q433 858 378 806T322 657H111ZM729 410V502Q702 468 627 455L455 426Q293 401 293 279Q293 216 336 179T463 141Q575 141 652 210T729 410Z" />
<glyph unicode="b" glyph-name="b" horiz-adv-x="1255" d="M55 1327V1499H426V1186Q426 981 416 850H424Q512 1024 756 1024Q951 1024 1076 887T1202 508Q1202 386 1166 285T1067 117T920 12T739 -25Q512 -25 424 150H416V0H55V172H203V1327H55ZM426 500Q426 339
502 247T700 154Q819 154 895 250T971 508Q971 668 896 757T700 846Q583 846 507 758T426 516V500Z" />
<glyph unicode="c" glyph-name="c" horiz-adv-x="1077" d="M53 492Q53 614 90 715T191 883T341 987T526 1024Q734 1024 803 879H811V999H999V651H803Q779 743 719 794T565 846Q433 846 358 751T283 500T357 249T557 154Q651 154 711 207T786 348H999Q981 184 867
80T549 -25Q318 -25 186 114T53 492Z" />
<glyph unicode="d" glyph-name="d" horiz-adv-x="1255" d="M672 1327V1499H1051V172H1200V0H840V150H831Q787 62 701 19T500 -25Q305 -25 179 112T53 492Q53 613 89 714T188 882T335 987T516 1024Q743 1024 831 850H840Q829 981 829 1186V1327H672ZM283 492Q283
332 358 243T555 154T752 246T829 500T753 753T555 846Q436 846 360 750T283 492Z" />
<glyph unicode="e" glyph-name="e" horiz-adv-x="1075" d="M53 496Q53 731 193 877T549 1024Q762 1024 889 895T1016 537V463H281Q290 317 364 236T559 154Q660 154 719 202T795 332H1006Q988 176 865 76T559 -25Q318 -25 186 112T53 496ZM551 850Q454 850 385
788T291 612H795Q768 850 551 850Z" />
<glyph unicode="f" glyph-name="f" horiz-adv-x="727" d="M63 0V172H221V827H63V999H221V1141Q221 1499 584 1499H696V1327H602Q516 1327 480 1280T444 1135V999H664V827H444V172H664V0H63Z" />
<glyph unicode="g" glyph-name="g" horiz-adv-x="1249" d="M92 -119H297Q297 -196 368 -244T549 -293Q692 -293 766 -218T840 45V150H831Q787 62 701 19T500 -25Q305 -25 179 112T53 492Q53 613 89 714T188 882T335 987T516 1024Q743 1024 831 850H840V999H1194V827H1051V45Q1051
-93 1015 -193T910 -353T752 -439T549 -467Q344 -467 220 -377T92 -119ZM283 492Q283 332 358 243T555 154Q673 154 749 241T829 483V500Q829 661 753 753T555 846Q436 846 360 750T283 492Z" />
<glyph unicode="h" glyph-name="h" horiz-adv-x="1306" d="M748 0V172H887V578Q887 720 832 782T676 844Q568 844 497 758T426 528V172H565V0H55V172H203V1327H55V1499H426V1190Q426 985 416 854H424Q510 1024 733 1024Q795 1024 849 1011T951 966T1034 888T1088
769T1108 606V172H1251V0H748Z" />
<glyph unicode="i" glyph-name="i" horiz-adv-x="655" d="M63 0V172H221V827H63V999H444V172H592V0H63ZM213 1274V1499H453V1274H213Z" />
<glyph unicode="j" glyph-name="j" horiz-adv-x="604" d="M45 827V999H418V-150Q418 -297 345 -376T102 -455H33V-276H78Q142 -276 168 -240T195 -127V827H45ZM186 1274V1499H426V1274H186Z" />
<glyph unicode="k" glyph-name="k" horiz-adv-x="1177" d="M598 827V999H1128V827H997L745 594L1016 172H1145V0H870L588 449L426 299V172H573V0H55V172H203V1327H55V1499H426V535L737 827H598Z" />
<glyph unicode="l" glyph-name="l" horiz-adv-x="628" d="M55 1327V1499H426V172H573V0H55V172H203V1327H55Z" />
<glyph unicode="m" glyph-name="m" horiz-adv-x="1951" d="M1393 0V172H1532V592Q1532 728 1485 786T1339 844Q1236 844 1167 758T1098 524V172H1237V0H739V172H877V592Q877 726 828 785T684 844Q581 844 513 756T444 522V172H582V0H63V172H221V827H63V999H434V854H442Q485
938 563 981T745 1024Q984 1024 1063 825Q1160 1024 1399 1024Q1475 1024 1537 1002T1648 934T1725 808T1753 618V172H1896V0H1393Z" />
<glyph unicode="n" glyph-name="n" horiz-adv-x="1325" d="M766 0V172H905V578Q905 720 850 782T692 844Q583 844 514 755T444 520V172H584V0H63V172H221V827H63V999H434V854H442Q529 1024 752 1024Q814 1024 868 1011T970 967T1052 888T1106 769T1126 606V172H1270V0H766Z"
/>
<glyph unicode="o" glyph-name="o" horiz-adv-x="1128" d="M53 500Q53 739 195 881T563 1024Q797 1024 936 884T1075 500Q1075 260 932 118T563 -25Q330 -25 192 116T53 500ZM283 656T283 500T360 250T563 156T766 250T844 500Q844 660 767 752T563 844Q438 844 361 750Z" />
<glyph unicode="p" glyph-name="p" horiz-adv-x="1255" d="M57 827V999H416V850H424Q512 1024 756 1024Q951 1024 1076 887T1202 508Q1202 386 1166 285T1067 117T920 12T739 -25Q512 -25 424 150H416Q426 18 426 -186V-279H647V-451H55V-279H203V827H57ZM426
661T426 500T502 247T700 154Q819 154 895 250T971 508Q971 668 896 757T700 846T503 754Z" />
<glyph unicode="q" glyph-name="q" horiz-adv-x="1255" d="M608 -279H829V-186Q829 18 840 150H831Q787 62 701 19T500 -25Q305 -25 179 112T53 492Q53 613 89 714T188 882T335 987T516 1024Q743 1024 831 850H840V999H1198V827H1051V-279H1200V-451H608V-279ZM283
492Q283 332 358 243T555 154T752 246T829 500T753 753T555 846Q436 846 360 750T283 492Z" />
<glyph unicode="r" glyph-name="r" horiz-adv-x="821" d="M63 827V999H434V805H442Q527 999 731 999H780V793H717Q603 793 524 721T444 502V172H668V0H63V172H221V827H63Z" />
<glyph unicode="s" glyph-name="s" horiz-adv-x="997" d="M725 668Q707 763 645 815T492 868Q404 868 353 834T301 735Q301 693 329 666T402 627T506 604T624 586T743 559T846 511T920 427T948 295Q948 137 838 56T549 -25Q348 -25 268 100H260V0H74V334H262Q280
233 350 182T518 131Q614 131 669 167T725 272Q725 321 690 350T599 392T474 414T338 439T213 483T121 569T86 713Q86 856 192 940T463 1024Q647 1024 719 899H727V999H913V668H725Z" />
<glyph unicode="t" glyph-name="t" horiz-adv-x="724" d="M184 309V827H0V999H184V1303H406V999H662V827H406V326Q406 245 438 209T545 172H662V0H508Q340 0 262 74T184 309Z" />
<glyph unicode="u" glyph-name="u" horiz-adv-x="1298" d="M729 827V999H1094V172H1243V0H883V145H874Q787 -25 571 -25Q493 -25 428 -3T309 66T225 197T195 393V827H55V999H418V422Q418 280 473 218T629 156Q737 156 804 243T872 483V827H729Z" />
<glyph unicode="v" glyph-name="v" horiz-adv-x="1204" d="M694 827V999H1171V827H1044L735 0H479L160 827H33V999H528V827H395L606 225H614L825 827H694Z" />
<glyph unicode="w" glyph-name="w" horiz-adv-x="1759" d="M1229 827V999H1726V827H1591L1358 0H1094L883 778H874L666 0H401L168 827H33V999H539V827H391L537 221H545L766 999H1001L1221 221H1229L1374 827H1229Z" />
<glyph unicode="x" glyph-name="x" horiz-adv-x="1138" d="M637 827V999H1100V827H979L711 500L981 172H1106V0H608V172H729L557 385L385 172H500V0H33V172H158L426 498L156 827H39V999H524V827H408L580 612L754 827H637Z" />
<glyph unicode="y" glyph-name="y" horiz-adv-x="1204" d="M694 827V999H1171V827H1044L633 -279H784V-451H244V-279H422L502 -59L160 827H33V999H528V827H395L606 225H614L825 827H694Z" />
<glyph unicode="z" glyph-name="z" horiz-adv-x="993" d="M86 651V999H905V862L358 174H739V348H920V0H72V125L631 825H268V651H86Z" />
<glyph unicode="{" glyph-name="braceleft" horiz-adv-x="757" d="M262 -147V188Q262 267 253 315T218 398T148 445T33 459V614Q104 614 148 627T218 675T253 757T262 885V1204Q262 1369 339 1446T602 1524H727V1354H625Q533 1354 499 1318T465 1190V815Q465 702
418 637T260 541V532Q371 503 418 438T465 258V-133Q465 -224 499 -260T625 -297H727V-467H602Q416 -467 339 -390T262 -147Z" />
<glyph unicode="|" glyph-name="bar" horiz-adv-x="555" d="M180 -492V1556H375V-492H180Z" />
<glyph unicode="}" glyph-name="braceright" horiz-adv-x="757" d="M31 -297H133Q225 -297 259 -261T293 -133V258Q293 372 340 437T498 532V541Q387 571 340 636T293 815V1190Q293 1281 259 1317T133 1354H31V1524H154Q342 1524 418 1447T494 1204V885Q494 806
503 758T538 675T608 628T723 614V459Q652 459 608 446T538 398T503 316T494 188V-147Q494 -313 418 -390T154 -467H31V-297Z" />
<glyph unicode="~" glyph-name="asciitilde" horiz-adv-x="1163" d="M106 367Q106 532 184 616T379 700Q442 700 503 677T606 626T694 575T780 551Q883 551 883 705H1059Q1059 541 982 456T793 371Q730 371 667 395T562 449T472 503T385 528Q283 528 283 367H106Z" />
</font>
</defs>
</svg>
