<?xml version="1.0" standalone="no"?>
<!DOCTYPE svg PUBLIC "-//W3C//DTD SVG 1.1//EN" "http://www.w3.org/Graphics/SVG/1.1/DTD/svg11.dtd" >
<svg xmlns="http://www.w3.org/2000/svg">
<metadata></metadata>
<defs>
<font id="fakt_slab_prolight_italic" horiz-adv-x="1163" >
<font-face units-per-em="2048" ascent="1532" descent="-516" />
<missing-glyph horiz-adv-x="434" />
<glyph unicode="&#xfb01;" horiz-adv-x="1060" d="M29 -451l229 1371h-180l14 79h178l33 189q54 311 352 311h86l-12 -80h-80q-209 0 -248 -235l-30 -185h561l-144 -829q-17 -102 80 -102q49 0 99 24l-15 -78q-50 -26 -112 -26q-82 0 -123.5 46.5t-26.5 135.5l129 750h-463l-229 -1371h-98zM883 1311l30 188h107l-31 -188 h-106z" />
<glyph unicode="&#xfb02;" horiz-adv-x="1048" d="M29 -451l229 1371h-180l14 79h178l33 189q54 311 352 311h355l-226 -1329q-9 -52 13 -77t67 -25q49 0 99 24l-13 -78q-54 -26 -114 -26q-83 0 -124 46.5t-24 135.5l211 1249h-250q-209 0 -248 -235l-30 -185h239l-14 -79h-240l-229 -1371h-98z" />
<glyph unicode="&#xfb03;" horiz-adv-x="1622" d="M29 -451l229 1371h-180l14 79h178l33 189q54 311 352 311h86l-12 -80h-80q-209 0 -248 -235l-30 -185h460l33 189q54 311 353 311h86l-15 -80h-78q-207 0 -249 -235l-31 -185h563l-143 -829q-17 -102 80 -102q45 0 98 24l-15 -78q-50 -26 -112 -26q-83 0 -123.5 45 t-26.5 137l129 750h-465l-227 -1371h-98l229 1371h-463l-229 -1371h-98zM1444 1311l31 188h106l-31 -188h-106z" />
<glyph unicode="&#xfb04;" horiz-adv-x="1609" d="M29 -451l229 1371h-180l14 79h178l33 189q54 311 352 311h86l-12 -80h-80q-209 0 -248 -235l-30 -185h460l33 189q54 311 353 311h354l-225 -1329q-17 -102 79 -102q51 0 97 24l-13 -78q-50 -26 -112 -26q-83 0 -124 45t-24 137l211 1249h-250q-207 0 -249 -235l-31 -185 h241l-14 -79h-242l-227 -1371h-98l229 1371h-463l-229 -1371h-98z" />
<glyph horiz-adv-x="2048" />
<glyph horiz-adv-x="2048" />
<glyph unicode="&#xd;" horiz-adv-x="2048" />
<glyph unicode=" "  horiz-adv-x="434" />
<glyph unicode="&#x09;" horiz-adv-x="434" />
<glyph unicode="&#xa0;" horiz-adv-x="434" />
<glyph unicode="!" horiz-adv-x="475" d="M90 0l31 197h112l-32 -197h-111zM182 381l86 668l62 360h114l-61 -360l-143 -668h-58z" />
<glyph unicode="&#x22;" horiz-adv-x="770" d="M233 893l41 332l31 184h98l-30 -184l-76 -332h-64zM594 893l41 332l31 184h98l-31 -184l-76 -332h-63z" />
<glyph unicode="#" horiz-adv-x="1220" d="M61 373v76h246l90 522h-241v78h256l63 360h90l-63 -360h381l63 360h90l-63 -360h235v-78h-250l-90 -522h246v-76h-260l-63 -373h-91l64 373h-381l-64 -373h-90l64 373h-232zM397 449h381l90 522h-381z" />
<glyph unicode="$" d="M70 381h98q-15 -153 76.5 -236.5t255.5 -83.5q176 0 290.5 92.5t114.5 252.5q0 95 -54.5 153t-170.5 94l-209 66q-57 18 -100.5 40.5t-82 57.5t-59 87.5t-20.5 119.5q0 172 123 281.5t323 121.5l39 220h97l-37 -220q165 -14 261.5 -119t78.5 -280h-99q13 156 -71 238 t-236 82q-166 0 -272.5 -82.5t-106.5 -229.5q0 -97 56.5 -148t169.5 -85l206 -66q267 -85 267 -319q0 -191 -137 -309t-347 -127l-37 -228h-98l39 228q-176 15 -273.5 119.5t-84.5 279.5z" />
<glyph unicode="%" horiz-adv-x="1540" d="M154 956q0 47 10 109q28 158 118.5 258t227.5 100q117 0 177.5 -73t60.5 -195q0 -38 -11 -106q-28 -159 -118.5 -259t-229.5 -100q-116 0 -175.5 72.5t-59.5 193.5zM240 961q0 -95 39.5 -148t119.5 -53q95 0 161.5 79t90.5 210q8 49 8 104q0 95 -39 148t-118 53 q-95 0 -161.5 -78t-90.5 -211q-10 -62 -10 -104zM279 -25q126 194 964 1459h80l-965 -1459h-79zM850 252q0 46 10 108q28 158 118.5 258.5t227.5 100.5q117 0 177.5 -73t60.5 -195q0 -45 -10 -107q-28 -158 -119 -258t-230 -100q-116 0 -175.5 72.5t-59.5 193.5zM936 256 q0 -95 40 -148t120 -53q95 0 161.5 79t90.5 210q8 49 8 105q0 95 -39 147.5t-119 52.5q-95 0 -161.5 -78t-90.5 -211q-10 -62 -10 -104z" />
<glyph unicode="&#x26;" horiz-adv-x="1466" d="M86 326q0 54 12.5 101.5t33 84.5t54 72t67 60t80 51.5t85.5 44.5t92 40q-71 92 -106 164t-35 146q0 148 104.5 244t282.5 96q143 0 228 -76t85 -193q0 -47 -13 -89.5t-32.5 -74.5t-54.5 -63t-65.5 -52.5t-80.5 -46t-84.5 -39.5t-91.5 -38l369 -453q113 154 158 400h268 l-15 -80h-182q-53 -229 -174 -387l197 -238h-113l-141 172q-189 -192 -488 -192q-203 0 -321.5 97.5t-118.5 248.5zM184 334q0 -121 93.5 -197t252.5 -76q261 0 428 177l-399 485q-68 -28 -115.5 -51.5t-100.5 -59t-85 -73.5t-53 -90.5t-21 -114.5zM463 1098 q0 -60 34 -125.5t103 -155.5q61 25 97.5 41t86 41.5t79 49.5t58 55.5t41.5 69t13 81.5q0 86 -60.5 141.5t-166.5 55.5q-132 0 -208.5 -72t-76.5 -182z" />
<glyph unicode="'" horiz-adv-x="409" d="M233 893l41 332l31 184h98l-30 -184l-76 -332h-64z" />
<glyph unicode="(" horiz-adv-x="544" d="M53 283q0 636 529 1241h90q-63 -71 -126.5 -156.5t-138 -212.5t-130 -258t-93 -293t-37.5 -317q0 -224 56.5 -423t128.5 -331h-86q-79 142 -136 335t-57 415z" />
<glyph unicode=")" horiz-adv-x="544" d="M-127 -467q63 71 126.5 156.5t137.5 212.5t129.5 258t93 293t37.5 317q0 224 -56 423.5t-128 330.5h86q79 -145 136 -337t57 -413q0 -152 -32.5 -305t-83 -279.5t-122.5 -251.5t-141.5 -219t-149.5 -186h-90z" />
<glyph unicode="*" horiz-adv-x="909" d="M240 1161l36 76l256 -107l33 295h82l-69 -297l294 109l15 -76l-301 -78l147 -227l-74 -45l-114 244l-203 -244l-59 45l225 229z" />
<glyph unicode="+" d="M113 477l12 84h414l71 422h90l-71 -422h413l-12 -84h-416l-69 -420h-90l69 420h-411z" />
<glyph unicode="," horiz-adv-x="458" d="M4 -319l123 319h-49l37 221h121l-37 -213l-136 -327h-59z" />
<glyph unicode="-" horiz-adv-x="811" d="M115 471l12 90h565l-12 -90h-565z" />
<glyph unicode="." horiz-adv-x="458" d="M78 0l37 221h121l-39 -221h-119z" />
<glyph unicode="/" horiz-adv-x="823" d="M-39 -25l870 1459h89l-871 -1459h-88z" />
<glyph unicode="0" d="M111 467q0 128 20 242q27 157 78 287t125 227.5t175.5 152t221.5 54.5q129 0 215.5 -63t125 -170t38.5 -255q0 -128 -20 -242q-27 -157 -78 -286.5t-125 -227.5t-176 -152t-222 -54q-191 0 -284.5 131t-93.5 356zM213 467q0 -191 71 -295t218 -104q187 0 314.5 172.5 t172.5 464.5q19 130 19 237q0 191 -71 295t-218 104q-187 0 -315 -172t-173 -464q-18 -123 -18 -238z" />
<glyph unicode="1" d="M70 0l12 88h412l204 1198l-440 -246l14 99l471 270h74l-225 -1321h387l-12 -88h-897z" />
<glyph unicode="2" d="M29 0q35 173 92 290t139 195.5t215 153.5l162 90q22 12 66 35.5t65.5 35.5t57 34.5t54 39.5t42.5 44.5t35.5 54.5t20.5 63t9 78q0 104 -75 166.5t-210 62.5q-151 0 -257 -79t-140 -236h-92q17 86 53 155t83 114.5t107 76t122 43.5t129 13q169 0 273.5 -83t104.5 -225 q0 -52 -10.5 -97.5t-25.5 -79t-43.5 -66.5t-52 -54.5t-63.5 -47t-66 -40t-71.5 -38.5t-68.5 -37l-162 -91q-171 -95 -251.5 -203.5t-120.5 -279.5h704l49 293h88l-49 -293l-14 -88h-899z" />
<glyph unicode="3" d="M109 381h92q-26 -149 60 -232t245 -83q178 0 303 120.5t125 309.5q0 128 -84 207t-229 79h-62l8 58l406 481h-572l-49 -293h-86l64 381h784l-8 -55l-420 -494q157 -14 251.5 -113t94.5 -255q0 -154 -74.5 -272.5t-195 -179t-264.5 -60.5q-205 0 -313.5 107t-75.5 294z " />
<glyph unicode="4" d="M55 414l13 69l514 926h102l-514 -911h500l88 501h94l-86 -501h330l-17 -84h-327l-58 -330h187l-13 -84h-487l12 84h207l55 330h-600z" />
<glyph unicode="5" d="M109 381h92q-22 -141 60.5 -228t244.5 -87q180 2 306 130t126 324q0 138 -84.5 216.5t-216.5 78.5q-209 0 -371 -188l-90 4l182 778h752l-63 -381h-89l50 293h-574l-137 -561q147 141 342 141q179 0 290 -100.5t111 -276.5q0 -121 -43.5 -224.5t-117 -172.5t-171.5 -108 t-206 -39q-204 0 -312.5 108.5t-80.5 292.5z" />
<glyph unicode="6" d="M123 444q0 98 10 183q29 235 112 414.5t219.5 284t307.5 104.5q179 0 273.5 -103.5t84.5 -298.5h-96q9 152 -63 233.5t-209 81.5q-139 0 -249 -93t-177 -245.5t-98 -353.5q60 112 176.5 181t257.5 69q183 0 290 -101.5t107 -271.5q0 -151 -68.5 -276t-192.5 -198.5 t-278 -73.5q-188 0 -297.5 113t-109.5 351zM233 362q0 -138 84 -217t224 -79q180 0 303 132.5t123 321.5q0 132 -82.5 212.5t-220.5 80.5q-180 0 -305.5 -131t-125.5 -320z" />
<glyph unicode="7" d="M221 1028l64 381h952l-12 -72l-824 -1337h-108l817 1321h-752l-49 -293h-88z" />
<glyph unicode="8" d="M72 324q0 154 112 267t271 144v4q-95 25 -151 100t-56 181q0 118 67 213t175.5 146t234.5 51q170 0 271.5 -88t101.5 -240q0 -127 -95 -231.5t-225 -131.5v-6q115 -25 186.5 -107.5t71.5 -199.5q0 -102 -44.5 -187t-120 -141t-173.5 -87t-206 -31q-189 0 -304.5 94.5 t-115.5 249.5zM168 330q0 -119 92.5 -191.5t239.5 -72.5q114 0 213 41.5t162 124.5t63 190q0 119 -91 193.5t-241 74.5q-117 0 -216.5 -43.5t-160.5 -127t-61 -189.5zM342 1020q0 -108 74 -176t209 -68q160 0 269.5 94t109.5 228q0 117 -78.5 183.5t-206.5 66.5 q-98 0 -183 -38.5t-139.5 -114.5t-54.5 -175z" />
<glyph unicode="9" d="M92 381h96q-9 -151 67 -233t214 -82q105 0 192.5 52.5t150.5 146.5t105.5 217.5t65.5 273.5q-60 -111 -176 -179.5t-256 -68.5q-183 0 -290 101.5t-107 271.5q0 151 67.5 276t191.5 199t279 74q188 0 298 -113.5t110 -351.5q0 -115 -10 -183q-24 -178 -74 -322 t-127 -252.5t-186.5 -168t-243.5 -59.5q-181 0 -279 103.5t-88 297.5zM256 889q0 -132 82.5 -212.5t220.5 -80.5q180 0 305 131t125 320q0 136 -84.5 216t-222.5 80q-180 0 -303 -132.5t-123 -321.5z" />
<glyph unicode=":" horiz-adv-x="458" d="M78 0l37 221h121l-39 -221h-119zM211 778l39 221h119l-37 -221h-121z" />
<glyph unicode=";" horiz-adv-x="458" d="M4 -319l123 319h-49l37 221h121l-37 -213l-136 -327h-59zM211 778l39 221h119l-37 -221h-121z" />
<glyph unicode="&#x3c;" d="M143 483l13 82l921 373l-10 -92l-819 -324l706 -321l-14 -90z" />
<glyph unicode="=" d="M80 264l12 84h918l-13 -84h-917zM147 692l15 86h919l-12 -86h-922z" />
<glyph unicode="&#x3e;" d="M82 111l12 92l817 321l-706 324l16 90l797 -373l-14 -82z" />
<glyph unicode="?" horiz-adv-x="958" d="M164 1028q28 185 151.5 293.5t313.5 108.5q152 0 251 -83.5t99 -220.5q0 -73 -23.5 -133t-61.5 -102t-84.5 -78.5t-95 -72t-90.5 -73t-74 -91t-42 -117.5l-8 -58h-99l9 58q12 75 44.5 136.5t74 102.5t89.5 77t93.5 69.5t83 70t60 88.5t22.5 115q0 98 -72.5 161.5 t-183.5 63.5q-146 0 -241 -80.5t-124 -234.5h-92zM328 0l30 197h111l-29 -197h-112z" />
<glyph unicode="@" horiz-adv-x="2113" d="M70 369q0 178 48 339t141 292t222 227.5t297.5 149.5t360.5 53q175 0 331.5 -55t274.5 -153.5t187 -246.5t69 -324q0 -92 -14.5 -182.5t-49.5 -180t-86.5 -157t-133 -109.5t-181.5 -42q-106 0 -170.5 51t-73.5 157q-63 -97 -164 -152.5t-215 -55.5q-179 0 -284 115.5 t-105 303.5q0 173 70.5 316.5t189 224t256.5 80.5q128 0 219 -66.5t121 -173.5h4l37 219h97l-123 -720q-18 -103 18.5 -164.5t130.5 -61.5q81 0 146 40t105 102t67 142.5t38 156.5t11 149q0 168 -64 305t-173 225t-250.5 135.5t-299.5 47.5q-169 0 -320 -49t-267.5 -138.5 t-201.5 -211t-130 -271.5t-45 -315q0 -156 52 -295.5t144.5 -243.5t230 -164.5t300.5 -60.5q329 0 545 200h110q-129 -136 -301.5 -204t-368.5 -68q-181 0 -333.5 66.5t-254 180.5t-158 265.5t-56.5 321.5zM627 408q0 -155 80.5 -248.5t218.5 -93.5q120 0 215 75.5 t144.5 195t49.5 255.5q0 156 -78.5 249t-216.5 93q-120 0 -216 -75.5t-146.5 -195t-50.5 -255.5z" />
<glyph unicode="A" horiz-adv-x="1544" d="M-57 0l12 88h178l678 1233h-221l12 88h379l279 -1321h186l-12 -88h-486l13 88h192l-76 377h-635l-206 -377h190l-12 -88h-471zM489 553h570l-154 754h-2z" />
<glyph unicode="B" horiz-adv-x="1392" d="M-33 0l15 88h196l211 1233h-196l14 88h747q185 0 277 -74.5t92 -212.5q0 -132 -80.5 -239.5t-218.5 -143.5q114 -24 177 -100t63 -178q0 -198 -148 -329.5t-379 -131.5h-770zM281 88h471q184 0 296.5 103t112.5 262q0 106 -77.5 173.5t-223.5 67.5h-475zM399 782h457 q162 0 262.5 95t100.5 237q0 97 -68.5 152t-212.5 55h-446z" />
<glyph unicode="C" horiz-adv-x="1388" d="M102 559q0 192 68 357t182.5 276.5t266 174.5t317.5 63q126 0 243.5 -30.5t196.5 -92.5l-45 -279h-92l37 232q-147 75 -346 75q-145 0 -276.5 -55.5t-230 -153.5t-156.5 -243.5t-58 -315.5q0 -227 136 -360t368 -133q252 0 469 123l-19 -103q-190 -114 -469 -114 q-267 0 -429.5 157t-162.5 422z" />
<glyph unicode="D" horiz-adv-x="1458" d="M-33 0l15 88h200l207 1233h-196l12 88h565q157 0 280.5 -43.5t202 -121.5t119.5 -184t41 -233q0 -180 -61 -332.5t-172.5 -262t-276.5 -171t-366 -61.5h-570zM285 88h260q175 0 319 55t240.5 152.5t149.5 233t53 294.5q0 108 -32 197.5t-97 157.5t-171 105.5t-245 37.5 h-270z" />
<glyph unicode="E" horiz-adv-x="1314" d="M-33 0l15 88h200l207 1233h-196l12 88h1118l-63 -381h-95l49 293h-722l-95 -559h611l-13 -88h-612l-98 -586h737l51 293h92l-65 -381h-1133z" />
<glyph unicode="F" horiz-adv-x="1245" d="M-33 0l15 88h200l207 1233h-196l12 88h1102l-64 -381h-94l49 293h-704l-99 -576h604l-12 -88h-606l-96 -569h223l-14 -88h-527z" />
<glyph unicode="G" horiz-adv-x="1466" d="M102 553q0 156 44.5 295t124.5 244t186.5 182t234.5 116.5t264 39.5q286 0 449 -119l-45 -283h-92l37 229q-156 78 -353 78q-150 0 -285 -54.5t-237 -152t-161.5 -243.5t-59.5 -320q0 -229 138.5 -360t383.5 -131q204 0 387 86l82 481h-405l14 88h504l-2 -4h2l-105 -621 q-206 -124 -493 -124q-281 0 -447 153.5t-166 419.5z" />
<glyph unicode="H" horiz-adv-x="1572" d="M-33 0l15 88h200l207 1233h-196l14 88h502l-15 -88h-202l-95 -559h852l94 559h-196l12 88h504l-12 -88h-205l-207 -1233h199l-15 -88h-501l12 88h203l98 586h-852l-98 -586h198l-14 -88h-502z" />
<glyph unicode="I" horiz-adv-x="618" d="M-33 0l15 88h200l207 1233h-196l12 88h504l-15 -88h-202l-207 -1233h198l-14 -88h-502z" />
<glyph unicode="J" horiz-adv-x="1052" d="M63 338l9 43h100l-6 -43q-6 -38 -6 -70q0 -85 43 -132q60 -66 176 -66q110 0 190.5 70.5t104.5 209.5l166 971h-199l14 88h500l-14 -88h-199l-166 -971q-31 -184 -140 -277t-265 -93q-79 0 -140.5 20.5t-105 62t-59.5 111.5q-9 39 -9 83q0 38 6 81z" />
<glyph unicode="K" horiz-adv-x="1470" d="M-33 0l15 88h200l207 1233h-196l14 88h301l-150 -877l867 789h-201l14 88h502l-12 -88h-172l-578 -522l406 -711h180l-12 -88h-236l-411 731l-369 -334l-51 -309h198l-14 -88h-502z" />
<glyph unicode="L" horiz-adv-x="1187" d="M-33 0l15 88h200l207 1233h-196l12 88h504l-15 -88h-202l-207 -1233h655l51 293h92l-65 -381h-1051z" />
<glyph unicode="M" horiz-adv-x="1904" d="M-33 0l15 88h200l207 1233h-196l12 88h313l365 -1274h2l778 1274h332l-15 -88h-202l-207 -1233h198l-14 -88h-502l15 88h200l203 1155h-2l-764 -1243h-80l-354 1231h-4l-182 -1143h198l-14 -88h-502z" />
<glyph unicode="N" horiz-adv-x="1581" d="M-33 0l15 88h200l207 1233h-196l12 88h293l667 -1241l193 1153h-199l15 88h501l-14 -88h-203l-221 -1321h-92l-668 1241l-192 -1153h198l-14 -88h-502z" />
<glyph unicode="O" horiz-adv-x="1495" d="M102 561q0 239 103 438.5t283.5 315t398.5 115.5q251 0 407 -164t156 -418q0 -179 -61.5 -340t-166.5 -276.5t-251 -183.5t-309 -68q-252 0 -406 163t-154 418zM205 565q0 -222 127 -358.5t342 -136.5q139 0 263.5 61t214 165t142 247t52.5 301q0 222 -129 358.5 t-345 136.5q-184 0 -337.5 -103.5t-241.5 -281.5t-88 -389z" />
<glyph unicode="P" horiz-adv-x="1323" d="M-37 0l14 88h205l207 1233h-199l15 88h704q196 0 301 -98.5t105 -257.5q0 -228 -150 -370t-395 -142h-410l-75 -453h229l-14 -88h-537zM377 629h405q195 0 310.5 116.5t115.5 298.5q0 122 -77.5 199.5t-221.5 77.5h-415z" />
<glyph unicode="Q" horiz-adv-x="1495" d="M102 561q0 239 103 438.5t283.5 315t398.5 115.5q251 0 407 -164t156 -418q0 -223 -92 -412.5t-250 -308.5l223 -285l-82 -63l-231 293q-165 -92 -356 -92q-252 0 -406 163t-154 418zM205 565q0 -222 127 -358.5t342 -136.5q139 0 263.5 61t214 165t142 247t52.5 301 q0 222 -129 358.5t-345 136.5q-184 0 -337.5 -103.5t-241.5 -281.5t-88 -389z" />
<glyph unicode="R" horiz-adv-x="1400" d="M-33 0l15 88h200l207 1233h-196l12 88h708q202 0 308 -90t106 -246q0 -188 -122.5 -316t-321.5 -151l227 -518h188l-12 -88h-242l-264 602h-409l-86 -514h196l-12 -88h-502zM387 692h428q180 0 293 106.5t113 270.5q0 115 -80 183.5t-228 68.5h-419z" />
<glyph unicode="S" horiz-adv-x="1249" d="M61 104l45 277h95l-37 -225q164 -86 379 -86q209 0 339 91t130 257q0 68 -34 116t-89 73.5t-126 46.5t-144.5 34t-144.5 36.5t-126 54t-89 86.5t-34 134q0 141 77 240t201.5 145t284.5 46q262 0 412 -107l-45 -291h-92l37 236q-142 71 -326 71q-80 0 -155 -17.5 t-141 -53.5t-106 -100.5t-40 -147.5q0 -73 43.5 -121.5t112.5 -73t153 -43t168 -40.5t153 -55t112.5 -97t43.5 -156q0 -113 -45 -201t-125 -142.5t-186 -82.5t-232 -28q-133 0 -258.5 31t-210.5 93z" />
<glyph unicode="T" horiz-adv-x="1290" d="M162 1028l65 381h1141l-65 -381h-93l50 293h-429l-206 -1233h249l-12 -88h-610l14 88h256l207 1233h-426l-49 -293h-92z" />
<glyph unicode="U" horiz-adv-x="1540" d="M180 1321l13 88h481l-12 -88h-191l-131 -768q-13 -72 -12 -134q0 -138 63 -223q92 -122 297 -122t339 122t173 357l131 768h-184l14 88h481l-12 -88h-196l-131 -768q-51 -290 -215 -431.5t-408 -141.5q-120 0 -211 33t-153 103t-82 178q-9 50 -8 109q0 69 12 150l131 768 h-189z" />
<glyph unicode="V" horiz-adv-x="1527" d="M172 1321l14 88h467l-12 -88h-195l244 -1219l658 1219h-193l12 88h475l-12 -88h-176l-719 -1321h-127l-264 1321h-172z" />
<glyph unicode="W" horiz-adv-x="2162" d="M176 1321l14 88h490l-12 -88h-213l106 -1217h4l600 1305h121l176 -1305h4l510 1217h-219l15 88h503l-14 -88h-184l-561 -1321h-132l-174 1290h-4l-594 -1290h-139l-117 1321h-180z" />
<glyph unicode="X" horiz-adv-x="1429" d="M-57 0l12 88h158l567 635l-326 598h-170l15 88h475l-15 -88h-194l289 -533l469 533h-195l14 88h476l-15 -88h-164l-536 -602l344 -631h172l-12 -88h-480l13 88h196l-305 567l-502 -567h205l-14 -88h-477z" />
<glyph unicode="Y" horiz-adv-x="1441" d="M172 1321l12 88h465l-12 -88h-191l295 -649h4l519 649h-189l12 88h474l-13 -88h-168l-604 -750l-82 -483h256l-14 -88h-612l14 88h254l84 487l-338 746h-166z" />
<glyph unicode="Z" horiz-adv-x="1249" d="M20 0l9 66l1095 1255h-759l-50 -293h-92l64 381h987l-8 -66l-1098 -1255h793l51 293h92l-66 -381h-1018z" />
<glyph unicode="[" horiz-adv-x="622" d="M20 -467l345 1991h385l-13 -80h-299l-315 -1831h299l-12 -80h-390z" />
<glyph unicode="\" horiz-adv-x="823" d="M209 1434h86l377 -1459h-86z" />
<glyph unicode="]" horiz-adv-x="622" d="M-127 -467l12 80h299l316 1831h-299l12 80h389l-344 -1991h-385z" />
<glyph unicode="^" d="M162 721l518 688h96l279 -688h-103l-237 606l-447 -606h-106z" />
<glyph unicode="_" horiz-adv-x="1024" d="M-131 -223l12 76h1024l-12 -76h-1024z" />
<glyph unicode="`" horiz-adv-x="1105" d="M426 1499h106l164 -336h-65z" />
<glyph unicode="a" horiz-adv-x="1175" d="M61 399q0 130 40.5 246t109.5 198t164 129.5t200 47.5q129 0 221 -66.5t122 -173.5h4l36 219h97l-142 -825q-3 -17 -4 -32q-1 -30 15 -48q22 -26 67 -26q49 0 99 24l-13 -78q-54 -26 -110 -26q-75 0 -117 40q-35 33 -35 95q0 13 2 27l4 28h-4q-63 -93 -159.5 -145.5 t-206.5 -52.5q-180 0 -285 115.5t-105 303.5zM164 408q0 -155 80.5 -248.5t218.5 -93.5q119 0 214.5 76.5t145 196t49.5 253.5q0 156 -78 249t-216 93q-120 0 -216 -75.5t-147 -195t-51 -255.5z" />
<glyph unicode="b" d="M94 0l242 1419h-180l14 80h276l-55 -325q-4 -28 -29.5 -171t-35.5 -182h2q64 92 160.5 145.5t207.5 53.5q177 0 283 -116t106 -302q0 -175 -68.5 -318t-186 -223.5t-257.5 -80.5q-134 0 -226 65.5t-120 173.5h-2l-37 -219h-94zM274 408q0 -156 78.5 -249t216.5 -93 q120 0 216 75.5t147 195t51 255.5q0 155 -80.5 248.5t-218.5 93.5q-120 0 -215 -75.5t-145 -195t-50 -255.5z" />
<glyph unicode="c" horiz-adv-x="974" d="M61 385q0 148 46.5 269.5t126.5 200.5t185 122t224 43q179 0 297 -82l-47 -262h-88l35 213q-98 45 -207 45q-94 0 -178.5 -36t-149.5 -102.5t-103 -170t-38 -228.5q0 -157 86 -244t235 -87q156 0 320 86l-14 -89q-141 -83 -314 -83q-191 0 -303.5 105.5t-112.5 299.5z " />
<glyph unicode="d" horiz-adv-x="1175" d="M61 399q0 130 40.5 246t109.5 198t164 129.5t200 47.5q129 0 221 -66.5t122 -173.5h4q5 43 29.5 196t31.5 189l43 254h-178l12 80h279l-226 -1325q-3 -16 -3 -30q0 -76 81 -76q49 0 99 24l-13 -78q-54 -26 -114 -26q-71 0 -113 40q-34 32 -35 90q0 13 2 27l4 33h-4 q-63 -93 -159.5 -145.5t-206.5 -52.5q-180 0 -285 115.5t-105 303.5zM164 408q0 -155 80.5 -248.5t218.5 -93.5q119 0 214.5 76.5t145 196t49.5 253.5q0 156 -78 249t-216 93q-120 0 -216 -75.5t-147 -195t-51 -255.5z" />
<glyph unicode="e" horiz-adv-x="1019" d="M61 377q0 186 71.5 333.5t193.5 228.5t272 81q178 0 276 -128q73 -96 74 -244q0 -49 -8 -103l-8 -43h-760q-8 -49 -8 -117q0 -152 88.5 -235.5t243.5 -83.5q194 0 358 94l-18 -94q-147 -86 -351 -86q-193 0 -308.5 102.5t-115.5 294.5zM188 578h658q4 35 4 67 q0 124 -56 197q-70 92 -206 92q-137 0 -246.5 -97t-153.5 -259z" />
<glyph unicode="f" horiz-adv-x="561" d="M29 -451l229 1371h-180l14 79h178l33 189q54 311 352 311h86l-12 -80h-80q-209 0 -248 -235l-30 -185h239l-14 -79h-240l-229 -1371h-98z" />
<glyph unicode="g" horiz-adv-x="1175" d="M4 -373l14 90q154 -98 334 -98q85 0 153 19.5t125.5 62t97 117t58.5 178.5l35 182h-4q-63 -93 -159.5 -145.5t-206.5 -52.5q-180 0 -285 115.5t-105 303.5q0 130 40.5 246t109.5 198t164 129.5t200 47.5q129 0 221 -66.5t122 -173.5h4l36 219h267l-13 -79h-172l-157 -924 q-78 -461 -531 -461q-217 0 -348 92zM164 408q0 -155 80.5 -248.5t218.5 -93.5q119 0 214.5 76.5t145 196t49.5 253.5q0 156 -78 249t-216 93q-120 0 -216 -75.5t-147 -195t-51 -255.5z" />
<glyph unicode="h" horiz-adv-x="1187" d="M102 0l240 1419h-178l14 80h277l-62 -356q-39 -241 -57 -324h4q61 100 156 150.5t209 50.5q163 0 249 -102q61 -73 62 -195q0 -49 -10 -105l-76 -444q-3 -17 -3 -30q1 -30 15 -49q22 -27 66 -27q48 0 98 24l-14 -78q-46 -26 -113 -26q-83 0 -124 47q-29 33 -29 89 q0 23 5 50l76 444q9 50 9 93q0 91 -42 145q-60 78 -194 78q-139 0 -248 -113.5t-143 -308.5l-88 -512h-99z" />
<glyph unicode="i" horiz-adv-x="499" d="M78 920l14 79h279l-142 -829q-3 -17 -3 -32q0 -70 81 -70q49 0 99 24l-15 -78q-46 -26 -112 -26q-83 0 -124 45q-29 32 -29 87q0 23 5 50l127 750h-180zM322 1311l30 188h107l-31 -188h-106z" />
<glyph unicode="j" horiz-adv-x="479" d="M25 -451l233 1371h-180l14 79h279l-248 -1450h-98zM322 1311l30 188h107l-31 -188h-106z" />
<glyph unicode="k" horiz-adv-x="1052" d="M102 0l240 1419h-176l14 80h275l-183 -1077l625 577h121l-432 -397l190 -440q25 -54 45 -74t62 -20q31 0 88 24l-15 -78q-43 -26 -106 -26q-60 0 -93 30t-63 99l-180 420l-264 -242l-49 -295h-99z" />
<glyph unicode="l" horiz-adv-x="487" d="M127 170l211 1249h-174l12 80h275l-228 -1329q-3 -15 -3 -28q0 -31 16 -49q22 -25 67 -25q48 0 98 24l-12 -78q-54 -26 -115 -26q-84 0 -124 45q-29 32 -28 87q0 23 5 50z" />
<glyph unicode="m" horiz-adv-x="1822" d="M78 920l14 79h275l-35 -192q61 106 151 159.5t201 53.5q117 0 196 -58.5t97 -173.5q130 232 375 232q74 0 133 -24t100 -74q41 -48 55 -124q7 -35 7 -77q0 -47 -9 -103l-73 -444q-3 -17 -3 -31q0 -75 80 -75q49 0 99 24l-15 -78q-46 -26 -112 -26q-82 0 -124 47 q-29 33 -29 89q0 23 5 50l76 444q9 52 9 96q0 90 -37 142q-55 78 -179 78q-134 0 -240.5 -113.5t-140.5 -308.5l-88 -512h-96l102 606q10 57 10 104q0 92 -36 144q-54 80 -178 80q-134 0 -241 -115.5t-140 -310.5l-86 -508h-99l158 920h-182z" />
<glyph unicode="n" horiz-adv-x="1187" d="M78 920l14 79h275l-31 -180h4q61 100 156 150.5t209 50.5q163 0 249 -102q61 -73 62 -195q0 -49 -10 -105l-76 -444q-3 -17 -3 -31q0 -30 14 -48q21 -27 67 -27q48 0 98 24l-14 -78q-46 -26 -111 -26q-83 0 -125 47q-30 33 -30 90q0 23 5 49l76 444q9 50 9 93 q0 91 -42 145q-60 78 -194 78q-139 0 -248.5 -113.5t-142.5 -308.5l-88 -512h-99l154 920h-178z" />
<glyph unicode="o" horiz-adv-x="1073" d="M61 401q0 64 17 144q19 94 62.5 178.5t107.5 151t154.5 106t193.5 39.5q184 0 291.5 -116.5t107.5 -305.5q0 -68 -16 -143q-19 -95 -62.5 -179.5t-107.5 -151t-154.5 -105.5t-193.5 -39q-184 0 -292 116.5t-108 304.5zM164 406q0 -153 82.5 -246.5t222.5 -93.5 q148 0 260.5 111.5t147.5 277.5q16 72 16 139q0 153 -82.5 246.5t-222.5 93.5q-148 0 -260.5 -111.5t-147.5 -277.5q-16 -72 -16 -139z" />
<glyph unicode="p" horiz-adv-x="1171" d="M29 -451l231 1371h-178l14 79h271l-33 -178h2q65 94 161.5 146.5t207.5 52.5q177 0 283 -116t106 -302q0 -175 -68.5 -318t-186 -223.5t-257.5 -80.5q-134 0 -226 65.5t-120 173.5h-3q-4 -39 -28 -197.5t-29 -185.5l-49 -287h-98zM283 408q0 -156 78.5 -249t216.5 -93 q120 0 216 75.5t146.5 195t50.5 255.5q0 155 -80.5 248.5t-218.5 93.5q-120 0 -215 -75t-144.5 -194.5t-49.5 -256.5z" />
<glyph unicode="q" horiz-adv-x="1171" d="M61 399q0 130 40.5 246t109.5 198t164 129.5t200 47.5q129 0 221 -66.5t122 -173.5h4l36 219h259l-13 -79h-166l-231 -1371h-98l45 267q3 22 31 173t36 189h-4q-63 -93 -159.5 -145.5t-206.5 -52.5q-177 0 -283.5 116t-106.5 303zM164 408q0 -155 80.5 -248.5 t218.5 -93.5q119 0 214.5 76.5t145 196t49.5 253.5q0 156 -78 249t-216 93q-120 0 -216 -75.5t-147 -195t-51 -255.5z" />
<glyph unicode="r" horiz-adv-x="679" d="M78 920l14 79h275l-31 -180h4q114 180 332 180h45l-15 -92h-40q-134 0 -237 -103t-136 -292l-88 -512h-99l156 920h-180z" />
<glyph unicode="s" horiz-adv-x="958" d="M66 66l45 258h88l-35 -209q121 -56 278 -56q144 0 236 59.5t92 176.5q0 55 -33.5 91t-87 53.5t-118 29.5t-129 26.5t-118 37t-87 68.5t-33.5 114q0 146 115.5 225.5t302.5 79.5q93 0 179 -22.5t144 -63.5l-45 -258h-88l35 215q-104 49 -234 49q-141 0 -226 -53.5 t-85 -161.5q0 -52 33.5 -85t87 -49.5t118 -28t129 -26.5t118 -39t87 -72.5t33.5 -119.5q0 -83 -33.5 -147t-92.5 -102t-135 -57t-167 -19q-234 0 -374 86z" />
<glyph unicode="t" horiz-adv-x="606" d="M37 920l12 79h211l51 304h99l-52 -304h269l-13 -79h-270l-111 -670q-5 -28 -5 -52q0 -50 22 -82q32 -48 110 -48q68 0 138 32l-13 -80q-62 -32 -145 -32q-122 0 -174 68q-38 49 -37 127q0 31 6 67l111 670h-209z" />
<glyph unicode="u" horiz-adv-x="1179" d="M70 920l14 79h276l-108 -614q-9 -51 -9 -93q-1 -92 41 -146q60 -80 195 -80q139 0 248 113t143 308l74 433h-178l12 79h279l-139 -825q-3 -18 -3 -33q0 -31 13 -48q19 -25 67 -25q45 0 95 24l-15 -78q-46 -26 -104 -26q-77 0 -118 40q-35 34 -35 99q0 11 1 23l4 30h-4 q-61 -100 -155.5 -150t-206.5 -50q-166 0 -251 102q-60 72 -60 195q0 51 10 110l92 533h-178z" />
<glyph unicode="v" horiz-adv-x="983" d="M-20 920l12 79h207l219 -890h4l203 276q61 82 95.5 133t64.5 120t30 124q0 73 -45 115.5t-139 42.5h-43l12 79h41q126 0 197 -57.5t71 -167.5q0 -95 -48.5 -191.5t-147.5 -226.5l-269 -356h-96l-223 920h-145z" />
<glyph unicode="w" horiz-adv-x="1548" d="M-20 920l12 79h207l219 -890h4l348 477l-82 334h-143l12 79h207l219 -890h2l205 276q63 86 96 135t63.5 118t30.5 124q0 73 -45.5 115.5t-140.5 42.5h-41l14 79h41q124 0 195.5 -57.5t71.5 -167.5q0 -94 -48.5 -189t-148.5 -229l-266 -356h-99l-116 479l-361 -479h-88 l-223 920h-145z" />
<glyph unicode="x" horiz-adv-x="1089" d="M-25 0l13 82h137l364 422l-213 416h-170l15 79h221l213 -424l293 345h-146l15 79h393l-12 -79h-142l-360 -422l170 -326q30 -58 53.5 -81t59.5 -23q60 0 98 24l-14 -78q-50 -26 -107 -26q-67 0 -102 33.5t-82 125.5l-142 279l-297 -344h146l-14 -82h-390z" />
<glyph unicode="y" d="M53 -381l15 90q122 -90 305 -90q164 0 270.5 87t144.5 290l35 184h-4q-61 -100 -155.5 -150t-206.5 -50q-80 0 -142 24t-104.5 73.5t-56.5 126.5q-7 35 -7 77q0 48 9 104l92 535h-178l14 79h276l-108 -614q-9 -51 -9 -93q0 -92 41 -146q61 -80 195 -80q139 0 248 113 t143 308l74 433h-178l14 79h277l-170 -1003q-78 -461 -514 -461q-219 0 -320 84z" />
<glyph unicode="z" horiz-adv-x="950" d="M12 0l15 70l757 850h-532l-41 -244h-84l55 323h740l-11 -65l-761 -852h555l40 242h86l-55 -324h-764z" />
<glyph unicode="{" horiz-adv-x="745" d="M82 502l8 67q131 18 190 71.5t80 182.5l68 398q52 303 340 303h98l-12 -76h-92q-102 0 -164.5 -58t-81.5 -169l-65 -398q-22 -132 -80.5 -193t-177.5 -93v-5q106 -36 141.5 -99t11.5 -193l-67 -404q-37 -227 167 -227h91l-11 -76h-96q-291 0 -242 303l70 404 q23 131 -11 187.5t-165 74.5z" />
<glyph unicode="|" horiz-adv-x="524" d="M39 -492l350 2048h92l-352 -2048h-90z" />
<glyph unicode="}" horiz-adv-x="745" d="M-127 -467l14 76h90q102 0 164.5 58t81.5 169l70 412q15 91 48.5 147.5t82 86t127.5 50.5v5q-106 36 -142 100t-12 194l66 390q37 227 -170 227h-90l12 76h96q147 0 206.5 -78t35.5 -225l-68 -390q-15 -82 -6.5 -136t51 -84t132.5 -42l-9 -67q-130 -18 -189.5 -72 t-80.5 -182l-72 -412q-52 -303 -338 -303h-100z" />
<glyph unicode="~" d="M115 385q23 134 93 204t169 70q50 0 97 -18.5t83.5 -45.5t71.5 -54t74.5 -45.5t78.5 -18.5q138 0 172 191h86q-23 -135 -92.5 -205t-169.5 -70q-50 0 -97 18.5t-83.5 45.5t-71.5 54t-74.5 45.5t-78.5 18.5q-66 0 -110.5 -47t-61.5 -143h-86z" />
<glyph unicode="&#xa1;" horiz-adv-x="475" d="M18 -410l64 361l143 667h56l-86 -667l-62 -361h-115zM229 803l33 196h113l-33 -196h-113z" />
<glyph unicode="&#xa2;" d="M152 602q0 259 143.5 436.5t374.5 192.5l32 205h99l-33 -207q139 -18 224 -107.5t89 -236.5h-92q-9 129 -87 197.5t-202 68.5q-161 0 -281 -111.5t-153 -298.5q-12 -61 -12 -131q0 -157 89 -246.5t226 -89.5q127 0 227 70.5t142 192.5h94q-43 -150 -166 -241.5 t-272 -100.5l-37 -220h-96l35 224q-152 20 -248 125t-96 278z" />
<glyph unicode="&#xa3;" d="M-49 152q0 99 68.5 167t173.5 68q91 0 192 -76q29 110 29 189q0 67 -27 194h-219l8 70h193q-37 160 -37 231q0 198 116 316.5t306 118.5q176 0 259.5 -106.5t49.5 -295.5h-94q28 147 -30 233.5t-194 86.5q-141 0 -228 -90t-87 -250q0 -20 2 -42t4.5 -38t8 -43t8 -38.5 t10.5 -43t10 -39.5h375l-8 -70h-348q20 -92 20 -170q0 -142 -55 -276q5 -5 38 -36t42 -38.5t37 -32t43 -32t40 -21t47 -18t46 -4.5q188 0 249 315h84q-80 -401 -338 -401q-44 0 -86 14.5t-81 42.5t-69 55t-68 65l-19 19q-48 -89 -122 -142.5t-165 -53.5q-83 0 -133.5 50 t-50.5 122zM27 164q0 -50 30 -83.5t86 -33.5q132 0 215 191q-97 79 -174 79q-69 0 -113 -45t-44 -108z" />
<glyph unicode="&#xa4;" d="M166 362l147 127q-43 68 -43 154q0 75 31 147t86 128l-100 122l59 47l100 -122q97 75 220 75q117 0 196 -73l146 125l47 -54l-150 -127q45 -67 45 -153q0 -76 -31 -148.5t-85 -126.5l100 -123l-60 -47l-100 121q-96 -74 -219 -74q-120 0 -197 74l-143 -125zM354 647 q0 -95 58 -154t153 -59q125 0 213 95t88 225q0 97 -58 155t-153 58q-125 0 -213 -95t-88 -225z" />
<glyph unicode="&#xa5;" d="M145 274l13 66h342l35 203h-342l12 65h338l-344 801h106l301 -707h4l547 707h109l-623 -801h344l-12 -65h-344l-35 -203h344l-12 -66h-344l-45 -274h-97l45 274h-342z" />
<glyph unicode="&#xa6;" horiz-adv-x="524" d="M70 -336l123 721h90l-123 -721h-90zM242 688l123 721h92l-123 -721h-92z" />
<glyph unicode="&#xa7;" horiz-adv-x="1122" d="M16 -156h95q-9 -78 33 -132.5t106.5 -77.5t140.5 -23q157 0 252.5 74.5t95.5 195.5q0 83 -52 133.5t-144 79.5l-176 58q-129 44 -192.5 116.5t-63.5 182.5q0 133 92.5 228.5t240.5 135.5q-182 82 -182 254q0 166 127.5 265.5t323.5 99.5q73 0 140 -17.5t123 -53t86 -98 t23 -143.5h-94q6 59 -17 105.5t-65 74.5t-93 42t-107 14q-158 0 -253.5 -75.5t-95.5 -197.5q0 -149 197 -211l176 -57q129 -44 193.5 -116.5t64.5 -184.5q0 -133 -95 -229t-243 -135q185 -80 185 -254q0 -164 -127.5 -263.5t-323.5 -99.5q-74 0 -140.5 17t-123 52t-86 97 t-21.5 143zM207 461q0 -86 51.5 -141.5t155.5 -88.5l131 -43q147 18 247.5 106t100.5 214q0 84 -51.5 139t-155.5 88l-129 41q-148 -15 -249 -102.5t-101 -212.5z" />
<glyph unicode="&#xa8;" horiz-adv-x="1105" d="M428 1241l33 180h98l-33 -180h-98zM827 1241l31 180h98l-30 -180h-99z" />
<glyph unicode="&#xa9;" horiz-adv-x="1589" d="M82 713q0 202 90.5 365.5t254 257.5t368.5 94q151 0 283 -55t226 -150t148.5 -228t54.5 -284q0 -202 -90 -369t-253.5 -265.5t-368.5 -98.5t-369 98.5t-254 265.5t-90 369zM164 713q0 -182 79 -333t224.5 -241t327.5 -90q181 0 326.5 90t224.5 241t79 333 q0 181 -79.5 327.5t-224 231t-326.5 84.5q-183 0 -328 -84.5t-224 -231t-79 -327.5zM455 713q0 151 94 254.5t242 103.5q160 0 231 -104v88h72v-217h-78q-20 77 -75.5 121.5t-145.5 44.5q-115 0 -186.5 -84t-71.5 -207q0 -122 72.5 -206.5t185.5 -84.5q91 0 146 44.5 t75 121.5h80q-21 -107 -100 -170.5t-201 -63.5q-151 0 -245.5 104t-94.5 255z" />
<glyph unicode="&#xaa;" horiz-adv-x="817" d="M164 987q0 187 106 311.5t258 124.5q94 0 157 -40.5t87 -110.5l25 137h92l-98 -569q-11 -70 49 -70q34 0 69 14l-12 -69q-38 -19 -84 -19q-60 0 -90.5 30.5t-24.5 90.5q-88 -125 -260 -125q-126 0 -200 80.5t-74 214.5zM260 993q0 -103 53.5 -165t145.5 -62 q121 0 198.5 104.5t77.5 249.5q0 104 -52 166t-146 62q-120 0 -198.5 -105.5t-78.5 -249.5z" />
<glyph unicode="&#xab;" horiz-adv-x="1019" d="M113 518l370 416h84l-350 -426l209 -410h-82zM514 518l373 416h82l-348 -426l206 -410h-82z" />
<glyph unicode="&#xac;" d="M117 477l14 84h920l-88 -504h-91l74 420h-829z" />
<glyph unicode="&#xad;" horiz-adv-x="811" d="M115 471l12 90h565l-12 -90h-565z" />
<glyph unicode="&#xae;" horiz-adv-x="1589" d="M82 713q0 202 90.5 365.5t254 257.5t368.5 94q151 0 283 -55t226 -150t148.5 -228t54.5 -284q0 -202 -90 -369t-253.5 -265.5t-368.5 -98.5t-369 98.5t-254 265.5t-90 369zM164 713q0 -182 79 -333t224.5 -241t327.5 -90q181 0 326.5 90t224.5 241t79 333 q0 181 -79.5 327.5t-224 231t-326.5 84.5q-183 0 -328 -84.5t-224 -231t-79 -327.5zM455 360v68h102v569h-102v68h419q116 0 178 -56t62 -153q0 -83 -52 -141.5t-140 -71.5l143 -215h94v-68h-137l-182 281h-201v-213h111v-68h-295zM639 709h233q77 0 118.5 40t41.5 107 q0 66 -41.5 103.5t-118.5 37.5h-233v-288z" />
<glyph unicode="&#xaf;" horiz-adv-x="1105" d="M399 1292l13 76h565l-12 -76h-566z" />
<glyph unicode="&#xb0;" horiz-adv-x="720" d="M184 1110q0 134 93 227t227 93q107 0 174 -67.5t67 -166.5q0 -134 -92.5 -225.5t-226.5 -91.5q-107 0 -174.5 66.5t-67.5 164.5zM266 1118q0 -72 45 -120t119 -48q97 0 165.5 69.5t68.5 168.5q0 72 -45 120t-119 48q-97 0 -165.5 -69.5t-68.5 -168.5z" />
<glyph unicode="&#xb1;" d="M20 0l13 84h925l-12 -84h-926zM133 602l10 84h418l66 391h90l-66 -391h414l-14 -84h-414l-64 -385h-90l64 385h-414z" />
<glyph unicode="&#xb2;" horiz-adv-x="720" d="M158 1016q25 136 91 217t185 121l90 30q94 32 138.5 65.5t44.5 94.5q0 50 -41.5 84.5t-114.5 34.5q-84 0 -143.5 -42.5t-77.5 -129.5h-82q24 121 106 181.5t201 60.5q104 0 170 -50.5t66 -130.5q0 -39 -12 -71t-30.5 -54t-49.5 -41.5t-60 -31.5t-72 -27l-90 -31 q-177 -60 -207 -206h385l23 127h78l-37 -201h-561z" />
<glyph unicode="&#xb3;" horiz-adv-x="720" d="M209 1217h80q-11 -72 36.5 -109t131.5 -37q96 0 155.5 45.5t59.5 128.5q0 58 -43.5 91.5t-120.5 33.5h-49l8 51l233 228h-317l-18 -129h-78l30 200h500l-8 -51l-244 -237q90 -11 143.5 -60.5t53.5 -122.5q0 -117 -86 -182.5t-223 -65.5q-129 0 -196 54t-48 162z" />
<glyph unicode="&#xb4;" horiz-adv-x="1105" d="M625 1163l278 336h115l-322 -336h-71z" />
<glyph unicode="&#xb5;" horiz-adv-x="1191" d="M25 -451l235 1371h-178l12 79h279l-105 -606q-28 -167 32 -247t196 -80q133 0 243 111.5t140 287.5l77 455h-178l15 79h276l-137 -825q-20 -106 76 -106q44 0 94 24l-12 -78q-50 -26 -107 -26q-75 0 -115.5 40t-33.5 122l4 30h-4q-63 -100 -157.5 -150t-205.5 -50 q-185 0 -262 116q-35 -251 -62 -389l-26 -158h-96z" />
<glyph unicode="&#xb6;" horiz-adv-x="1191" d="M184 905q0 223 159 363.5t405 140.5h67l-240 -1409h-284l12 82h186l84 483q-187 7 -288 98t-101 242zM795 0l239 1409h285l-12 -80h-189l-213 -1247h187l-13 -82h-284z" />
<glyph unicode="&#xb7;" horiz-adv-x="458" d="M147 410l37 213h119l-37 -213h-119z" />
<glyph unicode="&#xb8;" horiz-adv-x="1105" d="M258 -434l12 63h97q75 0 115 39.5t40 95.5q0 41 -31 65t-92 24h-43l86 147h39l-41 -90q80 -3 122 -41t42 -96q0 -86 -64 -146.5t-180 -60.5h-102z" />
<glyph unicode="&#xb9;" horiz-adv-x="720" d="M201 1016l12 74h227l88 526l-245 -127l14 80l281 151h55l-105 -630h213l-12 -74h-528z" />
<glyph unicode="&#xba;" horiz-adv-x="804" d="M164 989q0 110 46 208.5t136 162t203 63.5q135 0 214 -82t79 -217q0 -111 -45.5 -208.5t-134.5 -160.5t-203 -63q-136 0 -215.5 81.5t-79.5 215.5zM260 991q0 -102 54.5 -163.5t148.5 -61.5q119 0 202 107t83 249q0 102 -55.5 164t-149.5 62q-120 0 -201.5 -107 t-81.5 -250z" />
<glyph unicode="&#xbb;" horiz-adv-x="1019" d="M41 98l348 426l-205 410h80l234 -420l-373 -416h-84zM442 98l351 426l-207 410h82l231 -420l-373 -416h-84z" />
<glyph unicode="&#xbc;" horiz-adv-x="1540" d="M152 705l12 73h227l88 527l-246 -127l15 79l280 152h56l-105 -631h213l-12 -73h-528zM311 -25q57 87 965 1459h80l-965 -1459h-80zM827 205l7 43l258 457h88l-252 -431h237l43 226h80l-39 -226h187l-15 -69h-182l-22 -135h108l-10 -70h-316l11 70h123l22 135h-328z" />
<glyph unicode="&#xbd;" horiz-adv-x="1540" d="M152 705l12 73h227l88 527l-246 -127l15 79l280 152h56l-105 -631h213l-12 -73h-528zM311 -25q57 87 965 1459h80l-965 -1459h-80zM805 0q25 136 91 217t185 121l90 31q95 32 139 65t44 94q0 50 -41.5 84.5t-114.5 34.5q-84 0 -143.5 -42.5t-77.5 -129.5h-82 q24 121 106 181.5t201 60.5q104 0 170 -50t66 -130q0 -49 -16 -85.5t-50 -62.5t-69 -42.5t-89 -35.5l-90 -30q-176 -59 -206 -207h385l22 127h78l-37 -201h-561z" />
<glyph unicode="&#xbe;" horiz-adv-x="1540" d="M160 905h80q-11 -72 36.5 -108.5t131.5 -36.5q96 0 155.5 45.5t59.5 128.5q0 58 -43.5 91.5t-120.5 33.5h-49l8 51l233 227h-317l-19 -129h-77l30 201h500l-8 -51l-244 -238q90 -11 143.5 -60t53.5 -122q0 -117 -86 -182.5t-224 -65.5q-129 0 -195.5 53.5t-47.5 161.5z M303 -25q57 87 965 1459h80l-965 -1459h-80zM827 205l7 43l258 457h88l-252 -431h237l43 226h80l-39 -226h187l-15 -69h-182l-22 -135h108l-10 -70h-316l11 70h123l22 135h-328z" />
<glyph unicode="&#xbf;" horiz-adv-x="958" d="M-27 -127q0 73 23.5 133t61.5 102t84.5 78.5t95 72t90.5 73.5t74 91.5t42 117.5l9 57h98l-10 -57q-12 -75 -44 -136.5t-73.5 -102.5t-89.5 -77.5t-93.5 -70t-82.5 -70t-59.5 -88.5t-22.5 -115q0 -98 72.5 -161.5t183.5 -63.5q144 0 238.5 80.5t123.5 234.5h94 q-28 -185 -151 -293t-313 -108q-152 0 -251.5 83t-99.5 220zM481 803l31 196h113l-31 -196h-113z" />
<glyph unicode="&#xc0;" horiz-adv-x="1544" d="M-57 0l12 88h178l678 1233h-221l12 88h379l279 -1321h186l-12 -88h-486l13 88h192l-76 377h-635l-206 -377h190l-12 -88h-471zM489 553h570l-154 754h-2zM698 1909h107l164 -336h-66z" />
<glyph unicode="&#xc1;" horiz-adv-x="1544" d="M-57 0l12 88h178l678 1233h-221l12 88h379l279 -1321h186l-12 -88h-486l13 88h192l-76 377h-635l-206 -377h190l-12 -88h-471zM489 553h570l-154 754h-2zM897 1573l279 336h114l-321 -336h-72z" />
<glyph unicode="&#xc2;" horiz-adv-x="1544" d="M-57 0l12 88h178l678 1233h-221l12 88h379l279 -1321h186l-12 -88h-486l13 88h192l-76 377h-635l-206 -377h190l-12 -88h-471zM489 553h570l-154 754h-2zM623 1573l321 336h90l203 -336h-92l-164 272l-258 -272h-100z" />
<glyph unicode="&#xc3;" horiz-adv-x="1544" d="M-57 0l12 88h178l678 1233h-221l12 88h379l279 -1321h186l-12 -88h-486l13 88h192l-76 377h-635l-206 -377h190l-12 -88h-471zM489 553h570l-154 754h-2zM635 1573q19 80 67 132t121 52q45 0 93.5 -28t93 -56t77.5 -28q46 0 74.5 33t42.5 83h62q-19 -78 -68 -131 t-121 -53q-46 0 -95 27.5t-92.5 55.5t-76.5 28q-84 0 -119 -115h-59z" />
<glyph unicode="&#xc4;" horiz-adv-x="1544" d="M-57 0l12 88h178l678 1233h-221l12 88h379l279 -1321h186l-12 -88h-486l13 88h192l-76 377h-635l-206 -377h190l-12 -88h-471zM489 553h570l-154 754h-2zM684 1573l31 180h98l-33 -180h-96zM1079 1573l33 180h98l-32 -180h-99z" />
<glyph unicode="&#xc5;" horiz-adv-x="1544" d="M-57 0l12 88h178l678 1233h-221l12 88h379l279 -1321h186l-12 -88h-486l13 88h192l-76 377h-635l-206 -377h190l-12 -88h-471zM489 553h570l-154 754h-2zM774 1722q0 96 64.5 155.5t150.5 59.5q68 0 116 -42.5t48 -110.5q0 -95 -64.5 -155t-148.5 -60q-71 0 -118.5 42 t-47.5 111zM834 1726q0 -48 30.5 -77t77.5 -29q62 0 107 45.5t45 114.5q0 48 -31 76t-78 28q-62 0 -106.5 -44.5t-44.5 -113.5z" />
<glyph unicode="&#xc6;" horiz-adv-x="2228" d="M-98 0l12 88h178l1112 1233h-213l15 88h1230l-65 -381h-90l49 293h-725l-94 -559h610l-12 -88h-613l-98 -586h737l52 293h92l-64 -381h-1134l12 88h203l63 373h-610l-338 -373h190l-14 -88h-485zM629 549h545l124 737z" />
<glyph unicode="&#xc7;" horiz-adv-x="1388" d="M102 559q0 192 68 357t182.5 276.5t266 174.5t317.5 63q126 0 243.5 -30.5t196.5 -92.5l-45 -279h-92l37 232q-147 75 -346 75q-145 0 -276.5 -55.5t-230 -153.5t-156.5 -243.5t-58 -315.5q0 -227 136 -360t368 -133q252 0 469 123l-19 -103q-183 -110 -454 -114l-31 -70 q80 -3 122 -41t42 -96q0 -86 -64 -146.5t-180 -60.5h-102l12 63h96q75 0 115.5 40t40.5 95q0 41 -31 65t-92 24h-43l74 127q-257 9 -411.5 164.5t-154.5 414.5z" />
<glyph unicode="&#xc8;" horiz-adv-x="1314" d="M-33 0l15 88h200l207 1233h-196l12 88h1118l-63 -381h-95l49 293h-722l-95 -559h611l-13 -88h-612l-98 -586h737l51 293h92l-65 -381h-1133zM608 1909h107l164 -336h-66z" />
<glyph unicode="&#xc9;" horiz-adv-x="1314" d="M-33 0l15 88h200l207 1233h-196l12 88h1118l-63 -381h-95l49 293h-722l-95 -559h611l-13 -88h-612l-98 -586h737l51 293h92l-65 -381h-1133zM807 1573l278 336h115l-321 -336h-72z" />
<glyph unicode="&#xca;" horiz-adv-x="1314" d="M-33 0l15 88h200l207 1233h-196l12 88h1118l-63 -381h-95l49 293h-722l-95 -559h611l-13 -88h-612l-98 -586h737l51 293h92l-65 -381h-1133zM532 1573l322 336h90l203 -336h-92l-164 272l-258 -272h-101z" />
<glyph unicode="&#xcb;" horiz-adv-x="1314" d="M-33 0l15 88h200l207 1233h-196l12 88h1118l-63 -381h-95l49 293h-722l-95 -559h611l-13 -88h-612l-98 -586h737l51 293h92l-65 -381h-1133zM594 1573l31 180h98l-33 -180h-96zM989 1573l33 180h98l-33 -180h-98z" />
<glyph unicode="&#xcc;" horiz-adv-x="618" d="M-33 0l15 88h200l207 1233h-196l12 88h504l-15 -88h-202l-207 -1233h198l-14 -88h-502zM248 1909h106l164 -336h-65z" />
<glyph unicode="&#xcd;" horiz-adv-x="618" d="M-33 0l15 88h200l207 1233h-196l12 88h504l-15 -88h-202l-207 -1233h198l-14 -88h-502zM446 1573l279 336h115l-322 -336h-72z" />
<glyph unicode="&#xce;" horiz-adv-x="618" d="M-33 0l15 88h200l207 1233h-196l12 88h504l-15 -88h-202l-207 -1233h198l-14 -88h-502zM172 1573l322 336h90l202 -336h-92l-164 272l-258 -272h-100z" />
<glyph unicode="&#xcf;" horiz-adv-x="618" d="M-33 0l15 88h200l207 1233h-196l12 88h504l-15 -88h-202l-207 -1233h198l-14 -88h-502zM233 1573l31 180h98l-32 -180h-97zM629 1573l33 180h98l-33 -180h-98z" />
<glyph unicode="&#xd0;" horiz-adv-x="1458" d="M-33 0l15 88h200l97 578h-183l13 84h184l96 571h-196l12 88h565q157 0 280.5 -43.5t202 -121.5t119.5 -184t41 -233q0 -180 -61 -332.5t-172.5 -262t-276.5 -171t-366 -61.5h-570zM285 88h260q175 0 319 55t240.5 152.5t149.5 233t53 294.5q0 108 -32 197.5t-97 157.5 t-171 105.5t-245 37.5h-270l-97 -571h336l-12 -84h-338z" />
<glyph unicode="&#xd1;" horiz-adv-x="1581" d="M-33 0l15 88h200l207 1233h-196l12 88h293l667 -1241l193 1153h-199l15 88h501l-14 -88h-203l-221 -1321h-92l-668 1241l-192 -1153h198l-14 -88h-502zM659 1573q19 80 67 132t122 52q45 0 93.5 -28t92.5 -56t78 -28q46 0 74.5 33t42.5 83h61q-19 -78 -67.5 -131 t-120.5 -53q-46 0 -95 27.5t-92.5 55.5t-76.5 28q-84 0 -119 -115h-60z" />
<glyph unicode="&#xd2;" horiz-adv-x="1495" d="M102 561q0 239 103 438.5t283.5 315t398.5 115.5q251 0 407 -164t156 -418q0 -179 -61.5 -340t-166.5 -276.5t-251 -183.5t-309 -68q-252 0 -406 163t-154 418zM205 565q0 -222 127 -358.5t342 -136.5q139 0 263.5 61t214 165t142 247t52.5 301q0 222 -129 358.5 t-345 136.5q-184 0 -337.5 -103.5t-241.5 -281.5t-88 -389zM674 1909h106l164 -336h-65z" />
<glyph unicode="&#xd3;" horiz-adv-x="1495" d="M102 561q0 239 103 438.5t283.5 315t398.5 115.5q251 0 407 -164t156 -418q0 -179 -61.5 -340t-166.5 -276.5t-251 -183.5t-309 -68q-252 0 -406 163t-154 418zM205 565q0 -222 127 -358.5t342 -136.5q139 0 263.5 61t214 165t142 247t52.5 301q0 222 -129 358.5 t-345 136.5q-184 0 -337.5 -103.5t-241.5 -281.5t-88 -389zM872 1573l279 336h115l-322 -336h-72z" />
<glyph unicode="&#xd4;" horiz-adv-x="1495" d="M102 561q0 239 103 438.5t283.5 315t398.5 115.5q251 0 407 -164t156 -418q0 -179 -61.5 -340t-166.5 -276.5t-251 -183.5t-309 -68q-252 0 -406 163t-154 418zM205 565q0 -222 127 -358.5t342 -136.5q139 0 263.5 61t214 165t142 247t52.5 301q0 222 -129 358.5 t-345 136.5q-184 0 -337.5 -103.5t-241.5 -281.5t-88 -389zM598 1573l322 336h90l202 -336h-92l-164 272l-258 -272h-100z" />
<glyph unicode="&#xd5;" horiz-adv-x="1495" d="M102 561q0 239 103 438.5t283.5 315t398.5 115.5q251 0 407 -164t156 -418q0 -179 -61.5 -340t-166.5 -276.5t-251 -183.5t-309 -68q-252 0 -406 163t-154 418zM205 565q0 -222 127 -358.5t342 -136.5q139 0 263.5 61t214 165t142 247t52.5 301q0 222 -129 358.5 t-345 136.5q-184 0 -337.5 -103.5t-241.5 -281.5t-88 -389zM610 1573q19 80 67 132t122 52q45 0 93.5 -28t92.5 -56t78 -28q46 0 74.5 33t42.5 83h61q-19 -78 -67.5 -131t-120.5 -53q-37 0 -76 17.5t-67.5 38t-62 38t-59.5 17.5q-83 0 -118 -115h-60z" />
<glyph unicode="&#xd6;" horiz-adv-x="1495" d="M102 561q0 239 103 438.5t283.5 315t398.5 115.5q251 0 407 -164t156 -418q0 -179 -61.5 -340t-166.5 -276.5t-251 -183.5t-309 -68q-252 0 -406 163t-154 418zM205 565q0 -222 127 -358.5t342 -136.5q139 0 263.5 61t214 165t142 247t52.5 301q0 222 -129 358.5 t-345 136.5q-184 0 -337.5 -103.5t-241.5 -281.5t-88 -389zM659 1573l31 180h98l-32 -180h-97zM1055 1573l32 180h99l-33 -180h-98z" />
<glyph unicode="&#xd7;" d="M115 176l405 350l-280 344l67 58l281 -344l401 346l55 -62l-403 -348l283 -346l-68 -57l-283 344l-403 -346z" />
<glyph unicode="&#xd8;" horiz-adv-x="1495" d="M14 -25l205 209q-117 154 -117 377q0 239 103 438.5t283.5 315t398.5 115.5q243 0 401 -158l160 162h96l-211 -215q117 -155 117 -371q0 -179 -61.5 -340t-166.5 -276.5t-251 -183.5t-309 -68q-245 0 -398 153l-155 -158h-95zM205 565q0 -185 86 -309l928 944 q-130 139 -347 139q-184 0 -337.5 -103.5t-241.5 -281.5t-88 -389zM334 205q126 -135 340 -135q139 0 263.5 61t214 165t142 247t52.5 301q0 173 -84 303z" />
<glyph unicode="&#xd9;" horiz-adv-x="1540" d="M180 1321l13 88h481l-12 -88h-191l-131 -768q-41 -235 51 -357t297 -122t339 122t173 357l131 768h-184l14 88h481l-12 -88h-196l-131 -768q-51 -290 -215 -431.5t-408 -141.5q-120 0 -211 33t-153 103t-81.5 178.5t3.5 258.5l131 768h-189zM715 1909h106l164 -336h-65z " />
<glyph unicode="&#xda;" horiz-adv-x="1540" d="M180 1321l13 88h481l-12 -88h-191l-131 -768q-41 -235 51 -357t297 -122t339 122t173 357l131 768h-184l14 88h481l-12 -88h-196l-131 -768q-51 -290 -215 -431.5t-408 -141.5q-120 0 -211 33t-153 103t-81.5 178.5t3.5 258.5l131 768h-189zM913 1573l279 336h115 l-322 -336h-72z" />
<glyph unicode="&#xdb;" horiz-adv-x="1540" d="M180 1321l13 88h481l-12 -88h-191l-131 -768q-41 -235 51 -357t297 -122t339 122t173 357l131 768h-184l14 88h481l-12 -88h-196l-131 -768q-51 -290 -215 -431.5t-408 -141.5q-120 0 -211 33t-153 103t-81.5 178.5t3.5 258.5l131 768h-189zM639 1573l322 336h90 l202 -336h-92l-164 272l-258 -272h-100z" />
<glyph unicode="&#xdc;" horiz-adv-x="1540" d="M180 1321l13 88h481l-12 -88h-191l-131 -768q-41 -235 51 -357t297 -122t339 122t173 357l131 768h-184l14 88h481l-12 -88h-196l-131 -768q-51 -290 -215 -431.5t-408 -141.5q-120 0 -211 33t-153 103t-81.5 178.5t3.5 258.5l131 768h-189zM700 1573l31 180h98l-32 -180 h-97zM1096 1573l32 180h99l-33 -180h-98z" />
<glyph unicode="&#xdd;" horiz-adv-x="1441" d="M172 1321l12 88h465l-12 -88h-191l295 -649h4l519 649h-189l12 88h474l-13 -88h-168l-604 -750l-82 -483h256l-14 -88h-612l14 88h254l84 487l-338 746h-166zM856 1573l279 336h114l-321 -336h-72z" />
<glyph unicode="&#xde;" horiz-adv-x="1323" d="M-33 0l15 88h200l207 1233h-196l16 88h502l-13 -88h-206l-31 -182h411q190 0 294 -95t104 -253q0 -225 -147.5 -368.5t-389.5 -143.5h-416l-32 -191h200l-12 -88h-506zM332 367h413q192 0 307 118t115 297q0 123 -77.5 196t-225.5 73h-418z" />
<glyph unicode="&#xdf;" horiz-adv-x="1114" d="M25 -451l231 1371h-178l14 79h178l9 45q41 242 164.5 359t306.5 117q145 0 224 -67.5t79 -170.5q0 -56 -16.5 -104t-43 -82.5t-58 -65t-63.5 -57t-58.5 -52.5t-43 -58.5t-16.5 -67.5q0 -39 28 -76t67.5 -70t79 -70.5t67.5 -93t28 -120.5q0 -77 -24 -139t-64.5 -103.5 t-95.5 -69.5t-114.5 -40.5t-123.5 -12.5h-160l13 82h151q60 0 114.5 15t102 46t75.5 86t28 127q0 56 -27.5 102.5t-67 79t-78.5 65t-66.5 77t-27.5 98.5q0 65 31.5 119t76 92t89 76.5t76 90.5t31.5 114q0 76 -56 122t-166 46q-295 0 -364 -394l-254 -1495h-98z" />
<glyph unicode="&#xe0;" horiz-adv-x="1175" d="M61 399q0 130 40.5 246t109.5 198t164 129.5t200 47.5q129 0 221 -66.5t122 -173.5h4l36 219h97l-142 -825q-10 -55 11.5 -80.5t66.5 -25.5q49 0 99 24l-13 -78q-54 -26 -110 -26q-75 0 -117 40.5t-33 121.5l4 28h-4q-63 -93 -159.5 -145.5t-206.5 -52.5 q-180 0 -285 115.5t-105 303.5zM164 408q0 -155 80.5 -248.5t218.5 -93.5q119 0 214.5 76.5t145 196t49.5 253.5q0 156 -78 249t-216 93q-120 0 -216 -75.5t-147 -195t-51 -255.5zM383 1499h106l164 -336h-65z" />
<glyph unicode="&#xe1;" horiz-adv-x="1175" d="M61 399q0 130 40.5 246t109.5 198t164 129.5t200 47.5q129 0 221 -66.5t122 -173.5h4l36 219h97l-142 -825q-10 -55 11.5 -80.5t66.5 -25.5q49 0 99 24l-13 -78q-54 -26 -110 -26q-75 0 -117 40.5t-33 121.5l4 28h-4q-63 -93 -159.5 -145.5t-206.5 -52.5 q-180 0 -285 115.5t-105 303.5zM164 408q0 -155 80.5 -248.5t218.5 -93.5q119 0 214.5 76.5t145 196t49.5 253.5q0 156 -78 249t-216 93q-120 0 -216 -75.5t-147 -195t-51 -255.5zM582 1163l278 336h115l-322 -336h-71z" />
<glyph unicode="&#xe2;" horiz-adv-x="1175" d="M61 399q0 130 40.5 246t109.5 198t164 129.5t200 47.5q129 0 221 -66.5t122 -173.5h4l36 219h97l-142 -825q-10 -55 11.5 -80.5t66.5 -25.5q49 0 99 24l-13 -78q-54 -26 -110 -26q-75 0 -117 40.5t-33 121.5l4 28h-4q-63 -93 -159.5 -145.5t-206.5 -52.5 q-180 0 -285 115.5t-105 303.5zM164 408q0 -155 80.5 -248.5t218.5 -93.5q119 0 214.5 76.5t145 196t49.5 253.5q0 156 -78 249t-216 93q-120 0 -216 -75.5t-147 -195t-51 -255.5zM307 1163l322 336h90l203 -336h-93l-163 273l-258 -273h-101z" />
<glyph unicode="&#xe3;" horiz-adv-x="1175" d="M61 399q0 130 40.5 246t109.5 198t164 129.5t200 47.5q129 0 221 -66.5t122 -173.5h4l36 219h97l-142 -825q-10 -55 11.5 -80.5t66.5 -25.5q49 0 99 24l-13 -78q-54 -26 -110 -26q-75 0 -117 40.5t-33 121.5l4 28h-4q-63 -93 -159.5 -145.5t-206.5 -52.5 q-180 0 -285 115.5t-105 303.5zM164 408q0 -155 80.5 -248.5t218.5 -93.5q119 0 214.5 76.5t145 196t49.5 253.5q0 156 -78 249t-216 93q-120 0 -216 -75.5t-147 -195t-51 -255.5zM338 1237q21 81 68 132.5t120 51.5q37 0 76 -17.5t67 -38.5t61.5 -38.5t60.5 -17.5 q85 0 116 116h62q-19 -78 -67 -131t-120 -53q-37 0 -76.5 17.5t-67 39t-61 39t-59.5 17.5q-83 0 -119 -117h-61z" />
<glyph unicode="&#xe4;" horiz-adv-x="1175" d="M61 399q0 130 40.5 246t109.5 198t164 129.5t200 47.5q129 0 221 -66.5t122 -173.5h4l36 219h97l-142 -825q-10 -55 11.5 -80.5t66.5 -25.5q49 0 99 24l-13 -78q-54 -26 -110 -26q-75 0 -117 40.5t-33 121.5l4 28h-4q-63 -93 -159.5 -145.5t-206.5 -52.5 q-180 0 -285 115.5t-105 303.5zM164 408q0 -155 80.5 -248.5t218.5 -93.5q119 0 214.5 76.5t145 196t49.5 253.5q0 156 -78 249t-216 93q-120 0 -216 -75.5t-147 -195t-51 -255.5zM385 1241l33 180h98l-33 -180h-98zM784 1241l31 180h98l-30 -180h-99z" />
<glyph unicode="&#xe5;" horiz-adv-x="1175" d="M61 399q0 130 40.5 246t109.5 198t164 129.5t200 47.5q129 0 221 -66.5t122 -173.5h4l36 219h97l-142 -825q-10 -55 11.5 -80.5t66.5 -25.5q49 0 99 24l-13 -78q-54 -26 -110 -26q-75 0 -117 40.5t-33 121.5l4 28h-4q-63 -93 -159.5 -145.5t-206.5 -52.5 q-180 0 -285 115.5t-105 303.5zM164 408q0 -155 80.5 -248.5t218.5 -93.5q119 0 214.5 76.5t145 196t49.5 253.5q0 156 -78 249t-216 93q-120 0 -216 -75.5t-147 -195t-51 -255.5zM459 1313q0 96 64.5 155.5t150.5 59.5q68 0 116 -42.5t48 -111.5q0 -95 -64.5 -155 t-148.5 -60q-71 0 -118.5 42.5t-47.5 111.5zM518 1317q0 -48 31 -77.5t78 -29.5q62 0 106.5 45.5t44.5 114.5q0 48 -30.5 76.5t-77.5 28.5q-62 0 -107 -44.5t-45 -113.5z" />
<glyph unicode="&#xe6;" horiz-adv-x="1703" d="M53 233q0 266 346 312l240 30q103 13 135.5 45.5t32.5 112.5q0 205 -246 205q-127 0 -264 -53l-35 -209h-90l45 258q176 86 356 86q133 0 218 -51.5t104 -159.5q72 100 174 155.5t223 55.5q153 0 246.5 -99.5t93.5 -273.5q0 -55 -8 -102l-6 -43h-746q-8 -49 -8 -117 q0 -152 86.5 -235.5t237.5 -83.5q188 0 352 94l-18 -94q-147 -86 -344 -86q-152 0 -253.5 66.5t-136.5 195.5q-70 -131 -186.5 -196.5t-257.5 -65.5q-134 0 -212.5 71t-78.5 182zM152 242q0 -80 54.5 -130.5t151.5 -50.5q98 0 179.5 39t142 125.5t82.5 212.5l20 121 q-35 -42 -131 -53l-239 -29q-125 -15 -192.5 -74t-67.5 -161zM889 578h643q4 46 4 65q0 142 -68 216.5t-186 74.5q-135 0 -242.5 -97t-150.5 -259z" />
<glyph unicode="&#xe7;" horiz-adv-x="974" d="M61 385q0 148 46.5 269.5t126.5 200.5t185 122t224 43q179 0 297 -82l-47 -262h-88l35 213q-98 45 -207 45q-94 0 -178.5 -36t-149.5 -102.5t-103 -170t-38 -228.5q0 -157 86 -244t235 -87q156 0 320 86l-14 -89q-134 -80 -302 -83l-30 -70q80 -3 122 -41t42 -96 q0 -86 -64 -146.5t-180 -60.5h-103l13 63h96q75 0 115.5 40t40.5 95q0 41 -31 65t-92 24h-43l74 129q-179 8 -283.5 112t-104.5 291z" />
<glyph unicode="&#xe8;" horiz-adv-x="1019" d="M61 377q0 186 71.5 333.5t193.5 228.5t272 81q179 0 276.5 -128t65.5 -347l-8 -43h-760q-8 -49 -8 -117q0 -152 88.5 -235.5t243.5 -83.5q194 0 358 94l-18 -94q-147 -86 -351 -86q-193 0 -308.5 102.5t-115.5 294.5zM188 578h658q18 172 -52.5 264t-205.5 92 q-137 0 -246.5 -97t-153.5 -259zM379 1499h106l164 -336h-65z" />
<glyph unicode="&#xe9;" horiz-adv-x="1019" d="M61 377q0 186 71.5 333.5t193.5 228.5t272 81q179 0 276.5 -128t65.5 -347l-8 -43h-760q-8 -49 -8 -117q0 -152 88.5 -235.5t243.5 -83.5q194 0 358 94l-18 -94q-147 -86 -351 -86q-193 0 -308.5 102.5t-115.5 294.5zM188 578h658q18 172 -52.5 264t-205.5 92 q-137 0 -246.5 -97t-153.5 -259zM578 1163l278 336h115l-322 -336h-71z" />
<glyph unicode="&#xea;" horiz-adv-x="1019" d="M61 377q0 186 71.5 333.5t193.5 228.5t272 81q179 0 276.5 -128t65.5 -347l-8 -43h-760q-8 -49 -8 -117q0 -152 88.5 -235.5t243.5 -83.5q194 0 358 94l-18 -94q-147 -86 -351 -86q-193 0 -308.5 102.5t-115.5 294.5zM188 578h658q18 172 -52.5 264t-205.5 92 q-137 0 -246.5 -97t-153.5 -259zM303 1163l322 336h90l203 -336h-93l-163 273l-259 -273h-100z" />
<glyph unicode="&#xeb;" horiz-adv-x="1019" d="M61 377q0 186 71.5 333.5t193.5 228.5t272 81q179 0 276.5 -128t65.5 -347l-8 -43h-760q-8 -49 -8 -117q0 -152 88.5 -235.5t243.5 -83.5q194 0 358 94l-18 -94q-147 -86 -351 -86q-193 0 -308.5 102.5t-115.5 294.5zM188 578h658q18 172 -52.5 264t-205.5 92 q-137 0 -246.5 -97t-153.5 -259zM381 1241l33 180h98l-33 -180h-98zM780 1241l31 180h98l-30 -180h-99z" />
<glyph unicode="&#xec;" horiz-adv-x="499" d="M78 920l14 79h279l-142 -829q-20 -102 78 -102q49 0 99 24l-15 -78q-46 -26 -112 -26q-83 0 -124 45t-24 137l127 750h-180zM121 1499h106l164 -336h-65z" />
<glyph unicode="&#xed;" horiz-adv-x="499" d="M78 920l14 79h279l-142 -829q-20 -102 78 -102q49 0 99 24l-15 -78q-46 -26 -112 -26q-83 0 -124 45t-24 137l127 750h-180zM319 1163l279 336h115l-322 -336h-72z" />
<glyph unicode="&#xee;" horiz-adv-x="499" d="M45 1163l322 336h90l202 -336h-92l-164 273l-258 -273h-100zM78 920l14 79h279l-142 -829q-20 -102 78 -102q49 0 99 24l-15 -78q-46 -26 -112 -26q-83 0 -124 45t-24 137l127 750h-180z" />
<glyph unicode="&#xef;" horiz-adv-x="499" d="M78 920l14 79h279l-142 -829q-20 -102 78 -102q49 0 99 24l-15 -78q-46 -26 -112 -26q-83 0 -124 45t-24 137l127 750h-180zM123 1241l33 180h98l-33 -180h-98zM522 1241l31 180h98l-30 -180h-99z" />
<glyph unicode="&#xf0;" horiz-adv-x="1122" d="M61 373q0 112 41 217.5t111.5 186t172.5 129t218 48.5q107 0 198 -51t128 -143h2q15 335 -184 516l-236 -158l-37 56l217 145q-99 71 -268 131l35 74q186 -59 313 -152l203 137l37 -57l-187 -125q207 -189 207 -526q0 -181 -45 -367q-48 -205 -192.5 -329.5 t-345.5 -124.5q-177 0 -282.5 110t-105.5 283zM164 377q0 -140 81 -225.5t218 -85.5q150 0 266 105t154 259q16 66 16 125q3 136 -80 224t-219 89q-144 1 -255.5 -93t-156.5 -238q-24 -77 -24 -160z" />
<glyph unicode="&#xf1;" horiz-adv-x="1187" d="M78 920l14 79h275l-31 -180h4q61 100 156 150.5t209 50.5q164 0 249.5 -102t51.5 -300l-76 -444q-10 -52 11 -79t67 -27q48 0 98 24l-14 -78q-46 -26 -111 -26q-83 0 -125 47t-25 139l76 444q28 159 -32.5 237.5t-194.5 78.5q-139 0 -248.5 -113.5t-142.5 -308.5 l-88 -512h-99l154 920h-178zM401 1237q21 81 68.5 132.5t120.5 51.5q37 0 76 -17.5t66.5 -38.5t61 -38.5t60.5 -17.5q46 0 74.5 33t42.5 83h61q-19 -78 -67 -131t-119 -53q-37 0 -76.5 17.5t-67 39t-61 39t-59.5 17.5q-83 0 -119 -117h-62z" />
<glyph unicode="&#xf2;" horiz-adv-x="1073" d="M61 401q0 64 17 144q19 94 62.5 178.5t107.5 151t154.5 106t193.5 39.5q184 0 291.5 -116.5t107.5 -305.5q0 -68 -16 -143q-19 -95 -62.5 -179.5t-107.5 -151t-154.5 -105.5t-193.5 -39q-184 0 -292 116.5t-108 304.5zM164 406q0 -153 82.5 -246.5t222.5 -93.5 q148 0 260.5 111.5t147.5 277.5q16 72 16 139q0 153 -82.5 246.5t-222.5 93.5q-148 0 -260.5 -111.5t-147.5 -277.5q-16 -72 -16 -139zM389 1499h107l163 -336h-65z" />
<glyph unicode="&#xf3;" horiz-adv-x="1073" d="M61 401q0 64 17 144q19 94 62.5 178.5t107.5 151t154.5 106t193.5 39.5q184 0 291.5 -116.5t107.5 -305.5q0 -68 -16 -143q-19 -95 -62.5 -179.5t-107.5 -151t-154.5 -105.5t-193.5 -39q-184 0 -292 116.5t-108 304.5zM164 406q0 -153 82.5 -246.5t222.5 -93.5 q148 0 260.5 111.5t147.5 277.5q16 72 16 139q0 153 -82.5 246.5t-222.5 93.5q-148 0 -260.5 -111.5t-147.5 -277.5q-16 -72 -16 -139zM588 1163l278 336h115l-322 -336h-71z" />
<glyph unicode="&#xf4;" horiz-adv-x="1073" d="M61 401q0 64 17 144q19 94 62.5 178.5t107.5 151t154.5 106t193.5 39.5q184 0 291.5 -116.5t107.5 -305.5q0 -68 -16 -143q-19 -95 -62.5 -179.5t-107.5 -151t-154.5 -105.5t-193.5 -39q-184 0 -292 116.5t-108 304.5zM164 406q0 -153 82.5 -246.5t222.5 -93.5 q148 0 260.5 111.5t147.5 277.5q16 72 16 139q0 153 -82.5 246.5t-222.5 93.5q-148 0 -260.5 -111.5t-147.5 -277.5q-16 -72 -16 -139zM313 1163l322 336h90l203 -336h-92l-164 273l-258 -273h-101z" />
<glyph unicode="&#xf5;" horiz-adv-x="1073" d="M61 401q0 64 17 144q19 94 62.5 178.5t107.5 151t154.5 106t193.5 39.5q184 0 291.5 -116.5t107.5 -305.5q0 -68 -16 -143q-19 -95 -62.5 -179.5t-107.5 -151t-154.5 -105.5t-193.5 -39q-184 0 -292 116.5t-108 304.5zM164 406q0 -153 82.5 -246.5t222.5 -93.5 q148 0 260.5 111.5t147.5 277.5q16 72 16 139q0 153 -82.5 246.5t-222.5 93.5q-148 0 -260.5 -111.5t-147.5 -277.5q-16 -72 -16 -139zM344 1237q21 81 68 132.5t120 51.5q37 0 76 -17.5t67 -38.5t61.5 -38.5t60.5 -17.5q85 0 116 116h62q-19 -78 -67 -131t-120 -53 q-37 0 -76.5 17.5t-67 39t-61 39t-59.5 17.5q-82 0 -118 -117h-62z" />
<glyph unicode="&#xf6;" horiz-adv-x="1073" d="M61 401q0 64 17 144q19 94 62.5 178.5t107.5 151t154.5 106t193.5 39.5q184 0 291.5 -116.5t107.5 -305.5q0 -68 -16 -143q-19 -95 -62.5 -179.5t-107.5 -151t-154.5 -105.5t-193.5 -39q-184 0 -292 116.5t-108 304.5zM164 406q0 -153 82.5 -246.5t222.5 -93.5 q148 0 260.5 111.5t147.5 277.5q16 72 16 139q0 153 -82.5 246.5t-222.5 93.5q-148 0 -260.5 -111.5t-147.5 -277.5q-16 -72 -16 -139zM391 1241l33 180h98l-33 -180h-98zM791 1241l30 180h99l-31 -180h-98z" />
<glyph unicode="&#xf7;" d="M113 477l12 84h917l-12 -84h-917zM449 61l32 197h105l-33 -197h-104zM569 778l33 197h107l-33 -197h-107z" />
<glyph unicode="&#xf8;" horiz-adv-x="1073" d="M-16 -25l153 160q-76 109 -76 266q0 64 17 144q20 94 63.5 178t107.5 151t154 106.5t193 39.5q177 0 285 -111l112 115h82l-155 -162q75 -110 75 -264q0 -68 -16 -143q-19 -95 -62.5 -179.5t-107.5 -151t-154.5 -105.5t-193.5 -39q-180 0 -285 108l-108 -113h-84z M164 406q0 -113 45 -195l604 627q-83 96 -225 96q-148 0 -260 -111t-148 -278q-16 -72 -16 -139zM244 160q84 -94 225 -94q148 0 260 111t148 278q16 72 16 139q0 110 -45 192z" />
<glyph unicode="&#xf9;" horiz-adv-x="1179" d="M70 920l14 79h276l-108 -614q-28 -160 32.5 -239.5t194.5 -79.5q139 0 248 113t143 308l74 433h-178l12 79h279l-139 -825q-9 -56 10 -81t67 -25q45 0 95 24l-15 -78q-46 -26 -104 -26q-77 0 -118 40t-34 122l4 30h-4q-61 -100 -155.5 -150t-206.5 -50q-166 0 -251 102 t-50 305l92 533h-178zM428 1499h107l163 -336h-65z" />
<glyph unicode="&#xfa;" horiz-adv-x="1179" d="M70 920l14 79h276l-108 -614q-28 -160 32.5 -239.5t194.5 -79.5q139 0 248 113t143 308l74 433h-178l12 79h279l-139 -825q-9 -56 10 -81t67 -25q45 0 95 24l-15 -78q-46 -26 -104 -26q-77 0 -118 40t-34 122l4 30h-4q-61 -100 -155.5 -150t-206.5 -50q-166 0 -251 102 t-50 305l92 533h-178zM627 1163l278 336h115l-322 -336h-71z" />
<glyph unicode="&#xfb;" horiz-adv-x="1179" d="M70 920l14 79h276l-108 -614q-28 -160 32.5 -239.5t194.5 -79.5q139 0 248 113t143 308l74 433h-178l12 79h279l-139 -825q-9 -56 10 -81t67 -25q45 0 95 24l-15 -78q-46 -26 -104 -26q-77 0 -118 40t-34 122l4 30h-4q-61 -100 -155.5 -150t-206.5 -50q-166 0 -251 102 t-50 305l92 533h-178zM352 1163l322 336h90l203 -336h-93l-163 273l-258 -273h-101z" />
<glyph unicode="&#xfc;" horiz-adv-x="1179" d="M70 920l14 79h276l-108 -614q-28 -160 32.5 -239.5t194.5 -79.5q139 0 248 113t143 308l74 433h-178l12 79h279l-139 -825q-9 -56 10 -81t67 -25q45 0 95 24l-15 -78q-46 -26 -104 -26q-77 0 -118 40t-34 122l4 30h-4q-61 -100 -155.5 -150t-206.5 -50q-166 0 -251 102 t-50 305l92 533h-178zM430 1241l33 180h98l-33 -180h-98zM829 1241l31 180h98l-30 -180h-99z" />
<glyph unicode="&#xfd;" d="M53 -381l15 90q122 -90 305 -90q164 0 270.5 87t144.5 290l35 184h-4q-61 -100 -155.5 -150t-206.5 -50q-80 0 -142 24t-104.5 73.5t-56.5 126t2 181.5l92 535h-178l14 79h276l-108 -614q-28 -160 32.5 -239.5t194.5 -79.5q139 0 248 113t143 308l74 433h-178l14 79h277 l-170 -1003q-78 -461 -514 -461q-219 0 -320 84zM623 1163l278 336h115l-322 -336h-71z" />
<glyph unicode="&#xfe;" d="M14 -455l322 1874h-180l14 80h276l-55 -325q-45 -265 -65 -353h2q64 92 160.5 145.5t207.5 53.5q177 0 283 -116t106 -302q0 -175 -68.5 -318t-186 -223.5t-257.5 -80.5q-134 0 -226 65.5t-120 173.5h-2l-116 -674h-95zM274 408q0 -156 78.5 -249t216.5 -93 q120 0 216 75.5t147 195t51 255.5q0 155 -80.5 248.5t-218.5 93.5q-120 0 -215 -75t-145 -194.5t-50 -256.5z" />
<glyph unicode="&#xff;" d="M53 -381l15 90q122 -90 305 -90q164 0 270.5 87t144.5 290l35 184h-4q-61 -100 -155.5 -150t-206.5 -50q-80 0 -142 24t-104.5 73.5t-56.5 126t2 181.5l92 535h-178l14 79h276l-108 -614q-28 -160 32.5 -239.5t194.5 -79.5q139 0 248 113t143 308l74 433h-178l14 79h277 l-170 -1003q-78 -461 -514 -461q-219 0 -320 84zM426 1241l33 180h98l-33 -180h-98zM825 1241l31 180h98l-30 -180h-99z" />
<glyph unicode="&#x152;" horiz-adv-x="2125" d="M100 582q0 180 61 332.5t172.5 262t277 171t366.5 61.5h1157l-63 -381h-95l49 293h-722l-95 -559h611l-13 -88h-612l-98 -586h737l51 293h92l-63 -381h-1170q-157 0 -280.5 43.5t-202 121.5t-119.5 184t-41 233zM207 586q0 -108 32 -197.5t97 -157.5t171 -105.5 t245 -37.5h241l207 1233h-231q-175 0 -319 -55t-240.5 -152.5t-149.5 -233t-53 -294.5z" />
<glyph unicode="&#x153;" horiz-adv-x="1837" d="M61 401q0 64 17 144q20 94 63.5 178t107.5 151t154 106.5t193 39.5q143 0 241 -74t134 -201q71 129 187.5 202t256.5 73q178 0 275.5 -128t64.5 -347l-6 -43h-762q-8 -49 -8 -117q0 -152 89.5 -235.5t242.5 -83.5q195 0 360 94l-18 -94q-149 -86 -353 -86 q-157 0 -262.5 68.5t-140.5 201.5q-68 -124 -179 -197t-257 -73q-184 0 -292 116.5t-108 304.5zM164 406q0 -153 82.5 -246.5t222.5 -93.5q148 0 260 111t148 278q16 72 16 139q0 153 -82.5 246.5t-222.5 93.5q-148 0 -260 -111t-148 -278q-16 -72 -16 -139zM1004 578h659 q18 172 -52.5 264t-205.5 92q-137 0 -247 -97t-154 -259z" />
<glyph unicode="&#x178;" horiz-adv-x="1441" d="M172 1321l12 88h465l-12 -88h-191l295 -649h4l519 649h-189l12 88h474l-13 -88h-168l-604 -750l-82 -483h256l-14 -88h-612l14 88h254l84 487l-338 746h-166zM643 1573l31 180h98l-33 -180h-96zM1038 1573l33 180h98l-32 -180h-99z" />
<glyph unicode="&#x2c6;" horiz-adv-x="1105" d="M350 1163l322 336h90l203 -336h-93l-163 273l-258 -273h-101z" />
<glyph unicode="&#x2dc;" horiz-adv-x="1105" d="M377 1237q21 81 68 132.5t120 51.5q37 0 76 -17.5t66.5 -38.5t61 -38.5t60.5 -17.5q46 0 74.5 33t42.5 83h62q-19 -78 -67 -131t-120 -53q-37 0 -76.5 17.5t-67 39t-61 39t-59.5 17.5q-83 0 -119 -117h-61z" />
<glyph unicode="&#x2000;" horiz-adv-x="968" />
<glyph unicode="&#x2001;" horiz-adv-x="1937" />
<glyph unicode="&#x2002;" horiz-adv-x="968" />
<glyph unicode="&#x2003;" horiz-adv-x="1937" />
<glyph unicode="&#x2004;" horiz-adv-x="645" />
<glyph unicode="&#x2005;" horiz-adv-x="484" />
<glyph unicode="&#x2006;" horiz-adv-x="322" />
<glyph unicode="&#x2007;" horiz-adv-x="322" />
<glyph unicode="&#x2008;" horiz-adv-x="242" />
<glyph unicode="&#x2009;" horiz-adv-x="387" />
<glyph unicode="&#x200a;" horiz-adv-x="107" />
<glyph unicode="&#x2010;" horiz-adv-x="811" d="M115 471l12 90h565l-12 -90h-565z" />
<glyph unicode="&#x2011;" horiz-adv-x="811" d="M115 471l12 90h565l-12 -90h-565z" />
<glyph unicode="&#x2012;" horiz-adv-x="811" d="M115 471l12 90h565l-12 -90h-565z" />
<glyph unicode="&#x2013;" horiz-adv-x="1138" d="M115 471l12 90h893l-12 -90h-893z" />
<glyph unicode="&#x2014;" horiz-adv-x="1720" d="M115 471l12 90h1470l-12 -90h-1470z" />
<glyph unicode="&#x2018;" horiz-adv-x="438" d="M227 893l35 205l129 311h58l-117 -303h43l-35 -213h-113z" />
<glyph unicode="&#x2019;" horiz-adv-x="438" d="M203 893l114 303h-41l33 213h113l-35 -205l-129 -311h-55z" />
<glyph unicode="&#x201a;" horiz-adv-x="438" d="M-2 -303l115 303h-43l34 213h111l-33 -205l-129 -311h-55z" />
<glyph unicode="&#x201c;" horiz-adv-x="774" d="M227 893l35 205l129 311h58l-117 -303h43l-35 -213h-113zM563 893l35 205l131 311h53l-114 -303h41l-33 -213h-113z" />
<glyph unicode="&#x201d;" horiz-adv-x="774" d="M203 893l114 303h-41l33 213h113l-35 -205l-129 -311h-55zM539 893l114 303h-43l35 213h113l-35 -205l-129 -311h-55z" />
<glyph unicode="&#x201e;" horiz-adv-x="774" d="M-2 -303l115 303h-43l34 213h111l-33 -205l-129 -311h-55zM332 -303l117 303h-43l32 213h113l-33 -205l-131 -311h-55z" />
<glyph unicode="&#x2022;" horiz-adv-x="999" d="M139 516q0 149 102 250.5t251 101.5t250.5 -101.5t101.5 -250.5t-101.5 -250.5t-250.5 -101.5t-251 101.5t-102 250.5z" />
<glyph unicode="&#x2026;" horiz-adv-x="1376" d="M78 0l37 221h121l-39 -221h-119zM537 0l36 221h121l-39 -221h-118zM995 0l37 221h121l-39 -221h-119z" />
<glyph unicode="&#x202f;" horiz-adv-x="387" />
<glyph unicode="&#x2039;" horiz-adv-x="618" d="M113 518l370 416h84l-350 -426l209 -410h-82z" />
<glyph unicode="&#x203a;" horiz-adv-x="618" d="M41 98l348 426l-205 410h80l234 -420l-373 -416h-84z" />
<glyph unicode="&#x205f;" horiz-adv-x="484" />
<glyph unicode="&#x20ac;" d="M16 524l17 66h166q1 11 10 82q12 86 33 168h-168l16 65h170q76 239 226.5 382t351.5 143q178 0 267.5 -105.5t98.5 -296.5h-94q-11 155 -79 235t-204 80q-157 0 -278 -117t-187 -321h416l-16 -65h-418q-21 -80 -33 -168q-8 -61 -10 -82h422l-16 -66h-408v-37 q0 -200 79.5 -310.5t235.5 -110.5q74 0 133.5 22.5t104.5 66.5t78 97.5t63 128.5h92q-68 -191 -185.5 -296t-303.5 -105q-198 0 -298.5 139.5t-100.5 372.5v32h-181z" />
<glyph unicode="&#x2122;" horiz-adv-x="1806" d="M176 1196l37 213h594l-37 -213h-70l25 145h-186l-97 -569h131l-12 -67h-342l10 67h131l99 569h-187l-24 -145h-72zM762 705l12 67h111l98 569h-111l11 68h221l170 -598h4l375 598h221l-10 -68h-111l-98 -569h110l-12 -67h-303l12 67h111l94 520h-4l-371 -587h-69 l-166 587h-4l-88 -520h112l-12 -67h-303z" />
<glyph unicode="&#xe000;" horiz-adv-x="1003" d="M0 0v1004h1004v-1004h-1004z" />
</font>
</defs>
</svg>
