<?xml version="1.0" standalone="no"?>
<!DOCTYPE svg PUBLIC "-//W3C//DTD SVG 1.1//EN" "http://www.w3.org/Graphics/SVG/1.1/DTD/svg11.dtd" >
<svg xmlns="http://www.w3.org/2000/svg">
<metadata></metadata>
<defs>
<font id="fakt_slab_prolight" horiz-adv-x="1163" >
<font-face units-per-em="2048" ascent="1532" descent="-516" />
<missing-glyph horiz-adv-x="434" />
<glyph unicode="&#xfb01;" horiz-adv-x="1206" d="M66 0v80h180v840h-180v79h180v189q0 311 299 311h86v-84h-70q-109 0 -163 -56t-54 -175v-185h627v-919h170v-80h-449v80h180v840h-528v-840h180v-80h-458zM868 1311v188h105v-188h-105z" />
<glyph unicode="&#xfb02;" horiz-adv-x="1191" d="M66 0v80h180v840h-180v79h180v189q0 311 299 311h418v-1419h172v-80h-443v80h172v1339h-319q-102 0 -151.5 -56t-49.5 -175v-189h246v-79h-246v-840h172v-80h-450z" />
<glyph unicode="&#xfb03;" horiz-adv-x="1835" d="M66 0v80h180v840h-180v79h180v189q0 311 299 311h86v-84h-70q-109 0 -163 -56t-54 -175v-185h528v189q0 311 299 311h86v-84h-69q-110 0 -163.5 -56t-53.5 -175v-185h626v-919h172v-80h-450v80h180v840h-528v-840h178v-80h-457v80h180v840h-528v-840h180v-80h-458z M1495 1311v188h104v-188h-104z" />
<glyph unicode="&#xfb04;" horiz-adv-x="1818" d="M66 0v80h180v840h-180v79h180v189q0 311 299 311h86v-84h-70q-109 0 -163 -56t-54 -175v-185h528v189q0 311 299 311h416v-1419h174v-80h-442v80h172v1339h-320q-102 0 -151 -56t-49 -175v-189h243v-79h-243v-840h170v-80h-449v80h180v840h-528v-840h180v-80h-458z" />
<glyph horiz-adv-x="2048" />
<glyph horiz-adv-x="2048" />
<glyph unicode="&#xd;" horiz-adv-x="2048" />
<glyph unicode=" "  horiz-adv-x="434" />
<glyph unicode="&#x09;" horiz-adv-x="434" />
<glyph unicode="&#xa0;" horiz-adv-x="434" />
<glyph unicode="!" horiz-adv-x="475" d="M182 0v197h111v-197h-111zM182 1049v360h111v-360l-27 -668h-59z" />
<glyph unicode="&#x22;" horiz-adv-x="770" d="M156 1225v184h98v-184l-18 -332h-64zM516 1225v184h98v-184l-18 -332h-64z" />
<glyph unicode="#" horiz-adv-x="1220" d="M37 373v76h246l90 522h-242v78h256l64 360h90l-64 -360h381l64 360h90l-64 -360h236v-78h-250l-90 -522h246v-76h-261l-63 -373h-90l63 373h-381l-63 -373h-90l63 373h-231zM373 449h381l90 522h-381z" />
<glyph unicode="$" d="M98 381h99q9 -149 111.5 -232t260.5 -83q162 0 265.5 81t103.5 222q0 112 -65 174t-216 108l-217 66q-51 15 -92 32.5t-83 47t-70 65.5t-46 88t-18 115q0 153 107.5 250.5t287.5 111.5v220h95v-220q172 -11 276 -113.5t111 -285.5h-99q-6 163 -94 239t-237 76 q-157 0 -251 -71t-94 -199q0 -62 19 -107t57.5 -75.5t80.5 -49.5t106 -38l219 -66q170 -51 247.5 -137.5t77.5 -226.5q0 -170 -117.5 -273.5t-306.5 -117.5v-228h-96v228q-185 11 -300.5 114.5t-121.5 284.5z" />
<glyph unicode="%" horiz-adv-x="1540" d="M74 1057q0 162 73 264t213 102t213.5 -102t73.5 -264t-73.5 -264.5t-213.5 -102.5t-213 102.5t-73 264.5zM160 1057q0 -137 52 -217t148 -80q98 0 149.5 80t51.5 217t-51.5 217t-149.5 80q-96 0 -148 -80t-52 -217zM373 -25l714 1459h80l-714 -1459h-80zM893 352 q0 162 73.5 264.5t213.5 102.5t213 -102.5t73 -264.5t-73 -264t-213 -102t-213.5 102t-73.5 264zM979 352q0 -136 52.5 -216.5t148.5 -80.5q97 0 148.5 80t51.5 217t-51.5 217t-148.5 80q-96 0 -148.5 -80.5t-52.5 -216.5z" />
<glyph unicode="&#x26;" horiz-adv-x="1466" d="M123 360q0 65 20.5 121t50.5 96t80 77.5t93.5 62t105.5 53.5q-103 105 -146.5 177.5t-43.5 162.5q0 135 94 227.5t254 92.5q157 0 246.5 -89t89.5 -223q0 -42 -11 -79.5t-27 -66t-46 -57.5t-54.5 -47.5t-67.5 -42.5t-70.5 -37t-76.5 -36l443 -447q90 157 90 371v29h262 v-82h-174q-13 -218 -115 -381l242 -242h-117l-176 174q-164 -194 -463 -194q-231 0 -357 102.5t-126 277.5zM221 369q0 -142 103 -225t282 -83q258 0 402 175l-478 479q-56 -26 -96 -48t-83 -54t-69.5 -65.5t-43.5 -79.5t-17 -99zM373 1114q0 -74 42 -139t142 -166 q52 24 83 39t73.5 39t67.5 45.5t49.5 50.5t35.5 62.5t11 72.5q0 98 -64.5 166t-181.5 68q-122 0 -190 -67.5t-68 -170.5z" />
<glyph unicode="'" horiz-adv-x="409" d="M156 1225v184h98v-184l-18 -332h-64z" />
<glyph unicode="(" horiz-adv-x="544" d="M78 532q0 154 31.5 309t84.5 282t107 225t113 176h90q-53 -71 -106.5 -168.5t-106.5 -226.5t-86 -286.5t-33 -310.5t33.5 -311.5t87.5 -289t106.5 -228.5t104.5 -170h-90q-58 78 -113 177t-107 227.5t-84 284.5t-32 310z" />
<glyph unicode=")" horiz-adv-x="544" d="M41 -467q52 72 104.5 170t106.5 228.5t87.5 289t33.5 311.5t-33.5 310.5t-87 286.5t-106 226t-105.5 169h90q59 -78 113 -176t107 -225t84.5 -282t31.5 -309t-32 -310t-84 -284.5t-107 -227.5t-113 -177h-90z" />
<glyph unicode="*" horiz-adv-x="909" d="M131 1161l25 76l276 -109l-18 297h82l-19 -297l277 109l24 -76l-286 -76l186 -229l-64 -45l-161 248l-158 -248l-66 45l187 229z" />
<glyph unicode="+" d="M119 477v84h418v422h90v-422h417v-84h-417v-420h-90v420h-418z" />
<glyph unicode="," horiz-adv-x="458" d="M154 -319l63 319h-49v221h123v-213l-80 -327h-57z" />
<glyph unicode="-" horiz-adv-x="811" d="M123 471v90h565v-90h-565z" />
<glyph unicode="." horiz-adv-x="458" d="M168 0v221h123v-221h-123z" />
<glyph unicode="/" horiz-adv-x="866" d="M74 -25l631 1459h86l-631 -1459h-86z" />
<glyph unicode="0" d="M102 705q0 157 28.5 286.5t85 229t150 154.5t216.5 55t216 -55t150 -154.5t85 -229t28 -286.5t-28 -286.5t-85 -229t-150 -154.5t-216 -55t-216.5 55t-150 154.5t-85 229t-28.5 286.5zM205 705q0 -294 95 -464.5t282 -170.5t281.5 170.5t94.5 464.5t-94.5 464t-281.5 170 q-128 0 -213.5 -81t-124.5 -220.5t-39 -332.5z" />
<glyph unicode="1" d="M160 0v84h409v1210l-401 -250v95l426 270h74v-1325h389v-84h-897z" />
<glyph unicode="2" d="M119 0q5 173 43 289t107 193t190 153l143 90q15 9 55 33.5t55.5 34.5t48 33.5t46.5 38t35.5 40t30.5 48.5t16.5 54.5t7.5 65.5q0 122 -87.5 196t-240.5 74q-152 0 -247 -79.5t-101 -235.5h-90q2 86 28 155t67 114.5t97.5 76t117.5 43.5t128 13q190 0 308 -93.5 t118 -263.5q0 -38 -5.5 -71.5t-18.5 -63t-26 -53t-36.5 -47.5t-40.5 -40t-48.5 -37l-49.5 -33t-53.5 -33.5t-52.5 -32.5l-144 -91q-157 -98 -221 -208t-70 -279h703v297h88v-381h-901z" />
<glyph unicode="3" d="M131 381h98q0 -150 99 -232.5t258 -82.5q156 0 260 101t104 263q0 157 -99 254.5t-265 97.5h-72v58l334 481h-567v-293h-88v381h774v-55l-346 -492q188 -8 308 -125.5t120 -306.5q0 -204 -132 -327t-331 -123q-204 0 -329.5 106t-125.5 295z" />
<glyph unicode="4" d="M78 414v69l356 926h103l-359 -911h494v501h98v-501h332v-84h-332v-332h188v-82h-512v82h226v332h-594z" />
<glyph unicode="5" d="M135 381h98q3 -141 100 -228t261 -87q153 0 254.5 101t101.5 275q0 168 -99 271.5t-261 103.5q-206 0 -330 -194l-88 4l41 782h762v-381h-88v293h-588l-33 -578q57 76 144 117t192 41q197 0 322 -124t125 -326q0 -147 -62 -255.5t-164 -162t-229 -53.5q-204 0 -328.5 107 t-130.5 294z" />
<glyph unicode="6" d="M119 672q0 165 26 295t71.5 215.5t110 142t137.5 81t159 24.5q185 0 296 -106.5t121 -295.5h-98q-11 149 -93 232t-226 83q-88 0 -159 -35.5t-126.5 -112t-86 -209.5t-30.5 -314v-37q41 122 155.5 194t258.5 72q196 0 319 -127t123 -328q0 -214 -134 -340t-333 -126 q-85 0 -156.5 22t-134.5 73.5t-106.5 130.5t-68.5 197.5t-25 268.5zM250 432q0 -152 98.5 -259t261.5 -107q159 0 264 102t105 274q0 165 -100 270t-261 105q-159 0 -263.5 -107t-104.5 -278z" />
<glyph unicode="7" d="M135 1028v381h950v-72l-598 -1337h-102l594 1321h-756v-293h-88z" />
<glyph unicode="8" d="M102 373q0 135 90 234t224 128v4q-111 26 -183.5 117.5t-72.5 208.5q0 165 118.5 265t303.5 100t303.5 -100t118.5 -265q0 -117 -72.5 -208.5t-183.5 -117.5v-4q134 -29 223.5 -128t89.5 -234q0 -183 -133.5 -288t-345.5 -105t-346 105t-134 288zM201 379 q0 -146 107 -229.5t274 -83.5t274 83.5t107 229.5q0 137 -110 225t-271 88t-271 -88t-110 -225zM254 1065q0 -129 93 -209t235 -80q141 0 234 80t93 209q0 131 -94 207t-233 76t-233.5 -76.5t-94.5 -206.5z" />
<glyph unicode="9" d="M86 961q0 108 37 197.5t100.5 148t148.5 91t181 32.5q106 0 192.5 -38.5t154.5 -118t106 -216.5t38 -320q0 -165 -24 -294t-66.5 -215t-104.5 -142.5t-134 -81t-158 -24.5q-195 0 -308.5 106.5t-125.5 294.5h98q12 -149 98.5 -232t237.5 -83q385 0 385 671q0 21 -2 35 q-39 -120 -155 -192t-259 -72q-196 0 -318 126t-122 327zM184 965q0 -165 99 -269t260 -104q160 0 265 107t105 280q0 57 -21 117.5t-62 117.5t-114 93t-165 36q-158 0 -262.5 -102.5t-104.5 -275.5z" />
<glyph unicode=":" horiz-adv-x="458" d="M168 0v221h123v-221h-123zM168 778v221h123v-221h-123z" />
<glyph unicode=";" horiz-adv-x="458" d="M154 -319l63 319h-49v221h123v-213l-80 -327h-57zM168 778v221h123v-221h-123z" />
<glyph unicode="&#x3c;" d="M152 479v86l860 369v-90l-762 -320l762 -319v-94z" />
<glyph unicode="=" d="M119 264v84h925v-84h-925zM119 692v84h925v-84h-925z" />
<glyph unicode="&#x3e;" d="M152 111v90l761 319l-761 320v94l860 -369v-86z" />
<glyph unicode="?" horiz-adv-x="954" d="M74 1028q0 182 108.5 292t300.5 110q173 0 285.5 -93.5t112.5 -251.5q0 -68 -20 -123.5t-51.5 -93t-70.5 -70.5t-77.5 -65t-70 -67t-51.5 -85t-20 -112v-68h-98v58q0 75 19.5 135t51 100t69.5 74t76 64.5t69.5 63.5t51 80t19.5 105q0 120 -82.5 191t-212.5 71 q-148 0 -229.5 -83t-81.5 -232h-98zM414 0v197h112v-197h-112z" />
<glyph unicode="@" horiz-adv-x="2113" d="M115 479q0 204 71.5 381t196.5 302t301.5 196.5t380.5 71.5q193 0 364 -62.5t297.5 -174t199.5 -276.5t73 -360q0 -145 -32.5 -257.5t-89 -179.5t-127 -100.5t-151.5 -33.5q-105 0 -179 49.5t-93 157.5q-46 -103 -144 -158t-233 -55q-151 0 -235 75t-84 199 q0 236 307 287l236 37q73 11 104.5 28t34.5 53v9q0 133 -71.5 201.5t-199.5 68.5q-125 0 -199 -64t-81 -186h-94q9 154 109 243t263 89q176 0 272.5 -94t96.5 -271v-376q0 -119 57 -172.5t142 -53.5q130 0 217.5 128t87.5 376q0 181 -66.5 332.5t-181.5 253t-269.5 157.5 t-330.5 56q-186 0 -346.5 -65t-274 -180t-178.5 -278.5t-65 -353.5t63.5 -353t174.5 -276.5t265.5 -178t331.5 -64.5q331 0 512 200h111q-106 -136 -266.5 -204t-356.5 -68q-195 0 -365.5 70.5t-292.5 193.5t-192.5 299.5t-70.5 380.5zM729 258q0 -92 63 -146.5t175 -54.5 q69 0 129.5 21.5t110 64t78 114.5t28.5 165v141q-29 -42 -125 -59l-236 -37q-223 -34 -223 -209z" />
<glyph unicode="A" horiz-adv-x="1544" d="M33 0v88h176l469 1233h-215v88h368l502 -1321h178v-88h-475v88h193l-139 369h-639l-140 -369h193v-88h-471zM483 545h574l-285 760h-2z" />
<glyph unicode="B" horiz-adv-x="1384" d="M57 0v88h201v1233h-201v88h750q213 0 316.5 -89.5t103.5 -254.5q0 -112 -62.5 -199.5t-175.5 -120.5q139 -26 216 -118.5t77 -220.5q0 -181 -116 -293.5t-330 -112.5h-779zM360 88h476q169 0 256.5 85.5t87.5 229.5q0 130 -88 210.5t-256 80.5h-476v-606zM360 782h455 q146 0 228.5 80.5t82.5 204.5q0 254 -319 254h-447v-539z" />
<glyph unicode="C" horiz-adv-x="1437" d="M86 705q0 201 81.5 365.5t234 262t348.5 97.5q336 0 471 -244v223h92v-381h-101q-54 147 -169.5 227t-292.5 80q-166 0 -294 -84t-195.5 -227t-67.5 -319q0 -174 67 -317t193 -228.5t288 -85.5q351 0 471 307h107q-62 -187 -209 -294t-369 -107q-192 0 -342.5 96.5 t-231.5 261.5t-81 367z" />
<glyph unicode="D" horiz-adv-x="1458" d="M57 0v88h201v1233h-201v88h574q181 0 322.5 -52t232 -146.5t137.5 -222.5t47 -283t-47 -283.5t-137.5 -222.5t-232 -146.5t-322.5 -52.5h-574zM360 88h271q161 0 285 47.5t199 132.5t113 195t38 242t-38 242t-113 194.5t-199 132t-285 47.5h-271v-1233z" />
<glyph unicode="E" horiz-adv-x="1323" d="M57 0v88h201v1233h-201v88h1119v-381h-93v293h-723v-557h611v-88h-611v-588h740v293h92v-381h-1135z" />
<glyph unicode="F" horiz-adv-x="1253" d="M57 0v88h201v1233h-201v88h1102v-381h-92v293h-707v-576h603v-88h-603v-569h226v-88h-529z" />
<glyph unicode="G" horiz-adv-x="1531" d="M86 705q0 201 83.5 365.5t241 262t359.5 97.5q345 0 483 -242v221h95v-381h-103q-103 307 -475 307q-173 0 -306 -85t-202 -227.5t-69 -317.5q0 -174 69.5 -317.5t199.5 -228.5t296 -85q100 0 188 29.5t157.5 86t109.5 148t40 207.5v96h-450v88h545v-729h-91v252 q-143 -272 -499 -272q-197 0 -351.5 97t-237.5 262t-83 366z" />
<glyph unicode="H" horiz-adv-x="1572" d="M57 0v88h201v1233h-201v88h504v-88h-201v-561h852v561h-200v88h504v-88h-201v-1233h201v-88h-504v88h200v584h-852v-584h201v-88h-504z" />
<glyph unicode="I" horiz-adv-x="618" d="M57 0v88h201v1233h-201v88h504v-88h-201v-1233h201v-88h-504z" />
<glyph unicode="J" horiz-adv-x="1052" d="M98 342v39h101v-39q0 -138 69.5 -205t186.5 -67q113 0 181.5 71.5t68.5 216.5v963h-201v88h495v-88h-192v-971q0 -183 -96 -276.5t-256 -93.5q-164 0 -259 88.5t-98 273.5z" />
<glyph unicode="K" horiz-adv-x="1470" d="M57 0v88h201v1233h-201v88h303v-879l732 791h-207v88h508v-88h-183l-475 -510l527 -723h176v-88h-240l-532 735l-306 -327v-320h201v-88h-504z" />
<glyph unicode="L" horiz-adv-x="1191" d="M57 0v88h201v1233h-201v88h504v-88h-201v-1233h658v293h92v-381h-1053z" />
<glyph unicode="M" horiz-adv-x="1910" d="M57 0v88h201v1233h-201v88h324l577 -1274l574 1274h323v-88h-200v-1233h200v-88h-503v88h200l9 1155h-2l-564 -1243h-80l-561 1231h-2l6 -1143h203v-88h-504z" />
<glyph unicode="N" horiz-adv-x="1581" d="M57 0v88h201v1233h-201v88h299l873 -1241l-4 1153h-201v88h500v-88h-197v-1321h-98l-873 1237l4 -1149h201v-88h-504z" />
<glyph unicode="O" horiz-adv-x="1499" d="M86 705q0 206 83.5 371.5t235.5 259.5t345 94q190 0 341.5 -94t236.5 -259.5t85 -371.5q0 -205 -85 -370.5t-236.5 -260t-341.5 -94.5q-193 0 -345 94.5t-235.5 260t-83.5 370.5zM193 705q0 -179 69.5 -322.5t197 -226t290.5 -82.5q161 0 289 82.5t198 226.5t70 322 t-70 322t-198 226t-289 82q-163 0 -290.5 -82t-197 -225.5t-69.5 -322.5z" />
<glyph unicode="P" horiz-adv-x="1302" d="M57 0v88h201v1233h-201v88h717q217 0 338 -118.5t121 -311.5q0 -195 -121 -316.5t-338 -121.5h-414v-453h226v-88h-529zM360 629h418q169 0 260.5 98t91.5 252q0 153 -91.5 247.5t-260.5 94.5h-418v-692z" />
<glyph unicode="Q" horiz-adv-x="1499" d="M86 705q0 206 83.5 371.5t235.5 259.5t345 94q190 0 341.5 -94t236.5 -259.5t85 -371.5q0 -174 -62.5 -321t-174.5 -247l278 -289l-70 -69l-286 299q-156 -98 -348 -98q-193 0 -345 94.5t-235.5 260t-83.5 370.5zM193 705q0 -179 69.5 -322.5t197 -226t290.5 -82.5 q161 0 289 82.5t198 226.5t70 322t-70 322t-198 226t-289 82q-163 0 -290.5 -82t-197 -225.5t-69.5 -322.5z" />
<glyph unicode="R" horiz-adv-x="1400" d="M57 0v88h201v1233h-201v88h729q219 0 335 -104t116 -289q0 -165 -93 -274.5t-265 -133.5l305 -520h172v-88h-234l-354 602h-408v-514h201v-88h-504zM360 692h431q164 0 254 90.5t90 233.5q0 141 -89 223t-255 82h-431v-629z" />
<glyph unicode="S" horiz-adv-x="1257" d="M123 0v381h94q23 -157 133.5 -236t292.5 -79q183 0 286 83.5t103 223.5q0 76 -30.5 130t-82 84.5t-118 51t-140 33.5t-147.5 27.5t-140.5 39t-118 60.5t-82 99.5t-30.5 150.5q0 167 129 274t338 107q312 0 389 -207h5v186h94v-381h-94q-21 156 -127 235.5t-267 79.5 q-160 0 -262 -78.5t-102 -203.5q0 -72 30.5 -123.5t82 -80t118 -47.5t140 -32t147.5 -27.5t140.5 -40t118 -64t82 -105t30.5 -156.5q0 -186 -129.5 -295.5t-358.5 -109.5q-164 0 -274 49t-152 147h-4v-176h-94z" />
<glyph unicode="T" horiz-adv-x="1290" d="M74 1028v381h1143v-381h-95v295h-426v-1235h258v-88h-622v88h262v1235h-428v-295h-92z" />
<glyph unicode="U" horiz-adv-x="1548" d="M57 1321v88h471v-88h-184v-768q0 -235 112.5 -357t317.5 -122t317.5 122t112.5 357v768h-184v88h471v-88h-184v-768q0 -289 -143.5 -431t-389.5 -142t-389 142t-143 431v768h-185z" />
<glyph unicode="V" horiz-adv-x="1527" d="M33 1321v88h479v-88h-197l451 -1217l451 1217h-197v88h475v-88h-178l-498 -1321h-112l-498 1321h-176z" />
<glyph unicode="W" horiz-adv-x="2179" d="M33 1321v88h504v-88h-211l313 -1212l393 1300h123l393 -1300l310 1212h-220v88h508v-88h-184l-346 -1321h-133l-389 1286h-4l-390 -1286h-131l-354 1321h-182z" />
<glyph unicode="X" horiz-adv-x="1429" d="M33 0v88h164l454 631l-434 602h-168v88h475v-88h-186l375 -528l377 528h-197v88h475v-88h-168l-430 -598l459 -635h168v-88h-479v88h190l-399 563l-400 -563h203v-88h-479z" />
<glyph unicode="Y" horiz-adv-x="1441" d="M33 1321v88h483v-88h-201l404 -657h4l410 657h-191v88h467v-88h-170l-469 -752v-481h254v-88h-610v88h254v473l-467 760h-168z" />
<glyph unicode="Z" horiz-adv-x="1249" d="M111 0v66l884 1257h-764v-295h-92v381h983v-66l-886 -1257h800v295h94v-381h-1019z" />
<glyph unicode="[" horiz-adv-x="626" d="M193 -467v1991h389v-82h-299v-1827h299v-82h-389z" />
<glyph unicode="\" horiz-adv-x="866" d="M74 1434h86l631 -1459h-86z" />
<glyph unicode="]" horiz-adv-x="626" d="M45 -385h297v1827h-297v82h389v-1991h-389v82z" />
<glyph unicode="^" d="M135 721l397 688h99l397 -688h-102l-346 612l-347 -612h-98z" />
<glyph unicode="_" horiz-adv-x="1024" d="M0 -147h1024v-76h-1024v76z" />
<glyph unicode="`" horiz-adv-x="1105" d="M254 1499h117l219 -336h-74z" />
<glyph unicode="a" horiz-adv-x="1097" d="M98 250q0 121 75.5 192t232.5 97l235 39q76 11 107.5 30t31.5 60q-3 132 -73 201t-195 69q-126 0 -201.5 -67t-81.5 -195h-94q6 161 108.5 252.5t268.5 91.5q173 0 269 -93.5t96 -267.5v-579h163v-80h-256v184h-4q-43 -97 -137.5 -150.5t-224.5 -53.5q-151 0 -235.5 73 t-84.5 197zM197 258q0 -90 61 -143.5t174 -53.5q70 0 131 21.5t110.5 64t78 114.5t28.5 165v137q-29 -42 -125 -59l-233 -37q-114 -19 -169.5 -70t-55.5 -139z" />
<glyph unicode="b" horiz-adv-x="1196" d="M57 0v80h172v1339h-172v80h271v-325q0 -296 -6 -390h4q47 113 144 174.5t224 61.5q190 0 311 -139t121 -373t-125 -381t-313 -147q-128 0 -221.5 60.5t-140.5 174.5h-4v-215h-265zM328 500q0 -198 98.5 -316t249.5 -118q150 0 249 122t99 320q0 196 -98.5 311t-249.5 115 q-148 0 -246 -112t-102 -302v-20z" />
<glyph unicode="c" horiz-adv-x="1007" d="M70 496q0 233 128.5 378.5t317.5 145.5q119 0 200 -48t118 -128h4v155h84v-323h-86q-31 122 -113 190t-197 68q-152 0 -253 -121.5t-101 -312.5q0 -194 96.5 -314t255.5 -120q117 0 199 70t104 188h95q-24 -153 -130.5 -248t-271.5 -96q-206 0 -328 141.5t-122 374.5z " />
<glyph unicode="d" horiz-adv-x="1196" d="M70 492q0 234 125 381t313 147q127 0 220.5 -61t139.5 -175h6q-6 99 -6 387v248h-184v80h283v-1419h172v-80h-265v215h-6q-47 -113 -143.5 -174t-222.5 -61q-190 0 -311 139t-121 373zM172 492q0 -196 98.5 -311t247.5 -115q148 0 246 111.5t104 301.5v41 q-6 189 -105 301.5t-243 112.5q-150 0 -249 -122t-99 -320z" />
<glyph unicode="e" horiz-adv-x="1007" d="M70 500q0 228 127.5 374t318.5 146q184 0 301 -127.5t117 -347.5v-43h-762v-2q0 -196 94.5 -315t257.5 -119q126 0 210 69.5t97 188.5h93q-12 -153 -125 -248.5t-275 -95.5q-214 0 -334 141t-120 379zM176 578h658q-7 171 -94 263.5t-224 92.5q-132 0 -226 -97.5 t-114 -258.5z" />
<glyph unicode="f" horiz-adv-x="655" d="M66 0v80h180v840h-180v79h180v189q0 311 299 311h86v-80h-86q-102 0 -151.5 -57.5t-49.5 -177.5v-185h246v-79h-246v-840h246v-80h-524z" />
<glyph unicode="g" horiz-adv-x="1191" d="M70 492q0 234 125.5 381t314.5 147q125 0 218.5 -61.5t139.5 -174.5h6v215h261v-79h-168v-900q0 -128 -33.5 -224t-94 -152.5t-139.5 -83.5t-176 -27q-189 0 -303.5 91t-114.5 253h91q0 -119 90.5 -189.5t236.5 -70.5q345 0 348 403v195h-4q-47 -113 -143.5 -174 t-222.5 -61q-190 0 -311 139t-121 373zM172 492q0 -196 98.5 -311t247.5 -115q153 0 251.5 118t98.5 316t-98.5 316t-249.5 118q-150 0 -249 -122t-99 -320z" />
<glyph unicode="h" horiz-adv-x="1249" d="M57 0v80h172v1339h-172v80h271v-323q0 -278 -6 -373h4q44 108 137 162.5t209 54.5q77 0 140 -22.5t112.5 -69t76.5 -125.5t27 -185v-538h164v-80h-426v80h164v526q0 171 -73 249.5t-202 78.5q-142 0 -234.5 -108t-92.5 -302v-444h164v-80h-435z" />
<glyph unicode="i" horiz-adv-x="581" d="M66 0v80h180v840h-180v79h278v-919h172v-80h-450zM242 1311v188h104v-188h-104z" />
<glyph unicode="j" horiz-adv-x="540" d="M37 -367h49q73 0 108 39.5t35 130.5v1117h-172v79h271v-1212q0 -238 -234 -238h-57v84zM227 1311v188h105v-188h-105z" />
<glyph unicode="k" horiz-adv-x="1155" d="M57 0v80h172v1339h-172v80h271v-1079l499 500h-192v79h467v-79h-158l-319 -318l340 -522h157v-80h-219l-348 532l-227 -225v-227h172v-80h-443z" />
<glyph unicode="l" horiz-adv-x="557" d="M57 0v80h172v1339h-172v80h271v-1419h172v-80h-443z" />
<glyph unicode="m" horiz-adv-x="1900" d="M66 0v80h180v840h-180v79h272v-196h4q44 107 135 162t199 55q119 0 203.5 -62.5t115.5 -191.5q45 132 137 193t211 61q71 0 130.5 -22t106.5 -67.5t73 -123t26 -180.5v-547h164v-80h-426v80h164v534q0 165 -67.5 242.5t-188.5 77.5q-131 0 -222 -107.5t-91 -302.5v-444 h164v-80h-426v80h163v534q0 164 -68.5 242t-187.5 78q-133 0 -223 -108.5t-90 -301.5v-444h164v-80h-442z" />
<glyph unicode="n" horiz-adv-x="1265" d="M66 0v80h180v840h-180v79h272v-196h4q44 108 137 162.5t209 54.5q77 0 140 -22.5t112.5 -69t76.5 -125.5t27 -185v-538h164v-80h-426v80h164v526q0 171 -72.5 249.5t-201.5 78.5q-143 0 -235.5 -108t-92.5 -302v-444h164v-80h-442z" />
<glyph unicode="o" horiz-adv-x="1056" d="M70 500q0 231 130.5 375.5t327.5 144.5q206 0 332.5 -143t126.5 -377q0 -231 -131 -375.5t-328 -144.5q-206 0 -332 143t-126 377zM172 500q0 -193 99.5 -313.5t256.5 -120.5q153 0 255 121.5t102 312.5q0 195 -100 314.5t-257 119.5q-153 0 -254.5 -121.5t-101.5 -312.5 z" />
<glyph unicode="p" horiz-adv-x="1196" d="M57 -371h172v1291h-172v79h265v-215h4q47 113 144 174.5t224 61.5q188 0 310 -139.5t122 -372.5q0 -234 -126 -381t-312 -147q-128 0 -221.5 60.5t-140.5 174.5h-4q6 -99 6 -387v-199h250v-80h-521v80zM328 500q0 -198 98.5 -316t249.5 -118q150 0 249 122t99 320 q0 196 -98.5 311t-249.5 115q-148 0 -246 -112t-102 -302v-20z" />
<glyph unicode="q" horiz-adv-x="1196" d="M70 492q0 234 126 381t314 147q125 0 218.5 -61.5t139.5 -174.5h6v215h265v-79h-172v-1291h172v-80h-521v80h250v199q0 292 6 387h-6q-47 -113 -143.5 -174t-222.5 -61q-188 0 -310 139.5t-122 372.5zM172 492q0 -196 98.5 -311t247.5 -115q148 0 246 111.5t104 301.5v21 q0 198 -98.5 316t-249.5 118q-150 0 -249 -122t-99 -320z" />
<glyph unicode="r" horiz-adv-x="733" d="M66 0v80h180v840h-180v79h274l-2 -196h4q40 92 120 144t185 52h49v-92h-53q-126 0 -212.5 -93.5t-86.5 -268.5v-465h246v-80h-524z" />
<glyph unicode="s" horiz-adv-x="954" d="M98 0v324h86q10 -72 40.5 -126t75.5 -83.5t96 -43.5t108 -14q126 0 202 55t76 160q0 65 -37 105.5t-96 58.5t-130 28.5t-142.5 24t-130.5 37t-96 75.5t-37 132q0 130 98 208.5t250 78.5q56 0 103 -11.5t75.5 -26.5t54 -39.5t37 -40.5t25.5 -40h4v137h84v-323h-86 q-22 136 -98.5 201t-190.5 65q-113 0 -186.5 -54t-73.5 -147q0 -49 23 -83t62 -52t89.5 -29.5t106 -19.5t111 -17t106 -26.5t89.5 -44t62 -74t23 -112.5q0 -148 -103 -225.5t-266 -77.5q-119 0 -204.5 39.5t-121.5 117.5h-4v-137h-84z" />
<glyph unicode="t" horiz-adv-x="667" d="M0 920v79h217v304h98v-304h287v-79h-287v-637q0 -108 43.5 -155.5t135.5 -47.5h108v-80h-119q-134 0 -200 67t-66 212v641h-217z" />
<glyph unicode="u" horiz-adv-x="1241" d="M57 920v79h262v-606q0 -170 72.5 -248.5t200.5 -78.5q140 0 230.5 107.5t90.5 301.5v445h-163v79h262v-919h172v-80h-266v197h-5q-44 -108 -135 -162.5t-205 -54.5q-158 0 -255 97.5t-97 303.5v539h-164z" />
<glyph unicode="v" horiz-adv-x="1179" d="M33 920v79h418v-79h-166l309 -816l309 816h-166v79h410v-79h-146l-356 -920h-106l-361 920h-145z" />
<glyph unicode="w" horiz-adv-x="1708" d="M33 920v79h434v-79h-178l227 -820h2l281 899h114l279 -899h2l229 820h-178v79h430v-79h-155l-271 -920h-121l-274 903l-279 -903h-120l-269 920h-153z" />
<glyph unicode="x" horiz-adv-x="1105" d="M33 0v80h147l316 420l-316 420h-139v79h405v-79h-155l266 -357l264 357h-149v79h393v-79h-139l-318 -420l318 -420h147v-80h-414v80h154l-264 356l-264 -356h149v-80h-401z" />
<glyph unicode="y" horiz-adv-x="1179" d="M33 920v79h418v-79h-166l309 -816l309 816h-166v79h410v-79h-146l-499 -1291h172v-80h-449v80h183l137 353l-367 938h-145z" />
<glyph unicode="z" horiz-adv-x="962" d="M98 0v57l637 863h-532v-244h-84v323h737v-65l-631 -854h555v244h84v-324h-766z" />
<glyph unicode="{" horiz-adv-x="737" d="M86 502v67q128 17 176.5 71t48.5 183v398q0 303 291 303h94v-78h-90q-205 0 -205 -221v-426q0 -111 -48.5 -170.5t-157.5 -91.5v-5q110 -32 158 -90.5t48 -171.5v-438q0 -221 205 -221h90v-78h-94q-291 0 -291 303v412q0 129 -48.5 183t-176.5 71z" />
<glyph unicode="|" horiz-adv-x="524" d="M217 -492v2048h90v-2048h-90z" />
<glyph unicode="}" horiz-adv-x="737" d="M41 -389h90q205 0 205 221v438q0 112 49 171t158 91v5q-110 31 -158.5 90.5t-48.5 171.5v426q0 221 -205 221h-90v78h94q291 0 291 -303v-398q0 -129 48.5 -183t176.5 -71v-67q-128 -17 -176.5 -71t-48.5 -183v-412q0 -303 -291 -303h-94v78z" />
<glyph unicode="~" d="M143 385q0 133 62.5 203.5t163.5 70.5q49 0 98 -18.5t88.5 -45.5t78 -54t80.5 -45.5t81 -18.5q66 0 102.5 47.5t36.5 143.5h86q0 -133 -61.5 -204t-159.5 -71q-60 0 -122 29t-106 63.5t-99.5 63.5t-102.5 29q-66 0 -103 -48.5t-37 -144.5h-86z" />
<glyph unicode="&#xa1;" horiz-adv-x="475" d="M182 -49l25 667h59l27 -667v-361h-111v361zM182 803v196h111v-196h-111z" />
<glyph unicode="&#xa2;" d="M131 713q0 216 121.5 358t308.5 160v199h96v-199q155 -13 256 -106t123 -236h-98q-22 119 -109 188.5t-223 69.5q-161 0 -267 -121t-106 -313t106 -313t267 -121q136 0 223 69.5t109 188.5h98q-22 -144 -124 -236t-259 -104v-217h-94v217q-194 15 -311 155t-117 361z" />
<glyph unicode="&#xa3;" d="M20 164q0 91 60.5 148t157.5 57q84 0 186 -64q6 55 6 105q0 110 -70 284h-221v70h193q-40 93 -61 164t-21 145q0 164 98.5 260.5t274.5 96.5q351 0 360 -402h-94q-9 320 -271 320q-122 0 -196 -72.5t-74 -194.5q0 -16 1.5 -33t3 -30.5t7 -33.5t7.5 -30.5t10.5 -33 t10.5 -29.5t12.5 -33t12 -30t14 -33t13.5 -31h371v-70h-342q55 -142 55 -252q0 -105 -20 -192q12 -10 61.5 -50t69 -54t58 -38t70 -33t64.5 -9q43 0 75.5 17t53 45t34.5 70t20.5 85t9.5 98h90q-5 -70 -13 -122.5t-28 -108t-49.5 -90.5t-78.5 -57.5t-114 -22.5q-57 0 -120 29 t-104 60.5t-105 85.5q-4 4 -6.5 6t-6 5t-6.5 6q-73 -192 -254 -192q-96 0 -150.5 51t-54.5 133zM94 170q0 -58 34.5 -93.5t98.5 -35.5q73 0 117.5 51.5t65.5 134.5q-101 76 -177 76q-61 0 -100 -38.5t-39 -94.5z" />
<glyph unicode="&#xa4;" d="M199 371l120 123q-73 97 -73 211q0 120 76 213l-121 122l49 52l121 -125q85 73 211 73q120 0 209 -73l120 125l50 -52l-121 -120q78 -99 78 -215q0 -114 -78 -213l123 -121l-50 -52l-120 123q-85 -73 -211 -73t-213 75l-121 -125zM328 705q0 -114 72.5 -189.5 t181.5 -75.5t181.5 75.5t72.5 189.5t-72.5 189t-181.5 75t-181.5 -75t-72.5 -189z" />
<glyph unicode="&#xa5;" d="M49 1409h111l424 -707h4l424 707h104l-485 -801h340v-63h-340v-207h340v-64h-340v-274h-99v274h-339v64h339v207h-339v63h339v2z" />
<glyph unicode="&#xa6;" horiz-adv-x="524" d="M217 -336v721h90v-721h-90zM217 688v721h90v-721h-90z" />
<glyph unicode="&#xa7;" horiz-adv-x="1122" d="M127 487q0 119 73 205t193 119q-107 41 -166 109t-59 186q0 147 115 237.5t290 90.5q172 0 285.5 -81.5t122.5 -236.5h-92q-7 115 -96.5 177.5t-219.5 62.5q-135 0 -221 -67.5t-86 -174.5q0 -55 17.5 -95.5t53 -67.5t72 -43.5t91.5 -33.5l188 -57q158 -49 232.5 -127.5 t74.5 -210.5q0 -119 -74 -204.5t-196 -118.5q109 -40 169 -107.5t60 -187.5q0 -146 -115 -236t-290 -90q-172 0 -285.5 81.5t-122.5 236.5h92q7 -116 96.5 -179t219.5 -63q135 0 221 68t86 176q0 55 -17.5 95.5t-53 67.5t-71.5 43t-91 33l-189 58q-159 48 -233 126t-74 209z M221 500q0 -108 59.5 -165.5t190.5 -98.5l131 -41q132 12 215.5 87t83.5 187q0 107 -59.5 165t-190.5 97l-145 43q-127 -18 -206 -92t-79 -182z" />
<glyph unicode="&#xa8;" horiz-adv-x="1105" d="M307 1241v180h99v-180h-99zM705 1241v180h98v-180h-98z" />
<glyph unicode="&#xa9;" horiz-adv-x="1589" d="M82 713q0 202 90.5 365.5t254 257.5t368.5 94q151 0 283 -55t226 -150t148.5 -228t54.5 -284q0 -202 -90 -369t-253.5 -265.5t-368.5 -98.5t-369 98.5t-254 265.5t-90 369zM164 713q0 -182 79 -333t224.5 -241t327.5 -90q181 0 326.5 90t224.5 241t79 333 q0 181 -79.5 327.5t-224 231t-326.5 84.5q-183 0 -328 -84.5t-224 -231t-79 -327.5zM455 713q0 151 94 254.5t242 103.5q160 0 231 -104v88h72v-217h-78q-20 77 -75.5 121.5t-145.5 44.5q-115 0 -186.5 -84t-71.5 -207q0 -122 72.5 -206.5t185.5 -84.5q91 0 146 44.5 t75 121.5h80q-21 -107 -100 -170.5t-201 -63.5q-151 0 -245.5 104t-94.5 255z" />
<glyph unicode="&#xaa;" horiz-adv-x="811" d="M70 883q0 175 219 204l176 25q53 6 72.5 18.5t19.5 40.5v5q0 86 -47.5 133t-132.5 47q-81 0 -134.5 -42.5t-60.5 -125.5h-84q7 117 85.5 176t193.5 59q125 0 197.5 -63t72.5 -186v-396h127v-73h-215v110h-2q-66 -125 -260 -125q-105 0 -166 53t-61 140zM160 889 q0 -62 41.5 -97.5t113.5 -35.5q103 0 172.5 65t69.5 191v75q-21 -30 -80 -36l-168 -23q-149 -18 -149 -139z" />
<glyph unicode="&#xab;" horiz-adv-x="1019" d="M119 516l301 418h80l-271 -418l271 -418h-80zM520 516l301 418h80l-270 -418l270 -418h-80z" />
<glyph unicode="&#xac;" d="M119 477v84h925v-504h-90v420h-835z" />
<glyph unicode="&#xad;" horiz-adv-x="811" d="M123 471v90h565v-90h-565z" />
<glyph unicode="&#xae;" horiz-adv-x="1589" d="M82 713q0 202 90.5 365.5t254 257.5t368.5 94q151 0 283 -55t226 -150t148.5 -228t54.5 -284q0 -202 -90 -369t-253.5 -265.5t-368.5 -98.5t-369 98.5t-254 265.5t-90 369zM166 713q0 -182 78.5 -333t223.5 -241t327 -90q181 0 326 90t223.5 241t78.5 333 q0 181 -79 327.5t-223 231t-326 84.5q-183 0 -327.5 -84.5t-223 -231t-78.5 -327.5zM455 360v70h102v565h-102v70h419q116 0 178 -56t62 -153q0 -82 -51.5 -140t-138.5 -71l141 -215h94v-70h-137l-182 281h-201v-211h111v-70h-295zM639 711h233q78 0 119 39.5t41 105.5 q0 65 -41.5 102t-118.5 37h-233v-284z" />
<glyph unicode="&#xaf;" horiz-adv-x="1105" d="M270 1292v76h566v-76h-566z" />
<glyph unicode="&#xb0;" horiz-adv-x="720" d="M82 1153q0 118 79.5 197.5t198.5 79.5q120 0 199.5 -80t79.5 -197q0 -119 -79.5 -199t-199.5 -80t-199 80t-79 199zM164 1153q0 -87 55.5 -146t140.5 -59t141 59t56 146t-56 146t-141 59t-140.5 -59t-55.5 -146z" />
<glyph unicode="&#xb1;" d="M119 0v84h925v-84h-925zM119 602v84h418v393h90v-393h417v-84h-417v-389h-90v389h-418z" />
<glyph unicode="&#xb2;" horiz-adv-x="720" d="M82 1016q4 137 49.5 210.5t153.5 123.5l82 36q96 42 123 62q51 37 51 94t-47.5 89t-131.5 32q-82 0 -133.5 -40t-52.5 -112h-86q4 106 82 164t193 58q118 0 190 -49.5t72 -141.5q0 -35 -11.5 -63.5t-26 -47t-45.5 -38t-50.5 -29t-60.5 -27.5q-8 -4 -13 -6l-82 -39 q-87 -38 -121 -84.5t-37 -120.5h375v130h76v-201h-549z" />
<glyph unicode="&#xb3;" horiz-adv-x="720" d="M94 1217h82q0 -75 52.5 -113.5t136.5 -38.5q88 0 141 43.5t53 116.5q0 70 -50 107.5t-138 37.5h-52v51l195 228h-319v-127h-76v198h499v-51l-202 -237q107 -9 170 -62.5t63 -144.5q0 -102 -77.5 -164t-204.5 -62q-125 0 -199 54.5t-74 163.5z" />
<glyph unicode="&#xb4;" horiz-adv-x="1105" d="M514 1163l221 336h117l-264 -336h-74z" />
<glyph unicode="&#xb5;" horiz-adv-x="1249" d="M66 920v79h262v-606q0 -327 272 -327q139 0 230.5 106.5t91.5 306.5v441h-164v79h262v-917h172v-82h-266v197h-4q-44 -108 -135 -162.5t-205 -54.5q-176 0 -263 114q9 -259 9 -387v-158h-99v1371h-163z" />
<glyph unicode="&#xb6;" horiz-adv-x="1228" d="M115 987q0 193 129.5 307.5t353.5 114.5h70v-1409h-287v82h188v485q-212 7 -333 122t-121 298zM885 0v1409h286v-82h-188v-1245h188v-82h-286z" />
<glyph unicode="&#xb7;" horiz-adv-x="458" d="M168 410v213h123v-213h-123z" />
<glyph unicode="&#xb8;" horiz-adv-x="1105" d="M426 -371h98q69 0 102 32t33 83q0 49 -35 79t-102 30h-47l57 147h41l-24 -90q91 -3 139.5 -50t48.5 -116q0 -76 -52 -127t-157 -51h-102v63z" />
<glyph unicode="&#xb9;" horiz-adv-x="720" d="M119 1016v71h229v531l-225 -127v78l256 151h55v-633h213v-71h-528z" />
<glyph unicode="&#xba;" horiz-adv-x="796" d="M61 1057q0 164 95 265t243 101q152 0 245 -100t93 -266q0 -163 -95 -264t-243 -101q-153 0 -245.5 100t-92.5 265zM156 1057q0 -131 66.5 -211t176.5 -80q107 0 175.5 81t68.5 210q0 132 -67 211.5t-177 79.5q-107 0 -175 -80t-68 -211z" />
<glyph unicode="&#xbb;" horiz-adv-x="1019" d="M119 98l270 418l-270 418h80l301 -418l-301 -418h-80zM520 98l271 418l-271 418h80l301 -418l-301 -418h-80z" />
<glyph unicode="&#xbc;" horiz-adv-x="1540" d="M119 705v71h229v531l-225 -127v77l256 152h55v-633h213v-71h-528zM422 -25l715 1459h80l-715 -1459h-80zM885 203v57l180 445h84l-176 -431h248v222h82v-222h180v-71h-180v-133h108v-70h-313v70h123v133h-336z" />
<glyph unicode="&#xbd;" horiz-adv-x="1540" d="M119 705v71h229v531l-225 -127v77l256 152h55v-633h213v-71h-528zM414 -25l714 1459h80l-714 -1459h-80zM901 0q4 137 49.5 210.5t153.5 123.5l82 37q96 42 121 60q52 38 53 95q0 57 -47.5 89t-130.5 32q-82 0 -134 -39.5t-53 -111.5h-86q4 106 82 163.5t193 57.5 q118 0 190 -49.5t72 -141.5q0 -35 -11.5 -63.5t-26 -47t-45.5 -38t-50.5 -29t-60.5 -27.5q-8 -4 -13 -6l-82 -39q-88 -38 -121.5 -84t-36.5 -120h375v129h76v-201h-549z" />
<glyph unicode="&#xbe;" horiz-adv-x="1540" d="M94 905h82q0 -75 52.5 -113t136.5 -38q88 0 141 43t53 116q0 70 -50.5 108t-137.5 38h-52v51l195 227h-319v-127h-76v199h499v-51l-202 -238q107 -9 170 -62.5t63 -144.5q0 -102 -77.5 -163.5t-204.5 -61.5q-125 0 -199 54.5t-74 162.5zM389 -25l715 1459h80l-715 -1459 h-80zM885 203v57l180 445h84l-176 -431h248v222h82v-222h180v-71h-180v-133h108v-70h-313v70h123v133h-336z" />
<glyph unicode="&#xbf;" horiz-adv-x="954" d="M74 -86q0 68 20 123.5t51.5 93t70 70.5t77 65t70 67t51.5 85t20 112v68h98v-57q0 -75 -19.5 -135t-51.5 -100t-70 -74t-76 -65t-70 -64t-51.5 -80t-19.5 -105q0 -119 83.5 -190.5t213.5 -71.5q147 0 229 83t82 232h99q0 -181 -109 -291t-301 -110q-173 0 -285 93 t-112 251zM426 803v196h113v-196h-113z" />
<glyph unicode="&#xc0;" horiz-adv-x="1544" d="M33 0v88h176l469 1233h-215v88h368l502 -1321h178v-88h-475v88h193l-139 369h-639l-140 -369h193v-88h-471zM473 1909h117l219 -336h-74zM483 545h574l-285 760h-2z" />
<glyph unicode="&#xc1;" horiz-adv-x="1544" d="M33 0v88h176l469 1233h-215v88h368l502 -1321h178v-88h-475v88h193l-139 369h-639l-140 -369h193v-88h-471zM483 545h574l-285 760h-2zM733 1573l221 336h117l-264 -336h-74z" />
<glyph unicode="&#xc2;" horiz-adv-x="1544" d="M33 0v88h176l469 1233h-215v88h368l502 -1321h178v-88h-475v88h193l-139 369h-639l-140 -369h193v-88h-471zM465 1573l262 336h90l262 -336h-94l-213 276l-213 -276h-94zM483 545h574l-285 760h-2z" />
<glyph unicode="&#xc3;" horiz-adv-x="1544" d="M33 0v88h176l469 1233h-215v88h368l502 -1321h178v-88h-475v88h193l-139 369h-639l-140 -369h193v-88h-471zM473 1573q5 79 46 131.5t114 52.5q46 0 102 -28t106 -56t83 -28q81 0 98 116h57q-5 -77 -46 -130.5t-113 -53.5q-37 0 -80.5 17.5t-76 38t-70 38t-64.5 17.5 q-82 0 -99 -115h-57zM483 545h574l-285 760h-2z" />
<glyph unicode="&#xc4;" horiz-adv-x="1544" d="M33 0v88h176l469 1233h-215v88h368l502 -1321h178v-88h-475v88h193l-139 369h-639l-140 -369h193v-88h-471zM483 545h574l-285 760h-2zM526 1573v180h99v-180h-99zM924 1573v180h98v-180h-98z" />
<glyph unicode="&#xc5;" horiz-adv-x="1544" d="M33 0v88h176l469 1233h-215v88h368l502 -1321h178v-88h-475v88h193l-139 369h-639l-140 -369h193v-88h-471zM483 545h574l-285 760h-2zM584 1761q0 81 57 133t131 52t131.5 -52t57.5 -133q0 -80 -57.5 -132t-131.5 -52t-131 52t-57 132zM641 1761q0 -58 39.5 -94.5 t91.5 -36.5t91.5 36.5t39.5 94.5t-39.5 95.5t-91.5 37.5t-91.5 -37.5t-39.5 -95.5z" />
<glyph unicode="&#xc6;" horiz-adv-x="2240" d="M0 0v88h184l901 1233h-217v88h1233v-381h-92v293h-723v-557h610v-88h-610v-588h739v293h93v-381h-1135v88h201v373h-611l-272 -373h195v-88h-496zM639 549h545v743z" />
<glyph unicode="&#xc7;" horiz-adv-x="1437" d="M86 705q0 201 81.5 365.5t234 262t348.5 97.5q336 0 471 -244v223h92v-381h-101q-54 147 -169.5 227t-292.5 80q-166 0 -294 -84t-195.5 -227t-67.5 -319q0 -174 67 -317t193 -228.5t288 -85.5q351 0 471 307h107q-62 -184 -204.5 -290.5t-358.5 -110.5l-19 -70 q91 -3 140 -50t49 -116q0 -76 -52 -127t-157 -51h-103v63h99q69 0 102 32t33 83q0 49 -35 79t-102 30h-47l49 129q-185 7 -328.5 104.5t-221 259t-77.5 359.5z" />
<glyph unicode="&#xc8;" horiz-adv-x="1323" d="M57 0v88h201v1233h-201v88h1119v-381h-93v293h-723v-557h611v-88h-611v-588h740v293h92v-381h-1135zM385 1909h117l219 -336h-74z" />
<glyph unicode="&#xc9;" horiz-adv-x="1323" d="M57 0v88h201v1233h-201v88h1119v-381h-93v293h-723v-557h611v-88h-611v-588h740v293h92v-381h-1135zM645 1573l221 336h117l-264 -336h-74z" />
<glyph unicode="&#xca;" horiz-adv-x="1323" d="M57 0v88h201v1233h-201v88h1119v-381h-93v293h-723v-557h611v-88h-611v-588h740v293h92v-381h-1135zM377 1573l262 336h90l262 -336h-94l-213 276l-213 -276h-94z" />
<glyph unicode="&#xcb;" horiz-adv-x="1323" d="M57 0v88h201v1233h-201v88h1119v-381h-93v293h-723v-557h611v-88h-611v-588h740v293h92v-381h-1135zM438 1573v180h99v-180h-99zM836 1573v180h98v-180h-98z" />
<glyph unicode="&#xcc;" horiz-adv-x="618" d="M10 1909h117l219 -336h-74zM57 0v88h201v1233h-201v88h504v-88h-201v-1233h201v-88h-504z" />
<glyph unicode="&#xcd;" horiz-adv-x="618" d="M57 0v88h201v1233h-201v88h504v-88h-201v-1233h201v-88h-504zM270 1573l222 336h116l-264 -336h-74z" />
<glyph unicode="&#xce;" horiz-adv-x="618" d="M2 1573l262 336h90l262 -336h-94l-213 276l-213 -276h-94zM57 0v88h201v1233h-201v88h504v-88h-201v-1233h201v-88h-504z" />
<glyph unicode="&#xcf;" horiz-adv-x="618" d="M57 0v88h201v1233h-201v88h504v-88h-201v-1233h201v-88h-504zM63 1573v180h99v-180h-99zM461 1573v180h98v-180h-98z" />
<glyph unicode="&#xd0;" horiz-adv-x="1458" d="M57 0v88h201v578h-201v84h201v571h-201v88h574q181 0 323 -52t233 -146.5t138 -222.5t47 -283t-47 -283.5t-138 -222.5t-233 -146.5t-323 -52.5h-574zM360 88h271q161 0 285 47.5t199 132.5t113 195t38 242t-38 242t-113 194.5t-199 132t-285 47.5h-271v-571h336v-84 h-336v-578z" />
<glyph unicode="&#xd1;" horiz-adv-x="1581" d="M57 0v88h201v1233h-201v88h299l873 -1241l-4 1153h-201v88h500v-88h-197v-1321h-98l-873 1237l4 -1149h201v-88h-504zM492 1573q5 79 45.5 131.5t113.5 52.5q46 0 102 -28t106 -56t83 -28q81 0 98 116h58q-5 -77 -46.5 -130.5t-113.5 -53.5q-37 0 -80.5 17.5t-76 38 t-70 38t-64.5 17.5q-81 0 -98 -115h-57z" />
<glyph unicode="&#xd2;" horiz-adv-x="1499" d="M86 705q0 206 83.5 371.5t235.5 259.5t345 94q190 0 341.5 -94t236.5 -259.5t85 -371.5q0 -205 -85 -370.5t-236.5 -260t-341.5 -94.5q-193 0 -345 94.5t-235.5 260t-83.5 370.5zM193 705q0 -179 69.5 -322.5t197 -226t290.5 -82.5q161 0 289 82.5t198 226.5t70 322 t-70 322t-198 226t-289 82q-163 0 -290.5 -82t-197 -225.5t-69.5 -322.5zM451 1909h116l219 -336h-73z" />
<glyph unicode="&#xd3;" horiz-adv-x="1499" d="M86 705q0 206 83.5 371.5t235.5 259.5t345 94q190 0 341.5 -94t236.5 -259.5t85 -371.5q0 -205 -85 -370.5t-236.5 -260t-341.5 -94.5q-193 0 -345 94.5t-235.5 260t-83.5 370.5zM193 705q0 -179 69.5 -322.5t197 -226t290.5 -82.5q161 0 289 82.5t198 226.5t70 322 t-70 322t-198 226t-289 82q-163 0 -290.5 -82t-197 -225.5t-69.5 -322.5zM711 1573l221 336h117l-265 -336h-73z" />
<glyph unicode="&#xd4;" horiz-adv-x="1499" d="M86 705q0 206 83.5 371.5t235.5 259.5t345 94q190 0 341.5 -94t236.5 -259.5t85 -371.5q0 -205 -85 -370.5t-236.5 -260t-341.5 -94.5q-193 0 -345 94.5t-235.5 260t-83.5 370.5zM193 705q0 -179 69.5 -322.5t197 -226t290.5 -82.5q161 0 289 82.5t198 226.5t70 322 t-70 322t-198 226t-289 82q-163 0 -290.5 -82t-197 -225.5t-69.5 -322.5zM442 1573l263 336h90l262 -336h-94l-213 276l-213 -276h-95z" />
<glyph unicode="&#xd5;" horiz-adv-x="1499" d="M86 705q0 206 83.5 371.5t235.5 259.5t345 94q190 0 341.5 -94t236.5 -259.5t85 -371.5q0 -205 -85 -370.5t-236.5 -260t-341.5 -94.5q-193 0 -345 94.5t-235.5 260t-83.5 370.5zM193 705q0 -179 69.5 -322.5t197 -226t290.5 -82.5q161 0 289 82.5t198 226.5t70 322 t-70 322t-198 226t-289 82q-163 0 -290.5 -82t-197 -225.5t-69.5 -322.5zM451 1573q5 79 45.5 131.5t113.5 52.5q46 0 102 -28t106 -56t83 -28q81 0 98 116h58q-5 -77 -46.5 -130.5t-113.5 -53.5q-37 0 -80.5 17.5t-76 38t-70 38t-64.5 17.5q-81 0 -98 -115h-57z" />
<glyph unicode="&#xd6;" horiz-adv-x="1499" d="M86 705q0 206 83.5 371.5t235.5 259.5t345 94q190 0 341.5 -94t236.5 -259.5t85 -371.5q0 -205 -85 -370.5t-236.5 -260t-341.5 -94.5q-193 0 -345 94.5t-235.5 260t-83.5 370.5zM193 705q0 -179 69.5 -322.5t197 -226t290.5 -82.5q161 0 289 82.5t198 226.5t70 322 t-70 322t-198 226t-289 82q-163 0 -290.5 -82t-197 -225.5t-69.5 -322.5zM504 1573v180h98v-180h-98zM901 1573v180h98v-180h-98z" />
<glyph unicode="&#xd7;" d="M182 176l342 346l-342 348l60 60l342 -346l344 346l57 -60l-342 -346l344 -348l-59 -59l-344 346l-344 -346z" />
<glyph unicode="&#xd8;" horiz-adv-x="1499" d="M86 705q0 154 49.5 288.5t136.5 230.5t210.5 151t267.5 55q241 0 421 -156l129 160h89l-168 -207q92 -98 142 -232t50 -290q0 -153 -50 -287.5t-137.5 -230.5t-211 -151.5t-264.5 -55.5q-248 0 -424 153l-127 -158h-88l168 205q-92 100 -142.5 234.5t-50.5 290.5z M193 705q0 -272 149 -447l766 940q-150 137 -358 137q-163 0 -290.5 -82t-197 -225.5t-69.5 -322.5zM389 209q148 -135 361 -135q161 0 289 82.5t198 226.5t70 322q0 265 -152 444z" />
<glyph unicode="&#xd9;" horiz-adv-x="1548" d="M57 1321v88h471v-88h-184v-768q0 -235 112.5 -357t317.5 -122t317.5 122t112.5 357v768h-184v88h471v-88h-184v-768q0 -289 -143.5 -431t-389.5 -142t-389 142t-143 431v768h-185zM475 1909h117l219 -336h-74z" />
<glyph unicode="&#xda;" horiz-adv-x="1548" d="M57 1321v88h471v-88h-184v-768q0 -235 112.5 -357t317.5 -122t317.5 122t112.5 357v768h-184v88h471v-88h-184v-768q0 -289 -143.5 -431t-389.5 -142t-389 142t-143 431v768h-185zM735 1573l221 336h117l-264 -336h-74z" />
<glyph unicode="&#xdb;" horiz-adv-x="1548" d="M57 1321v88h471v-88h-184v-768q0 -235 112.5 -357t317.5 -122t317.5 122t112.5 357v768h-184v88h471v-88h-184v-768q0 -289 -143.5 -431t-389.5 -142t-389 142t-143 431v768h-185zM467 1573l262 336h90l262 -336h-94l-213 276l-213 -276h-94z" />
<glyph unicode="&#xdc;" horiz-adv-x="1548" d="M57 1321v88h471v-88h-184v-768q0 -235 112.5 -357t317.5 -122t317.5 122t112.5 357v768h-184v88h471v-88h-184v-768q0 -289 -143.5 -431t-389.5 -142t-389 142t-143 431v768h-185zM528 1573v180h99v-180h-99zM926 1573v180h98v-180h-98z" />
<glyph unicode="&#xdd;" horiz-adv-x="1441" d="M33 1321v88h483v-88h-201l404 -657h4l410 657h-191v88h467v-88h-170l-469 -752v-481h254v-88h-610v88h254v473l-467 760h-168zM682 1573l221 336h117l-264 -336h-74z" />
<glyph unicode="&#xde;" horiz-adv-x="1302" d="M57 0v88h201v1233h-201v88h504v-88h-201v-182h414q218 0 338.5 -117t120.5 -309q0 -194 -121 -314t-338 -120h-414v-191h201v-88h-504zM360 367h418q169 0 260.5 96t91.5 250q0 153 -91 245.5t-261 92.5h-418v-684z" />
<glyph unicode="&#xdf;" horiz-adv-x="1171" d="M66 0v80h180v840h-180v79h180v45q0 240 111 358t294 118q165 0 252.5 -81t87.5 -206q0 -60 -23.5 -109t-57.5 -82t-67.5 -63t-57 -66t-23.5 -77q0 -35 19.5 -66t50.5 -56.5t68.5 -52t75 -58t68.5 -67.5t50.5 -87.5t19.5 -112.5q0 -108 -51 -185.5t-134 -114t-188 -36.5 h-151v80h151q117 0 196 64t79 184q0 61 -25.5 111t-63.5 81t-83 65t-83 63.5t-63.5 76t-25.5 102.5q0 54 23.5 98.5t57 76t67.5 63t57.5 74t23.5 94.5q0 91 -65 148t-189 57q-142 0 -222.5 -96t-80.5 -298v-1044h-278z" />
<glyph unicode="&#xe0;" horiz-adv-x="1097" d="M98 250q0 121 75.5 192t232.5 97l235 39q76 11 107.5 30t31.5 60q-3 132 -73 201t-195 69q-126 0 -201.5 -67t-81.5 -195h-94q6 161 108.5 252.5t268.5 91.5q173 0 269 -93.5t96 -267.5v-579h163v-80h-256v184h-4q-43 -97 -137.5 -150.5t-224.5 -53.5q-151 0 -235.5 73 t-84.5 197zM197 258q0 -90 61 -143.5t174 -53.5q70 0 131 21.5t110.5 64t78 114.5t28.5 165v137q-29 -42 -125 -59l-233 -37q-114 -19 -169.5 -70t-55.5 -139zM205 1499h117l219 -336h-74z" />
<glyph unicode="&#xe1;" horiz-adv-x="1097" d="M98 250q0 121 75.5 192t232.5 97l235 39q76 11 107.5 30t31.5 60q-3 132 -73 201t-195 69q-126 0 -201.5 -67t-81.5 -195h-94q6 161 108.5 252.5t268.5 91.5q173 0 269 -93.5t96 -267.5v-579h163v-80h-256v184h-4q-43 -97 -137.5 -150.5t-224.5 -53.5q-151 0 -235.5 73 t-84.5 197zM197 258q0 -90 61 -143.5t174 -53.5q70 0 131 21.5t110.5 64t78 114.5t28.5 165v137q-29 -42 -125 -59l-233 -37q-114 -19 -169.5 -70t-55.5 -139zM465 1163l221 336h117l-264 -336h-74z" />
<glyph unicode="&#xe2;" horiz-adv-x="1097" d="M98 250q0 121 75.5 192t232.5 97l235 39q76 11 107.5 30t31.5 60q-3 132 -73 201t-195 69q-126 0 -201.5 -67t-81.5 -195h-94q6 161 108.5 252.5t268.5 91.5q173 0 269 -93.5t96 -267.5v-579h163v-80h-256v184h-4q-43 -97 -137.5 -150.5t-224.5 -53.5q-151 0 -235.5 73 t-84.5 197zM197 258q0 -90 61 -143.5t174 -53.5q70 0 131 21.5t110.5 64t78 114.5t28.5 165v137q-29 -42 -125 -59l-233 -37q-114 -19 -169.5 -70t-55.5 -139zM197 1163l262 336h90l262 -336h-94l-213 277l-213 -277h-94z" />
<glyph unicode="&#xe3;" horiz-adv-x="1097" d="M98 250q0 121 75.5 192t232.5 97l235 39q76 11 107.5 30t31.5 60q-3 132 -73 201t-195 69q-126 0 -201.5 -67t-81.5 -195h-94q6 161 108.5 252.5t268.5 91.5q173 0 269 -93.5t96 -267.5v-579h163v-80h-256v184h-4q-43 -97 -137.5 -150.5t-224.5 -53.5q-151 0 -235.5 73 t-84.5 197zM197 258q0 -90 61 -143.5t174 -53.5q70 0 131 21.5t110.5 64t78 114.5t28.5 165v137q-29 -42 -125 -59l-233 -37q-114 -19 -169.5 -70t-55.5 -139zM205 1237q5 79 46 131.5t114 52.5q46 0 101.5 -28t105.5 -56t83 -28q82 0 99 116h57q-5 -77 -46.5 -130.5 t-113.5 -53.5q-47 0 -102.5 28.5t-105.5 56.5t-83 28q-81 0 -98 -117h-57z" />
<glyph unicode="&#xe4;" horiz-adv-x="1097" d="M98 250q0 121 75.5 192t232.5 97l235 39q76 11 107.5 30t31.5 60q-3 132 -73 201t-195 69q-126 0 -201.5 -67t-81.5 -195h-94q6 161 108.5 252.5t268.5 91.5q173 0 269 -93.5t96 -267.5v-579h163v-80h-256v184h-4q-43 -97 -137.5 -150.5t-224.5 -53.5q-151 0 -235.5 73 t-84.5 197zM197 258q0 -90 61 -143.5t174 -53.5q70 0 131 21.5t110.5 64t78 114.5t28.5 165v137q-29 -42 -125 -59l-233 -37q-114 -19 -169.5 -70t-55.5 -139zM258 1241v180h98v-180h-98zM655 1241v180h99v-180h-99z" />
<glyph unicode="&#xe5;" horiz-adv-x="1097" d="M98 250q0 121 75.5 192t232.5 97l235 39q76 11 107.5 30t31.5 60q-3 132 -73 201t-195 69q-126 0 -201.5 -67t-81.5 -195h-94q6 161 108.5 252.5t268.5 91.5q173 0 269 -93.5t96 -267.5v-579h163v-80h-256v184h-4q-43 -97 -137.5 -150.5t-224.5 -53.5q-151 0 -235.5 73 t-84.5 197zM197 258q0 -90 61 -143.5t174 -53.5q70 0 131 21.5t110.5 64t78 114.5t28.5 165v137q-29 -42 -125 -59l-233 -37q-114 -19 -169.5 -70t-55.5 -139zM315 1352q0 81 57.5 132.5t131.5 51.5t131 -51.5t57 -132.5q0 -80 -57 -132.5t-131 -52.5t-131.5 52.5 t-57.5 132.5zM373 1352q0 -58 39.5 -94.5t91.5 -36.5t91.5 36.5t39.5 94.5t-39.5 95.5t-91.5 37.5t-91.5 -37.5t-39.5 -95.5z" />
<glyph unicode="&#xe6;" horiz-adv-x="1699" d="M98 250q0 120 75 191.5t233 97.5l235 39q75 11 106 30t31 60q-3 133 -71 201.5t-195 68.5q-126 0 -201.5 -67t-81.5 -195h-94q6 161 108.5 252.5t268.5 91.5q135 0 221.5 -55.5t118.5 -161.5q59 102 154 159.5t211 57.5q183 0 296 -127t113 -348v-43h-745v-2 q0 -196 91.5 -315t252.5 -119q125 0 205.5 69t93.5 189h92q-12 -154 -121 -249t-270 -95q-149 0 -251.5 69t-152.5 197q-52 -133 -158.5 -199.5t-244.5 -66.5q-151 0 -235.5 73t-84.5 197zM197 258q0 -92 62 -144.5t173 -52.5q71 0 132.5 23t110 67.5t76 118t27.5 168.5v121 q-33 -42 -125 -55l-231 -37q-116 -19 -170.5 -70t-54.5 -139zM885 578h641q-7 172 -90 264t-219 92q-131 0 -222 -97t-110 -259z" />
<glyph unicode="&#xe7;" horiz-adv-x="1007" d="M70 496q0 233 128.5 378.5t317.5 145.5q119 0 200 -48t118 -128h4v155h84v-323h-86q-31 122 -113 190t-197 68q-152 0 -253 -121.5t-101 -312.5q0 -194 96.5 -314t255.5 -120q117 0 199 70t104 188h95q-24 -150 -126 -244t-261 -100l-19 -70q91 -3 140 -50t49 -116 q0 -76 -52 -127t-157 -51h-103v63h99q69 0 102 32t33 83q0 49 -35.5 79t-102.5 30h-47l50 129q-194 10 -308 149.5t-114 364.5z" />
<glyph unicode="&#xe8;" horiz-adv-x="1007" d="M70 500q0 228 127.5 374t318.5 146q184 0 301 -127.5t117 -347.5v-43h-762v-2q0 -196 94.5 -315t257.5 -119q126 0 210 69.5t97 188.5h93q-12 -153 -125 -248.5t-275 -95.5q-214 0 -334 141t-120 379zM176 578h658q-7 171 -94 263.5t-224 92.5q-132 0 -226 -97.5 t-114 -258.5zM217 1499h117l219 -336h-74z" />
<glyph unicode="&#xe9;" horiz-adv-x="1007" d="M70 500q0 228 127.5 374t318.5 146q184 0 301 -127.5t117 -347.5v-43h-762v-2q0 -196 94.5 -315t257.5 -119q126 0 210 69.5t97 188.5h93q-12 -153 -125 -248.5t-275 -95.5q-214 0 -334 141t-120 379zM176 578h658q-7 171 -94 263.5t-224 92.5q-132 0 -226 -97.5 t-114 -258.5zM477 1163l221 336h117l-264 -336h-74z" />
<glyph unicode="&#xea;" horiz-adv-x="1007" d="M70 500q0 228 127.5 374t318.5 146q184 0 301 -127.5t117 -347.5v-43h-762v-2q0 -196 94.5 -315t257.5 -119q126 0 210 69.5t97 188.5h93q-12 -153 -125 -248.5t-275 -95.5q-214 0 -334 141t-120 379zM176 578h658q-7 171 -94 263.5t-224 92.5q-132 0 -226 -97.5 t-114 -258.5zM209 1163l262 336h90l262 -336h-94l-213 277l-213 -277h-94z" />
<glyph unicode="&#xeb;" horiz-adv-x="1007" d="M70 500q0 228 127.5 374t318.5 146q184 0 301 -127.5t117 -347.5v-43h-762v-2q0 -196 94.5 -315t257.5 -119q126 0 210 69.5t97 188.5h93q-12 -153 -125 -248.5t-275 -95.5q-214 0 -334 141t-120 379zM176 578h658q-7 171 -94 263.5t-224 92.5q-132 0 -226 -97.5 t-114 -258.5zM270 1241v180h99v-180h-99zM668 1241v180h98v-180h-98z" />
<glyph unicode="&#xec;" horiz-adv-x="581" d="M-4 1499h117l219 -336h-74zM66 0v80h180v840h-180v79h278v-919h172v-80h-450z" />
<glyph unicode="&#xed;" horiz-adv-x="581" d="M66 0v80h180v840h-180v79h278v-919h172v-80h-450zM256 1163l221 336h117l-264 -336h-74z" />
<glyph unicode="&#xee;" horiz-adv-x="581" d="M-12 1163l262 336h90l262 -336h-94l-213 277l-213 -277h-94zM66 0v80h180v840h-180v79h278v-919h172v-80h-450z" />
<glyph unicode="&#xef;" horiz-adv-x="581" d="M49 1241v180h98v-180h-98zM66 0v80h180v840h-180v79h278v-919h172v-80h-450zM446 1241v180h99v-180h-99z" />
<glyph unicode="&#xf0;" horiz-adv-x="1081" d="M70 467q0 211 132 349t322 138q113 0 207.5 -50t145.5 -142h4q-30 178 -95.5 303.5t-179.5 214.5l-241 -162l-37 56l219 147q-113 72 -293 129l20 74q212 -61 347 -154l206 139l37 -55l-186 -125q153 -121 231.5 -302.5t85.5 -440.5v-78q0 -241 -131 -384.5t-332 -143.5 q-207 0 -334.5 136.5t-127.5 350.5zM172 467q0 -174 101 -287.5t259 -113.5q154 0 257.5 112.5t103.5 288.5q0 180 -101.5 290.5t-259.5 110.5q-154 0 -257 -113.5t-103 -287.5z" />
<glyph unicode="&#xf1;" horiz-adv-x="1265" d="M66 0v80h180v840h-180v79h272v-196h4q44 108 137 162.5t209 54.5q77 0 140 -22.5t112.5 -69t76.5 -125.5t27 -185v-538h164v-80h-426v80h164v526q0 171 -72.5 249.5t-201.5 78.5q-143 0 -235.5 -108t-92.5 -302v-444h164v-80h-442zM340 1237q5 79 46 131.5t114 52.5 q46 0 102 -28t106 -56t83 -28q81 0 98 116h57q-5 -77 -46.5 -130.5t-113.5 -53.5q-37 0 -80.5 17.5t-75.5 39t-69.5 39t-64.5 17.5q-82 0 -99 -117h-57z" />
<glyph unicode="&#xf2;" horiz-adv-x="1056" d="M70 500q0 231 130.5 375.5t327.5 144.5q206 0 332.5 -143t126.5 -377q0 -231 -131 -375.5t-328 -144.5q-206 0 -332 143t-126 377zM172 500q0 -193 99.5 -313.5t256.5 -120.5q153 0 255 121.5t102 312.5q0 195 -100 314.5t-257 119.5q-153 0 -254.5 -121.5t-101.5 -312.5 zM229 1499h117l219 -336h-73z" />
<glyph unicode="&#xf3;" horiz-adv-x="1056" d="M70 500q0 231 130.5 375.5t327.5 144.5q206 0 332.5 -143t126.5 -377q0 -231 -131 -375.5t-328 -144.5q-206 0 -332 143t-126 377zM172 500q0 -193 99.5 -313.5t256.5 -120.5q153 0 255 121.5t102 312.5q0 195 -100 314.5t-257 119.5q-153 0 -254.5 -121.5t-101.5 -312.5 zM489 1163l222 336h116l-264 -336h-74z" />
<glyph unicode="&#xf4;" horiz-adv-x="1056" d="M70 500q0 231 130.5 375.5t327.5 144.5q206 0 332.5 -143t126.5 -377q0 -231 -131 -375.5t-328 -144.5q-206 0 -332 143t-126 377zM172 500q0 -193 99.5 -313.5t256.5 -120.5q153 0 255 121.5t102 312.5q0 195 -100 314.5t-257 119.5q-153 0 -254.5 -121.5t-101.5 -312.5 zM221 1163l262 336h90l263 -336h-95l-213 277l-213 -277h-94z" />
<glyph unicode="&#xf5;" horiz-adv-x="1056" d="M70 500q0 231 130.5 375.5t327.5 144.5q206 0 332.5 -143t126.5 -377q0 -231 -131 -375.5t-328 -144.5q-206 0 -332 143t-126 377zM172 500q0 -193 99.5 -313.5t256.5 -120.5q153 0 255 121.5t102 312.5q0 195 -100 314.5t-257 119.5q-153 0 -254.5 -121.5t-101.5 -312.5 zM229 1237q5 79 46 131.5t114 52.5q46 0 102 -28t106 -56t83 -28q81 0 98 116h58q-5 -77 -46.5 -130.5t-113.5 -53.5q-47 0 -102.5 28.5t-105.5 56.5t-83 28q-81 0 -98 -117h-58z" />
<glyph unicode="&#xf6;" horiz-adv-x="1056" d="M70 500q0 231 130.5 375.5t327.5 144.5q206 0 332.5 -143t126.5 -377q0 -231 -131 -375.5t-328 -144.5q-206 0 -332 143t-126 377zM172 500q0 -193 99.5 -313.5t256.5 -120.5q153 0 255 121.5t102 312.5q0 195 -100 314.5t-257 119.5q-153 0 -254.5 -121.5t-101.5 -312.5 zM283 1241v180h98v-180h-98zM680 1241v180h98v-180h-98z" />
<glyph unicode="&#xf7;" d="M119 477v84h925v-84h-925zM528 63v197h107v-197h-107zM528 778v197h107v-197h-107z" />
<glyph unicode="&#xf8;" horiz-adv-x="1056" d="M70 500q0 231 130.5 375.5t327.5 144.5q173 0 293 -105l86 109h78l-121 -152q123 -145 123 -372q0 -231 -131 -375.5t-328 -144.5q-171 0 -292 102l-84 -107h-78l119 150q-123 145 -123 375zM172 500q0 -175 84 -295l504 635q-97 94 -232 94q-153 0 -254.5 -121.5 t-101.5 -312.5zM297 158q92 -92 231 -92q153 0 255 121.5t102 312.5q0 176 -84 293z" />
<glyph unicode="&#xf9;" horiz-adv-x="1241" d="M57 920v79h262v-606q0 -170 72.5 -248.5t200.5 -78.5q140 0 230.5 107.5t90.5 301.5v445h-163v79h262v-919h172v-80h-266v197h-5q-44 -108 -135 -162.5t-205 -54.5q-158 0 -255 97.5t-97 303.5v539h-164zM319 1499h117l219 -336h-73z" />
<glyph unicode="&#xfa;" horiz-adv-x="1241" d="M57 920v79h262v-606q0 -170 72.5 -248.5t200.5 -78.5q140 0 230.5 107.5t90.5 301.5v445h-163v79h262v-919h172v-80h-266v197h-5q-44 -108 -135 -162.5t-205 -54.5q-158 0 -255 97.5t-97 303.5v539h-164zM580 1163l221 336h117l-265 -336h-73z" />
<glyph unicode="&#xfb;" horiz-adv-x="1241" d="M57 920v79h262v-606q0 -170 72.5 -248.5t200.5 -78.5q140 0 230.5 107.5t90.5 301.5v445h-163v79h262v-919h172v-80h-266v197h-5q-44 -108 -135 -162.5t-205 -54.5q-158 0 -255 97.5t-97 303.5v539h-164zM311 1163l262 336h91l262 -336h-95l-213 277l-212 -277h-95z" />
<glyph unicode="&#xfc;" horiz-adv-x="1241" d="M57 920v79h262v-606q0 -170 72.5 -248.5t200.5 -78.5q140 0 230.5 107.5t90.5 301.5v445h-163v79h262v-919h172v-80h-266v197h-5q-44 -108 -135 -162.5t-205 -54.5q-158 0 -255 97.5t-97 303.5v539h-164zM373 1241v180h98v-180h-98zM770 1241v180h98v-180h-98z" />
<glyph unicode="&#xfd;" horiz-adv-x="1179" d="M33 920v79h418v-79h-166l309 -816l309 816h-166v79h410v-79h-146l-499 -1291h172v-80h-449v80h183l137 353l-367 938h-145zM555 1163l221 336h117l-264 -336h-74z" />
<glyph unicode="&#xfe;" horiz-adv-x="1196" d="M57 -371h172v1790h-172v80h271v-328q0 -293 -6 -387h6q47 111 146 173.5t222 62.5q188 0 309 -139t121 -373t-125 -381t-313 -147q-123 0 -219 61t-143 174h-4q6 -99 6 -305v-281h250v-80h-521v80zM328 500q0 -198 98.5 -316t249.5 -118q150 0 249 122t99 320 q0 196 -98.5 311t-249.5 115q-148 0 -246 -112t-102 -302v-20z" />
<glyph unicode="&#xff;" horiz-adv-x="1179" d="M33 920v79h418v-79h-166l309 -816l309 816h-166v79h410v-79h-146l-499 -1291h172v-80h-449v80h183l137 353l-367 938h-145zM348 1241v180h98v-180h-98zM745 1241v180h99v-180h-99z" />
<glyph unicode="&#x152;" horiz-adv-x="2125" d="M86 705q0 155 47 283t137.5 222.5t233 146.5t323.5 52h1160v-381h-93v293h-723v-557h611v-88h-611v-588h740v293h92v-381h-1176q-181 0 -323.5 52.5t-233 146.5t-137.5 222.5t-47 283.5zM193 705q0 -132 37.5 -242t113 -195t199 -132.5t284.5 -47.5h242v1233h-242 q-161 0 -284.5 -47.5t-199 -132t-113 -194.5t-37.5 -242z" />
<glyph unicode="&#x153;" horiz-adv-x="1818" d="M70 500q0 231 130.5 375.5t327.5 144.5q141 0 247 -73t159 -202q55 128 158 201.5t235 73.5q184 0 301 -127.5t117 -347.5v-43h-762v-2q0 -196 94.5 -315t257.5 -119q126 0 210 69.5t97 188.5h95q-13 -153 -126.5 -248.5t-275.5 -95.5q-150 0 -253.5 70.5t-151.5 199.5 q-55 -127 -161.5 -198.5t-240.5 -71.5q-206 0 -332 143t-126 377zM172 500q0 -193 99.5 -313.5t256.5 -120.5q153 0 255 121.5t102 312.5q0 195 -100 314.5t-257 119.5q-153 0 -254.5 -121.5t-101.5 -312.5zM987 578h658q-7 170 -94.5 263t-223.5 93q-132 0 -226 -97.5 t-114 -258.5z" />
<glyph unicode="&#x178;" horiz-adv-x="1441" d="M33 1321v88h483v-88h-201l404 -657h4l410 657h-191v88h467v-88h-170l-469 -752v-481h254v-88h-610v88h254v473l-467 760h-168zM475 1573v180h98v-180h-98zM872 1573v180h99v-180h-99z" />
<glyph unicode="&#x2c6;" horiz-adv-x="1105" d="M246 1163l262 336h90l262 -336h-94l-213 277l-213 -277h-94z" />
<glyph unicode="&#x2dc;" horiz-adv-x="1105" d="M254 1237q5 79 46 131.5t114 52.5q46 0 102 -28t106 -56t83 -28q81 0 98 116h57q-5 -77 -46.5 -130.5t-113.5 -53.5q-37 0 -80.5 17.5t-75.5 39t-69.5 39t-64.5 17.5q-82 0 -99 -117h-57z" />
<glyph unicode="&#x2000;" horiz-adv-x="973" />
<glyph unicode="&#x2001;" horiz-adv-x="1946" />
<glyph unicode="&#x2002;" horiz-adv-x="973" />
<glyph unicode="&#x2003;" horiz-adv-x="1946" />
<glyph unicode="&#x2004;" horiz-adv-x="648" />
<glyph unicode="&#x2005;" horiz-adv-x="486" />
<glyph unicode="&#x2006;" horiz-adv-x="324" />
<glyph unicode="&#x2007;" horiz-adv-x="324" />
<glyph unicode="&#x2008;" horiz-adv-x="243" />
<glyph unicode="&#x2009;" horiz-adv-x="389" />
<glyph unicode="&#x200a;" horiz-adv-x="108" />
<glyph unicode="&#x2010;" horiz-adv-x="811" d="M123 471v90h565v-90h-565z" />
<glyph unicode="&#x2011;" horiz-adv-x="811" d="M123 471v90h565v-90h-565z" />
<glyph unicode="&#x2012;" horiz-adv-x="811" d="M123 471v90h565v-90h-565z" />
<glyph unicode="&#x2013;" horiz-adv-x="1138" d="M123 471v90h893v-90h-893z" />
<glyph unicode="&#x2014;" horiz-adv-x="1720" d="M123 471v90h1474v-90h-1474z" />
<glyph unicode="&#x2018;" horiz-adv-x="438" d="M164 893v205l76 311h55l-62 -303h46v-213h-115z" />
<glyph unicode="&#x2019;" horiz-adv-x="438" d="M143 893l62 303h-45v213h112v-205l-73 -311h-56z" />
<glyph unicode="&#x201a;" horiz-adv-x="438" d="M143 -303l62 303h-45v213h112v-205l-73 -311h-56z" />
<glyph unicode="&#x201c;" horiz-adv-x="774" d="M164 893v205l76 311h55l-62 -303h46v-213h-115zM500 893v205l75 311h56l-62 -303h43v-213h-112z" />
<glyph unicode="&#x201d;" horiz-adv-x="774" d="M143 893l62 303h-45v213h112v-205l-73 -311h-56zM479 893l62 303h-45v213h114v-205l-75 -311h-56z" />
<glyph unicode="&#x201e;" horiz-adv-x="774" d="M143 -303l62 303h-45v213h112v-205l-73 -311h-56zM479 -303l62 303h-45v213h114v-205l-75 -311h-56z" />
<glyph unicode="&#x2022;" horiz-adv-x="999" d="M147 516q0 149 102 250.5t251 101.5t250.5 -101.5t101.5 -250.5t-101.5 -250.5t-250.5 -101.5t-251 101.5t-102 250.5z" />
<glyph unicode="&#x2026;" horiz-adv-x="1357" d="M168 0v217h123v-217h-123zM618 0v217h121v-217h-121zM1067 0v217h123v-217h-123z" />
<glyph unicode="&#x202f;" horiz-adv-x="389" />
<glyph unicode="&#x2039;" horiz-adv-x="618" d="M119 516l301 418h80l-271 -418l271 -418h-80z" />
<glyph unicode="&#x203a;" horiz-adv-x="618" d="M119 98l270 418l-270 418h80l301 -418l-301 -418h-80z" />
<glyph unicode="&#x205f;" horiz-adv-x="486" />
<glyph unicode="&#x20ac;" d="M18 522l15 72h160q-5 44 -5 111q0 58 7 133h-140l17 71h131q35 240 158 380.5t331 140.5q168 0 278 -101t140 -301h-90q-60 315 -324 315q-163 0 -261 -114.5t-130 -319.5h455l-19 -71h-444q-6 -64 -6 -133q0 -76 4 -111h428l-16 -72h-406q29 -216 128.5 -336t266.5 -120 q264 0 324 315h90q-30 -200 -140 -300.5t-278 -100.5q-213 0 -337 146.5t-156 395.5h-181z" />
<glyph unicode="&#x2122;" horiz-adv-x="1798" d="M53 1196v213h594v-213h-72v143h-182v-565h131v-69h-344v69h131v565h-184v-143h-74zM725 705v69h111v565h-111v70h221l273 -596h4l270 596h223v-70h-110v-565h110v-69h-303v69h111l4 518h-4l-269 -587h-69l-268 587h-5l2 -518h113v-69h-303z" />
<glyph unicode="&#xe000;" horiz-adv-x="1003" d="M0 0v1004h1004v-1004h-1004z" />
</font>
</defs>
</svg>
